<?xml version="1.0" encoding="UTF-8" standalone="no"?>
<svg height="74.0px" width="96.0px" xmlns="http://www.w3.org/2000/svg">
  <g transform="matrix(1.0, 0.0, 0.0, 1.0, 0.0, 0.0)">
    <path d="M0.0 1.0 L0.0 0.0 1.0 0.0 1.0 1.0 0.0 1.0 M95.0 0.0 L96.0 0.0 96.0 1.0 95.0 1.0 95.0 0.0" fill="#3c8d94" fill-opacity="0.5921569" fill-rule="evenodd" stroke="none"/>
    <path d="M96.0 1.0 L96.0 17.95 96.0 55.0 95.0 55.0 95.0 17.95 95.0 1.0 96.0 1.0 M0.0 55.0 L0.0 17.95 0.0 1.0 1.0 1.0 1.0 17.95 1.0 55.0 0.0 55.0" fill="#57d9f7" fill-rule="evenodd" stroke="none"/>
    <path d="M1.0 0.0 L20.7 0.0 63.3 0.0 95.0 0.0 95.0 1.0 63.3 1.0 20.7 1.0 1.0 1.0 1.0 0.0" fill="#67f2fd" fill-rule="evenodd" stroke="none"/>
    <path d="M96.0 55.0 L96.0 55.05 96.0 73.0 95.0 73.0 95.0 55.05 95.0 55.0 96.0 55.0 M0.0 73.0 L0.0 55.05 0.0 55.0 1.0 55.0 1.0 55.05 1.0 73.0 0.0 73.0" fill="#40b3ee" fill-rule="evenodd" stroke="none"/>
    <path d="M95.0 55.0 L95.0 55.05 95.0 73.0 63.3 73.0 20.7 73.0 1.0 73.0 1.0 55.05 1.0 55.0 1.0 17.95 1.0 1.0 20.7 1.0 63.3 1.0 95.0 1.0 95.0 17.95 95.0 55.0" fill="#141d1f" fill-opacity="0.6039216" fill-rule="evenodd" stroke="none"/>
    <path d="M96.0 73.0 L96.0 74.0 95.0 74.0 95.0 73.0 96.0 73.0 M1.0 74.0 L0.0 74.0 0.0 73.0 1.0 73.0 1.0 74.0" fill="#23658a" fill-opacity="0.5921569" fill-rule="evenodd" stroke="none"/>
    <path d="M95.0 74.0 L63.3 74.0 20.7 74.0 1.0 74.0 1.0 73.0 20.7 73.0 63.3 73.0 95.0 73.0 95.0 74.0" fill="#3daded" fill-rule="evenodd" stroke="none"/>
  </g>
</svg>
