<?xml version="1.0" encoding="UTF-8" standalone="no"?>
<svg height="18.0px" width="52.0px" xmlns="http://www.w3.org/2000/svg">
  <g transform="matrix(1.0, 0.0, 0.0, 1.0, 0.0, 0.0)">
    <path d="M51.0 2.0 L52.0 2.0 52.0 3.0 51.0 3.0 51.0 2.0 M0.0 3.0 L0.0 2.0 1.0 2.0 1.0 3.0 0.0 3.0" fill="#00141f" fill-opacity="0.19215687" fill-rule="evenodd" stroke="none"/>
    <path d="M52.0 3.0 L52.0 4.0 51.0 4.0 51.0 3.0 52.0 3.0 M0.0 4.0 L0.0 3.0 1.0 3.0 1.0 4.0 0.0 4.0" fill="#014065" fill-opacity="0.6039216" fill-rule="evenodd" stroke="none"/>
    <path d="M2.0 2.0 L2.0 3.0 1.0 3.0 1.0 2.0 2.0 2.0 M50.0 2.0 L51.0 2.0 51.0 3.0 50.0 3.0 50.0 2.0" fill="#0371ad" fill-rule="evenodd" stroke="none"/>
    <path d="M50.0 1.0 L51.0 1.0 51.0 2.0 50.0 2.0 50.0 1.0 M1.0 2.0 L1.0 1.0 2.0 1.0 2.0 2.0 1.0 2.0" fill="#01324f" fill-opacity="0.4745098" fill-rule="evenodd" stroke="none"/>
    <path d="M52.0 5.0 L52.0 6.0 51.0 6.0 51.0 5.0 52.0 5.0 M0.0 6.0 L0.0 5.0 1.0 5.0 1.0 6.0 0.0 6.0" fill="#056ead" fill-opacity="0.99215686" fill-rule="evenodd" stroke="none"/>
    <path d="M52.0 4.0 L52.0 4.45 52.0 5.0 51.0 5.0 51.0 4.45 51.0 4.0 52.0 4.0" fill="#03639b" fill-opacity="0.9098039" fill-rule="evenodd" stroke="none"/>
    <path d="M52.0 6.0 L52.0 7.0 51.0 7.0 51.0 6.0 52.0 6.0 M0.0 7.0 L0.0 6.0 1.0 6.0 1.0 7.0 0.0 7.0" fill="#0973b5" fill-rule="evenodd" stroke="none"/>
    <path d="M50.0 5.0 L51.0 5.0 51.0 6.0 39.05 6.0 12.95 6.0 1.0 6.0 1.0 5.0 2.0 5.0 12.95 5.0 39.05 5.0 50.0 5.0" fill="#02a4d3" fill-rule="evenodd" stroke="none"/>
    <path d="M51.0 4.0 L51.0 4.45 51.0 5.0 50.0 5.0 50.0 4.45 50.0 4.0 51.0 4.0" fill="#009dcf" fill-rule="evenodd" stroke="none"/>
    <path d="M2.0 4.0 L1.0 4.0 1.0 3.0 2.0 3.0 2.0 4.0 M50.0 4.0 L50.0 3.0 51.0 3.0 51.0 4.0 50.0 4.0" fill="#018cc0" fill-rule="evenodd" stroke="none"/>
    <path d="M52.0 8.0 L52.0 9.0 51.0 9.0 51.0 8.0 52.0 8.0 M0.0 9.0 L0.0 8.0 1.0 8.0 1.0 9.0 0.0 9.0" fill="#0f7abf" fill-rule="evenodd" stroke="none"/>
    <path d="M52.0 7.0 L52.0 8.0 51.0 8.0 51.0 7.0 52.0 7.0 M0.0 8.0 L0.0 7.0 1.0 7.0 1.0 8.0 0.0 8.0" fill="#0c77ba" fill-rule="evenodd" stroke="none"/>
    <path d="M1.0 7.0 L12.95 7.0 39.05 7.0 51.0 7.0 51.0 8.0 39.05 8.0 12.95 8.0 1.0 8.0 1.0 7.0" fill="#05abd6" fill-rule="evenodd" stroke="none"/>
    <path d="M1.0 8.0 L12.95 8.0 39.05 8.0 51.0 8.0 51.0 9.0 39.05 9.0 12.95 9.0 1.0 9.0 1.0 8.0" fill="#06aed8" fill-rule="evenodd" stroke="none"/>
    <path d="M52.0 9.0 L52.0 10.0 51.0 10.0 51.0 9.0 52.0 9.0 M0.0 10.0 L0.0 9.0 1.0 9.0 1.0 10.0 0.0 10.0" fill="#127ec5" fill-rule="evenodd" stroke="none"/>
    <path d="M52.0 10.0 L52.0 11.0 51.0 11.0 51.0 10.0 52.0 10.0 M0.0 11.0 L0.0 10.0 1.0 10.0 1.0 11.0 0.0 11.0" fill="#1482cc" fill-rule="evenodd" stroke="none"/>
    <path d="M52.0 11.0 L52.0 12.0 51.0 12.0 51.0 11.0 52.0 11.0 M0.0 12.0 L0.0 11.0 1.0 11.0 1.0 12.0 0.0 12.0" fill="#1786d2" fill-rule="evenodd" stroke="none"/>
    <path d="M52.0 12.0 L52.0 13.0 51.0 13.0 51.0 12.0 52.0 12.0 M0.0 13.0 L0.0 12.0 1.0 12.0 1.0 13.0 0.0 13.0" fill="#1881ca" fill-opacity="0.94509804" fill-rule="evenodd" stroke="none"/>
    <path d="M50.0 12.0 L39.05 12.0 12.95 12.0 2.0 12.0 1.0 12.0 1.0 11.0 12.95 11.0 39.05 11.0 51.0 11.0 51.0 12.0 50.0 12.0" fill="#0cbadf" fill-rule="evenodd" stroke="none"/>
    <path d="M51.0 11.0 L39.05 11.0 12.95 11.0 1.0 11.0 1.0 10.0 12.95 10.0 39.05 10.0 51.0 10.0 51.0 11.0" fill="#0ab6dd" fill-rule="evenodd" stroke="none"/>
    <path d="M1.0 9.0 L12.95 9.0 39.05 9.0 51.0 9.0 51.0 10.0 39.05 10.0 12.95 10.0 1.0 10.0 1.0 9.0" fill="#08b2da" fill-rule="evenodd" stroke="none"/>
    <path d="M1.0 6.0 L12.95 6.0 39.05 6.0 51.0 6.0 51.0 7.0 39.05 7.0 12.95 7.0 1.0 7.0 1.0 6.0" fill="#03a7d4" fill-rule="evenodd" stroke="none"/>
    <path d="M2.0 1.0 L2.0 0.0 3.0 0.0 3.0 1.0 2.0 1.0 M49.0 0.0 L50.0 0.0 50.0 1.0 49.0 1.0 49.0 0.0" fill="#001019" fill-opacity="0.15686275" fill-rule="evenodd" stroke="none"/>
    <path d="M3.0 0.0 L4.0 0.0 4.0 1.0 3.0 1.0 3.0 0.0 M48.0 0.0 L49.0 0.0 49.0 1.0 48.0 1.0 48.0 0.0" fill="#013c5f" fill-opacity="0.5686275" fill-rule="evenodd" stroke="none"/>
    <path d="M50.0 3.0 L49.0 3.0 49.0 2.0 50.0 2.0 50.0 3.0 M2.0 2.0 L3.0 2.0 3.0 3.0 2.0 3.0 2.0 2.0" fill="#009bcc" fill-rule="evenodd" stroke="none"/>
    <path d="M5.0 1.0 L12.95 1.0 39.05 1.0 47.0 1.0 47.0 2.0 48.0 2.0 49.0 2.0 49.0 3.0 50.0 3.0 50.0 4.0 39.05 4.0 12.95 4.0 2.0 4.0 2.0 3.0 3.0 3.0 3.0 2.0 4.0 2.0 5.0 2.0 5.0 1.0" fill="#00a1d1" fill-rule="evenodd" stroke="none"/>
    <path d="M2.0 1.0 L3.0 1.0 3.0 2.0 2.0 2.0 2.0 1.0 M50.0 2.0 L49.0 2.0 49.0 1.0 50.0 1.0 50.0 2.0" fill="#036fab" fill-rule="evenodd" stroke="none"/>
    <path d="M49.0 2.0 L48.0 2.0 48.0 1.0 49.0 1.0 49.0 2.0 M3.0 2.0 L3.0 1.0 4.0 1.0 4.0 2.0 3.0 2.0" fill="#018abf" fill-rule="evenodd" stroke="none"/>
    <path d="M4.0 0.0 L5.0 0.0 5.0 1.0 4.0 1.0 4.0 0.0 M47.0 0.0 L48.0 0.0 48.0 1.0 47.0 1.0 47.0 0.0" fill="#025788" fill-opacity="0.8156863" fill-rule="evenodd" stroke="none"/>
    <path d="M5.0 0.0 L12.95 0.0 39.05 0.0 47.0 0.0 47.0 1.0 39.05 1.0 12.95 1.0 5.0 1.0 5.0 0.0" fill="#036ca9" fill-rule="evenodd" stroke="none"/>
    <path d="M48.0 2.0 L47.0 2.0 47.0 1.0 48.0 1.0 48.0 2.0 M4.0 2.0 L4.0 1.0 5.0 1.0 5.0 2.0 4.0 2.0" fill="#0197ca" fill-rule="evenodd" stroke="none"/>
    <path d="M50.0 4.0 L50.0 4.45 50.0 5.0 39.05 5.0 12.95 5.0 2.0 5.0 2.0 4.45 2.0 4.0 12.95 4.0 39.05 4.0 50.0 4.0" fill="#00a2d2" fill-rule="evenodd" stroke="none"/>
    <path d="M50.0 14.0 L51.0 14.0 51.0 15.0 50.0 15.0 50.0 14.0" fill="#1aa5e4" fill-rule="evenodd" stroke="none"/>
    <path d="M2.0 14.0 L12.95 14.0 39.05 14.0 50.0 14.0 50.0 15.0 49.0 15.0 39.05 15.0 12.95 15.0 3.0 15.0 2.0 15.0 2.0 14.0" fill="#11c5e5" fill-rule="evenodd" stroke="none"/>
    <path d="M50.0 14.0 L50.0 13.55 50.0 13.0 51.0 13.0 51.0 13.55 51.0 14.0 50.0 14.0 M2.0 13.0 L2.0 13.55 2.0 14.0 1.0 14.0 1.0 13.55 1.0 13.0 2.0 13.0" fill="#13b6e2" fill-rule="evenodd" stroke="none"/>
    <path d="M50.0 13.0 L50.0 13.55 50.0 14.0 39.05 14.0 12.95 14.0 2.0 14.0 2.0 13.55 2.0 13.0 12.95 13.0 39.05 13.0 50.0 13.0" fill="#10c2e3" fill-rule="evenodd" stroke="none"/>
    <path d="M2.0 15.0 L3.0 15.0 3.0 16.0 2.0 16.0 2.0 15.0 M49.0 15.0 L50.0 15.0 50.0 16.0 49.0 16.0 49.0 15.0" fill="#18b6e8" fill-rule="evenodd" stroke="none"/>
    <path d="M3.0 15.0 L12.95 15.0 39.05 15.0 49.0 15.0 49.0 16.0 48.0 16.0 47.0 16.0 39.05 16.0 12.95 16.0 5.0 16.0 4.0 16.0 3.0 16.0 3.0 15.0" fill="#13c9e7" fill-rule="evenodd" stroke="none"/>
    <path d="M47.0 17.0 L47.0 16.0 48.0 16.0 48.0 17.0 47.0 17.0 M5.0 16.0 L5.0 17.0 4.0 17.0 4.0 16.0 5.0 16.0" fill="#15c5e9" fill-rule="evenodd" stroke="none"/>
    <path d="M47.0 17.0 L39.05 17.0 12.95 17.0 5.0 17.0 5.0 16.0 12.95 16.0 39.05 16.0 47.0 16.0 47.0 17.0" fill="#13cce8" fill-rule="evenodd" stroke="none"/>
    <path d="M48.0 18.0 L47.0 18.0 47.0 17.0 48.0 17.0 48.0 18.0 M5.0 18.0 L4.0 18.0 4.0 17.0 5.0 17.0 5.0 18.0" fill="#2386d3" fill-opacity="0.8862745" fill-rule="evenodd" stroke="none"/>
    <path d="M48.0 16.0 L49.0 16.0 49.0 17.0 48.0 17.0 48.0 16.0" fill="#1eaeeb" fill-rule="evenodd" stroke="none"/>
    <path d="M49.0 17.0 L49.0 18.0 48.0 18.0 48.0 17.0 49.0 17.0 M4.0 18.0 L3.0 18.0 3.0 17.0 4.0 17.0 4.0 18.0" fill="#124770" fill-opacity="0.4745098" fill-rule="evenodd" stroke="none"/>
    <path d="M47.0 18.0 L39.05 18.0 12.95 18.0 5.0 18.0 5.0 17.0 12.95 17.0 39.05 17.0 47.0 17.0 47.0 18.0" fill="#2899f1" fill-rule="evenodd" stroke="none"/>
    <path d="M51.0 16.0 L51.0 17.0 50.0 17.0 50.0 16.0 51.0 16.0 M2.0 17.0 L1.0 17.0 1.0 16.0 2.0 16.0 2.0 17.0" fill="#09253a" fill-opacity="0.2509804" fill-rule="evenodd" stroke="none"/>
    <path d="M50.0 17.0 L49.0 17.0 49.0 16.0 50.0 16.0 50.0 17.0 M3.0 17.0 L2.0 17.0 2.0 16.0 3.0 16.0 3.0 17.0" fill="#18639b" fill-opacity="0.6627451" fill-rule="evenodd" stroke="none"/>
    <path d="M51.0 15.0 L51.0 16.0 50.0 16.0 50.0 15.0 51.0 15.0 M1.0 16.0 L1.0 15.0 2.0 15.0 2.0 16.0 1.0 16.0" fill="#166198" fill-opacity="0.6627451" fill-rule="evenodd" stroke="none"/>
    <path d="M52.0 14.0 L52.0 15.0 51.0 15.0 51.0 14.0 52.0 14.0" fill="#0c3858" fill-opacity="0.39215687" fill-rule="evenodd" stroke="none"/>
    <path d="M52.0 13.0 L52.0 13.55 52.0 14.0 51.0 14.0 51.0 13.55 51.0 13.0 52.0 13.0 M0.0 14.0 L0.0 13.55 0.0 13.0 1.0 13.0 1.0 13.55 1.0 14.0 0.0 14.0" fill="#166ba9" fill-opacity="0.76862746" fill-rule="evenodd" stroke="none"/>
    <path d="M51.0 13.0 L50.0 13.0 50.0 12.0 51.0 12.0 51.0 13.0 M2.0 12.0 L2.0 13.0 1.0 13.0 1.0 12.0 2.0 12.0" fill="#0fbbe0" fill-rule="evenodd" stroke="none"/>
    <path d="M50.0 12.0 L50.0 13.0 39.05 13.0 12.95 13.0 2.0 13.0 2.0 12.0 12.95 12.0 39.05 12.0 50.0 12.0" fill="#0ebee1" fill-rule="evenodd" stroke="none"/>
    <path d="M0.0 5.0 L0.0 4.45 0.0 4.0 1.0 4.0 1.0 4.45 1.0 5.0 0.0 5.0" fill="#036199" fill-opacity="0.8980392" fill-rule="evenodd" stroke="none"/>
    <path d="M1.0 5.0 L1.0 4.45 1.0 4.0 2.0 4.0 2.0 4.45 2.0 5.0 1.0 5.0" fill="#009cce" fill-rule="evenodd" stroke="none"/>
    <path d="M1.0 15.0 L0.0 15.0 0.0 14.0 1.0 14.0 1.0 15.0" fill="#0b3452" fill-opacity="0.36862746" fill-rule="evenodd" stroke="none"/>
    <path d="M1.0 14.0 L2.0 14.0 2.0 15.0 1.0 15.0 1.0 14.0" fill="#1aa4e4" fill-rule="evenodd" stroke="none"/>
    <path d="M3.0 16.0 L4.0 16.0 4.0 17.0 3.0 17.0 3.0 16.0" fill="#1eadeb" fill-rule="evenodd" stroke="none"/>
  </g>
</svg>
