<?xml version="1.0" encoding="UTF-8" standalone="no"?>
<svg height="14.0px" width="14.0px" xmlns="http://www.w3.org/2000/svg">
  <g transform="matrix(1.0, 0.0, 0.0, 1.0, 0.0, 0.0)">
    <path d="M13.0 7.0 Q13.0 9.5 11.25 11.25 9.5 13.0 7.0 13.0 4.5 13.0 2.75 11.25 1.0 9.5 1.0 7.0 1.0 4.7 2.5 3.05 L2.75 2.75 Q4.5 1.0 7.0 1.0 9.5 1.0 11.25 2.75 L11.55 3.05 Q13.0 4.7 13.0 7.0" fill="url(#gradient0)" fill-rule="evenodd" stroke="none"/>
    <path d="M13.0 7.0 Q13.0 4.7 11.55 3.05 L11.25 2.75 Q9.5 1.0 7.0 1.0 4.5 1.0 2.75 2.75 L2.5 3.05 Q1.0 4.7 1.0 7.0 1.0 9.5 2.75 11.25 4.5 13.0 7.0 13.0 9.5 13.0 11.25 11.25 13.0 9.5 13.0 7.0 M12.8 3.05 Q14.0 4.75 14.0 7.0 14.0 9.9 11.95 11.95 9.9 14.0 7.0 14.0 4.1 14.0 2.05 11.95 0.0 9.9 0.0 7.0 0.0 4.75 1.2 3.05 L2.05 2.05 Q4.1 0.0 7.0 0.0 9.9 0.0 11.95 2.05 L12.8 3.05" fill="url(#gradient1)" fill-rule="evenodd" stroke="none"/>
    <path d="M2.75 2.75 Q4.5 1.0 7.0 1.0 9.5 1.0 11.25 2.75 L11.55 3.05 Q13.0 4.7 13.0 7.0 L1.0 7.0 Q1.0 4.7 2.5 3.05 L2.75 2.75" fill="url(#gradient2)" fill-rule="evenodd" stroke="none"/>
  </g>
  <defs>
    <linearGradient gradientTransform="matrix(0.0, -0.0073, 0.0073, 0.0, 5.95, 6.3)" gradientUnits="userSpaceOnUse" id="gradient0" spreadMethod="pad" x1="-819.2" x2="819.2">
      <stop offset="0.0" stop-color="#cccccc" stop-opacity="0.2"/>
      <stop offset="1.0" stop-color="#ffffff" stop-opacity="0.3019608"/>
    </linearGradient>
    <linearGradient gradientTransform="matrix(0.0, -0.0089, 0.0089, 0.0, 7.5, 6.65)" gradientUnits="userSpaceOnUse" id="gradient1" spreadMethod="pad" x1="-819.2" x2="819.2">
      <stop offset="0.0" stop-color="#5b5d5e" stop-opacity="0.3019608"/>
      <stop offset="1.0" stop-color="#b7babc" stop-opacity="0.3019608"/>
    </linearGradient>
    <linearGradient gradientTransform="matrix(0.0, -0.0037, 0.0073, 0.0, 5.9, 4.0)" gradientUnits="userSpaceOnUse" id="gradient2" spreadMethod="pad" x1="-819.2" x2="819.2">
      <stop offset="0.0" stop-color="#cccccc" stop-opacity="0.0"/>
      <stop offset="1.0" stop-color="#ffffff" stop-opacity="0.3019608"/>
    </linearGradient>
  </defs>
</svg>
