<?xml version="1.0" encoding="UTF-8" standalone="no"?>
<svg height="18.0px" width="52.0px" xmlns="http://www.w3.org/2000/svg">
  <g transform="matrix(1.0, 0.0, 0.0, 1.0, -2.45, 0.0)">
    <path d="M2.45 3.0 L2.45 2.0 3.45 2.0 3.45 3.0 2.45 3.0 M53.45 2.0 L54.45 2.0 54.45 3.0 53.45 3.0 53.45 2.0" fill="#00141f" fill-opacity="0.19215687" fill-rule="evenodd" stroke="none"/>
    <path d="M53.45 3.0 L52.45 3.0 52.45 2.0 53.45 2.0 53.45 3.0 M3.45 2.0 L3.95 2.0 4.45 2.0 4.45 3.0 3.95 3.0 3.45 3.0 3.45 2.0" fill="#0371ad" fill-rule="evenodd" stroke="none"/>
    <path d="M2.45 4.0 L2.45 3.0 3.45 3.0 3.45 4.0 2.45 4.0 M54.45 3.0 L54.45 4.0 53.45 4.0 53.45 3.0 54.45 3.0" fill="#014065" fill-opacity="0.6039216" fill-rule="evenodd" stroke="none"/>
    <path d="M3.45 2.0 L3.45 1.0 3.95 1.0 4.45 1.0 4.45 2.0 3.95 2.0 3.45 2.0 M52.45 1.0 L53.45 1.0 53.45 2.0 52.45 2.0 52.45 1.0" fill="#01324f" fill-opacity="0.4745098" fill-rule="evenodd" stroke="none"/>
    <path d="M4.45 1.0 L4.45 0.0 5.45 0.0 5.45 1.0 4.45 1.0 M51.45 0.0 L52.45 0.0 52.45 1.0 51.45 1.0 51.45 0.0" fill="#001019" fill-opacity="0.15686275" fill-rule="evenodd" stroke="none"/>
    <path d="M5.45 0.0 L6.45 0.0 6.45 1.0 5.45 1.0 5.45 0.0 M50.45 0.0 L51.45 0.0 51.45 1.0 50.45 1.0 50.45 0.0" fill="#013c5f" fill-opacity="0.5686275" fill-rule="evenodd" stroke="none"/>
    <path d="M52.45 3.0 L51.45 3.0 51.45 2.0 52.45 2.0 52.45 3.0 M5.45 2.0 L5.45 3.0 4.45 3.0 4.45 2.0 5.45 2.0" fill="#009bcc" fill-rule="evenodd" stroke="none"/>
    <path d="M52.45 4.0 L52.45 4.95 52.45 5.0 48.55 5.0 4.45 5.0 4.45 4.95 4.45 4.0 4.45 3.0 5.45 3.0 5.45 2.0 6.45 2.0 7.45 2.0 7.45 1.0 48.55 1.0 49.45 1.0 49.45 2.0 50.45 2.0 51.45 2.0 51.45 3.0 52.45 3.0 52.45 4.0" fill="#00a1d1" fill-rule="evenodd" stroke="none"/>
    <path d="M52.45 2.0 L51.45 2.0 51.45 1.0 52.45 1.0 52.45 2.0 M4.45 2.0 L4.45 1.0 5.45 1.0 5.45 2.0 4.45 2.0" fill="#036fab" fill-rule="evenodd" stroke="none"/>
    <path d="M51.45 2.0 L50.45 2.0 50.45 1.0 51.45 1.0 51.45 2.0 M6.45 2.0 L5.45 2.0 5.45 1.0 6.45 1.0 6.45 2.0" fill="#018abf" fill-rule="evenodd" stroke="none"/>
    <path d="M52.45 5.0 L52.45 4.95 52.45 4.0 53.45 4.0 53.45 4.95 53.45 5.0 52.45 5.0" fill="#009dcf" fill-rule="evenodd" stroke="none"/>
    <path d="M53.45 5.0 L53.45 4.95 53.45 4.0 54.45 4.0 54.45 4.95 54.45 5.0 53.45 5.0" fill="#03639b" fill-opacity="0.9098039" fill-rule="evenodd" stroke="none"/>
    <path d="M54.45 5.0 L54.45 6.0 53.45 6.0 53.45 5.0 54.45 5.0 M2.45 6.0 L2.45 5.0 3.45 5.0 3.45 6.0 2.45 6.0" fill="#056ead" fill-opacity="0.99215686" fill-rule="evenodd" stroke="none"/>
    <path d="M52.45 5.0 L53.45 5.0 53.45 6.0 48.55 6.0 3.95 6.0 3.45 6.0 3.45 5.0 3.95 5.0 4.45 5.0 48.55 5.0 52.45 5.0" fill="#02a4d3" fill-rule="evenodd" stroke="none"/>
    <path d="M54.45 6.0 L54.45 7.0 53.45 7.0 53.45 6.0 54.45 6.0 M2.45 7.0 L2.45 6.0 3.45 6.0 3.45 7.0 2.45 7.0" fill="#0973b5" fill-rule="evenodd" stroke="none"/>
    <path d="M53.45 4.0 L52.45 4.0 52.45 3.0 53.45 3.0 53.45 4.0 M4.45 3.0 L4.45 4.0 3.95 4.0 3.45 4.0 3.45 3.0 3.95 3.0 4.45 3.0" fill="#018cc0" fill-rule="evenodd" stroke="none"/>
    <path d="M54.45 7.0 L54.45 8.0 53.45 8.0 53.45 7.0 54.45 7.0 M3.45 7.0 L3.45 8.0 2.45 8.0 2.45 7.0 3.45 7.0" fill="#0c77ba" fill-rule="evenodd" stroke="none"/>
    <path d="M54.45 8.0 L54.45 9.0 53.45 9.0 53.45 8.0 54.45 8.0 M3.45 8.0 L3.45 9.0 2.45 9.0 2.45 8.0 3.45 8.0" fill="#0f7abf" fill-rule="evenodd" stroke="none"/>
    <path d="M54.45 9.0 L54.45 10.0 53.45 10.0 53.45 9.0 54.45 9.0 M3.45 9.0 L3.45 10.0 2.45 10.0 2.45 9.0 3.45 9.0" fill="#127ec5" fill-rule="evenodd" stroke="none"/>
    <path d="M53.45 9.0 L48.55 9.0 3.95 9.0 3.45 9.0 3.45 8.0 3.95 8.0 48.55 8.0 53.45 8.0 53.45 9.0" fill="#06aed8" fill-rule="evenodd" stroke="none"/>
    <path d="M53.45 8.0 L48.55 8.0 3.95 8.0 3.45 8.0 3.45 7.0 3.95 7.0 48.55 7.0 53.45 7.0 53.45 8.0" fill="#05abd6" fill-rule="evenodd" stroke="none"/>
    <path d="M54.45 10.0 L54.45 11.0 53.45 11.0 53.45 10.0 54.45 10.0 M2.45 10.0 L3.45 10.0 3.45 11.0 2.45 11.0 2.45 10.0" fill="#1482cc" fill-rule="evenodd" stroke="none"/>
    <path d="M3.45 10.0 L3.95 10.0 48.55 10.0 53.45 10.0 53.45 11.0 48.55 11.0 3.95 11.0 3.45 11.0 3.45 10.0" fill="#0ab6dd" fill-rule="evenodd" stroke="none"/>
    <path d="M3.45 12.0 L2.45 12.0 2.45 11.0 3.45 11.0 3.45 12.0 M54.45 11.0 L54.45 12.0 53.45 12.0 53.45 11.0 54.45 11.0" fill="#1786d2" fill-rule="evenodd" stroke="none"/>
    <path d="M53.45 12.0 L52.45 12.0 48.55 12.0 4.45 12.0 3.95 12.0 3.45 12.0 3.45 11.0 3.95 11.0 48.55 11.0 53.45 11.0 53.45 12.0" fill="#0cbadf" fill-rule="evenodd" stroke="none"/>
    <path d="M54.45 13.0 L53.45 13.0 53.45 12.0 54.45 12.0 54.45 13.0 M3.45 12.0 L3.45 13.0 2.45 13.0 2.45 12.0 3.45 12.0" fill="#1881ca" fill-opacity="0.94509804" fill-rule="evenodd" stroke="none"/>
    <path d="M53.45 12.0 L53.45 13.0 52.45 13.0 52.45 12.0 53.45 12.0 M4.45 13.0 L3.95 13.0 3.45 13.0 3.45 12.0 3.95 12.0 4.45 12.0 4.45 13.0" fill="#0fbbe0" fill-rule="evenodd" stroke="none"/>
    <path d="M3.45 9.0 L3.95 9.0 48.55 9.0 53.45 9.0 53.45 10.0 48.55 10.0 3.95 10.0 3.45 10.0 3.45 9.0" fill="#08b2da" fill-rule="evenodd" stroke="none"/>
    <path d="M3.45 6.0 L3.95 6.0 48.55 6.0 53.45 6.0 53.45 7.0 48.55 7.0 3.95 7.0 3.45 7.0 3.45 6.0" fill="#03a7d4" fill-rule="evenodd" stroke="none"/>
    <path d="M50.45 2.0 L49.45 2.0 49.45 1.0 50.45 1.0 50.45 2.0 M7.45 1.0 L7.45 2.0 6.45 2.0 6.45 1.0 7.45 1.0" fill="#0197ca" fill-rule="evenodd" stroke="none"/>
    <path d="M6.45 0.0 L7.45 0.0 7.45 1.0 6.45 1.0 6.45 0.0 M49.45 0.0 L50.45 0.0 50.45 1.0 49.45 1.0 49.45 0.0" fill="#025788" fill-opacity="0.8156863" fill-rule="evenodd" stroke="none"/>
    <path d="M49.45 1.0 L48.55 1.0 7.45 1.0 7.45 0.0 48.55 0.0 49.45 0.0 49.45 1.0" fill="#036ca9" fill-rule="evenodd" stroke="none"/>
    <path d="M51.45 17.0 L51.45 18.0 50.45 18.0 50.45 17.0 51.45 17.0 M6.45 18.0 L5.45 18.0 5.45 17.0 6.45 17.0 6.45 18.0" fill="#124770" fill-opacity="0.4745098" fill-rule="evenodd" stroke="none"/>
    <path d="M50.45 18.0 L49.45 18.0 49.45 17.0 50.45 17.0 50.45 18.0 M7.45 18.0 L6.45 18.0 6.45 17.0 7.45 17.0 7.45 18.0" fill="#2386d3" fill-opacity="0.8862745" fill-rule="evenodd" stroke="none"/>
    <path d="M49.45 18.0 L48.55 18.0 7.45 18.0 7.45 17.0 48.55 17.0 49.45 17.0 49.45 18.0" fill="#2899f1" fill-rule="evenodd" stroke="none"/>
    <path d="M49.45 17.0 L49.45 16.0 50.45 16.0 50.45 17.0 49.45 17.0 M6.45 16.0 L7.45 16.0 7.45 17.0 6.45 17.0 6.45 16.0" fill="#15c5e9" fill-rule="evenodd" stroke="none"/>
    <path d="M50.45 16.0 L51.45 16.0 51.45 17.0 50.45 17.0 50.45 16.0" fill="#1eaeeb" fill-rule="evenodd" stroke="none"/>
    <path d="M49.45 17.0 L48.55 17.0 7.45 17.0 7.45 16.0 6.45 16.0 5.45 16.0 5.45 15.0 48.55 15.0 51.45 15.0 51.45 16.0 50.45 16.0 49.45 16.0 49.45 17.0" fill="#13cae7" fill-rule="evenodd" stroke="none"/>
    <path d="M53.45 14.0 L53.45 13.05 53.45 13.0 54.45 13.0 54.45 13.05 54.45 14.0 53.45 14.0 M3.45 13.0 L3.45 13.05 3.45 14.0 2.45 14.0 2.45 13.05 2.45 13.0 3.45 13.0" fill="#166ba9" fill-opacity="0.76862746" fill-rule="evenodd" stroke="none"/>
    <path d="M53.45 13.0 L53.45 13.05 53.45 14.0 52.45 14.0 52.45 13.05 52.45 13.0 53.45 13.0 M3.45 14.0 L3.45 13.05 3.45 13.0 3.95 13.0 4.45 13.0 4.45 13.05 4.45 14.0 3.95 14.0 3.45 14.0" fill="#13b6e2" fill-rule="evenodd" stroke="none"/>
    <path d="M53.45 14.0 L54.45 14.0 54.45 15.0 53.45 15.0 53.45 14.0" fill="#0c3858" fill-opacity="0.39215687" fill-rule="evenodd" stroke="none"/>
    <path d="M52.45 14.0 L53.45 14.0 53.45 15.0 52.45 15.0 52.45 14.0" fill="#1aa5e4" fill-rule="evenodd" stroke="none"/>
    <path d="M4.45 14.0 L48.55 14.0 52.45 14.0 52.45 15.0 51.45 15.0 48.55 15.0 5.45 15.0 4.45 15.0 4.45 14.0" fill="#11c5e5" fill-rule="evenodd" stroke="none"/>
    <path d="M51.45 16.0 L51.45 15.0 52.45 15.0 52.45 16.0 51.45 16.0 M5.45 15.0 L5.45 16.0 4.45 16.0 4.45 15.0 5.45 15.0" fill="#18b6e8" fill-rule="evenodd" stroke="none"/>
    <path d="M52.45 13.0 L52.45 13.05 52.45 14.0 48.55 14.0 4.45 14.0 4.45 13.05 4.45 13.0 48.55 13.0 52.45 13.0" fill="#10c2e3" fill-rule="evenodd" stroke="none"/>
    <path d="M52.45 17.0 L51.45 17.0 51.45 16.0 52.45 16.0 52.45 17.0 M5.45 17.0 L4.45 17.0 4.45 16.0 5.45 16.0 5.45 17.0" fill="#18639b" fill-opacity="0.6627451" fill-rule="evenodd" stroke="none"/>
    <path d="M53.45 16.0 L53.45 17.0 52.45 17.0 52.45 16.0 53.45 16.0 M4.45 17.0 L3.95 17.0 3.45 17.0 3.45 16.0 3.95 16.0 4.45 16.0 4.45 17.0" fill="#09253a" fill-opacity="0.2509804" fill-rule="evenodd" stroke="none"/>
    <path d="M52.45 15.0 L53.45 15.0 53.45 16.0 52.45 16.0 52.45 15.0 M3.45 16.0 L3.45 15.0 3.95 15.0 4.45 15.0 4.45 16.0 3.95 16.0 3.45 16.0" fill="#166198" fill-opacity="0.6627451" fill-rule="evenodd" stroke="none"/>
    <path d="M52.45 12.0 L52.45 13.0 48.55 13.0 4.45 13.0 4.45 12.0 48.55 12.0 52.45 12.0" fill="#0ebee1" fill-rule="evenodd" stroke="none"/>
    <path d="M2.45 5.0 L2.45 4.95 2.45 4.0 3.45 4.0 3.45 4.95 3.45 5.0 2.45 5.0" fill="#036199" fill-opacity="0.8980392" fill-rule="evenodd" stroke="none"/>
    <path d="M4.45 4.0 L4.45 4.95 4.45 5.0 3.95 5.0 3.45 5.0 3.45 4.95 3.45 4.0 3.95 4.0 4.45 4.0" fill="#009cce" fill-rule="evenodd" stroke="none"/>
    <path d="M5.45 16.0 L6.45 16.0 6.45 17.0 5.45 17.0 5.45 16.0" fill="#1eadeb" fill-rule="evenodd" stroke="none"/>
    <path d="M3.45 14.0 L3.95 14.0 4.45 14.0 4.45 15.0 3.95 15.0 3.45 15.0 3.45 14.0" fill="#1aa4e4" fill-rule="evenodd" stroke="none"/>
    <path d="M3.45 15.0 L2.45 15.0 2.45 14.0 3.45 14.0 3.45 15.0" fill="#0b3452" fill-opacity="0.36862746" fill-rule="evenodd" stroke="none"/>
  </g>
</svg>
