<?xml version="1.0" encoding="UTF-8" standalone="no"?>
<svg height="18.0px" width="52.0px" xmlns="http://www.w3.org/2000/svg">
  <g transform="matrix(1.0, 0.0, 0.0, 1.0, 0.0, 0.0)">
    <path d="M52.0 3.0 L52.0 4.0 51.0 4.0 51.0 3.0 52.0 3.0 M0.0 4.0 L0.0 3.0 1.0 3.0 1.0 4.0 0.0 4.0" fill="#267594" fill-opacity="0.6039216" fill-rule="evenodd" stroke="none"/>
    <path d="M51.0 13.0 L51.0 13.05 51.0 14.0 50.0 14.0 50.0 15.0 50.0 16.0 49.0 16.0 48.0 16.0 48.0 17.0 46.55 17.0 4.95 17.0 4.0 17.0 4.0 16.0 3.0 16.0 2.0 16.0 2.0 15.0 2.0 14.0 1.0 14.0 1.0 13.05 1.0 13.0 1.0 4.95 1.0 4.0 2.0 4.0 2.0 2.0 3.0 2.0 3.0 1.0 4.0 1.0 4.95 1.0 5.0 1.0 46.55 1.0 47.0 1.0 48.0 1.0 49.0 1.0 49.0 2.0 50.0 2.0 50.0 3.0 51.0 3.0 51.0 4.0 51.0 4.95 51.0 13.0" fill="#82f1fe" fill-rule="evenodd" stroke="none"/>
    <path d="M52.0 4.0 L52.0 4.95 52.0 13.0 51.0 13.0 51.0 4.95 51.0 4.0 52.0 4.0 M0.0 13.0 L0.0 4.95 0.0 4.0 1.0 4.0 1.0 4.95 1.0 13.0 0.0 13.0" fill="#28b2e4" fill-opacity="0.98039216" fill-rule="evenodd" stroke="none"/>
    <path d="M51.0 2.0 L52.0 2.0 52.0 3.0 51.0 3.0 51.0 2.0 M0.0 3.0 L0.0 2.0 1.0 2.0 1.0 3.0 0.0 3.0" fill="#0c252f" fill-opacity="0.19215687" fill-rule="evenodd" stroke="none"/>
    <path d="M51.0 3.0 L50.0 3.0 50.0 2.0 51.0 2.0 51.0 3.0" fill="#50ccfb" fill-rule="evenodd" stroke="none"/>
    <path d="M50.0 1.0 L51.0 1.0 51.0 2.0 50.0 2.0 50.0 1.0 M1.0 2.0 L1.0 1.0 2.0 1.0 2.0 2.0 1.0 2.0" fill="#215e76" fill-opacity="0.4745098" fill-rule="evenodd" stroke="none"/>
    <path d="M2.0 1.0 L2.0 0.0 3.0 0.0 3.0 1.0 2.0 1.0 M49.0 0.0 L50.0 0.0 50.0 1.0 49.0 1.0 49.0 0.0" fill="#0b1e26" fill-opacity="0.15686275" fill-rule="evenodd" stroke="none"/>
    <path d="M3.0 0.0 L4.0 0.0 4.0 1.0 3.0 1.0 3.0 0.0 M48.0 0.0 L49.0 0.0 49.0 1.0 48.0 1.0 48.0 0.0" fill="#29718f" fill-opacity="0.5686275" fill-rule="evenodd" stroke="none"/>
    <path d="M2.0 1.0 L3.0 1.0 3.0 2.0 2.0 2.0 2.0 1.0 M50.0 1.0 L50.0 2.0 49.0 2.0 49.0 1.0 50.0 1.0" fill="#4fccfd" fill-rule="evenodd" stroke="none"/>
    <path d="M4.0 0.0 L4.95 0.0 5.0 0.0 5.0 1.0 4.95 1.0 4.0 1.0 4.0 0.0 M47.0 0.0 L48.0 0.0 48.0 1.0 47.0 1.0 47.0 0.0" fill="#3ba3ce" fill-opacity="0.8156863" fill-rule="evenodd" stroke="none"/>
    <path d="M5.0 0.0 L46.55 0.0 47.0 0.0 47.0 1.0 46.55 1.0 5.0 1.0 5.0 0.0" fill="#4acaff" fill-rule="evenodd" stroke="none"/>
    <path d="M50.0 15.0 L50.0 14.0 51.0 14.0 51.0 15.0 50.0 15.0 M2.0 15.0 L1.0 15.0 1.0 14.0 2.0 14.0 2.0 15.0" fill="#51c7e5" fill-rule="evenodd" stroke="none"/>
    <path d="M49.0 17.0 L49.0 18.0 48.0 18.0 48.0 17.0 49.0 17.0 M4.0 18.0 L3.0 18.0 3.0 17.0 4.0 17.0 4.0 18.0" fill="#004a60" fill-opacity="0.4745098" fill-rule="evenodd" stroke="none"/>
    <path d="M48.0 18.0 L46.55 18.0 4.95 18.0 4.0 18.0 4.0 17.0 4.95 17.0 46.55 17.0 48.0 17.0 48.0 18.0" fill="#019ecc" fill-opacity="0.99215686" fill-rule="evenodd" stroke="none"/>
    <path d="M48.0 17.0 L48.0 16.0 49.0 16.0 49.0 17.0 48.0 17.0" fill="#55c8e4" fill-rule="evenodd" stroke="none"/>
    <path d="M50.0 17.0 L49.0 17.0 49.0 16.0 50.0 16.0 50.0 17.0 M3.0 17.0 L2.0 17.0 2.0 16.0 3.0 16.0 3.0 17.0" fill="#036988" fill-opacity="0.6627451" fill-rule="evenodd" stroke="none"/>
    <path d="M51.0 16.0 L51.0 17.0 50.0 17.0 50.0 16.0 51.0 16.0 M2.0 17.0 L1.0 17.0 1.0 16.0 2.0 16.0 2.0 17.0" fill="#012733" fill-opacity="0.2509804" fill-rule="evenodd" stroke="none"/>
    <path d="M51.0 15.0 L51.0 16.0 50.0 16.0 50.0 15.0 51.0 15.0 M1.0 16.0 L1.0 15.0 2.0 15.0 2.0 16.0 1.0 16.0" fill="#056a89" fill-opacity="0.6627451" fill-rule="evenodd" stroke="none"/>
    <path d="M52.0 13.0 L52.0 13.05 52.0 14.0 51.0 14.0 51.0 13.05 51.0 13.0 52.0 13.0 M0.0 14.0 L0.0 13.05 0.0 13.0 1.0 13.0 1.0 13.05 1.0 14.0 0.0 14.0" fill="#0c7fa4" fill-opacity="0.76862746" fill-rule="evenodd" stroke="none"/>
    <path d="M52.0 14.0 L52.0 15.0 51.0 15.0 51.0 14.0 52.0 14.0 M1.0 15.0 L0.0 15.0 0.0 14.0 1.0 14.0 1.0 15.0" fill="#053f52" fill-opacity="0.39215687" fill-rule="evenodd" stroke="none"/>
    <path d="M1.0 4.0 L1.0 3.0 1.0 2.0 2.0 2.0 2.0 4.0 1.0 4.0" fill="#6ed9fc" fill-rule="evenodd" stroke="none"/>
    <path d="M3.0 16.0 L4.0 16.0 4.0 17.0 3.0 17.0 3.0 16.0" fill="#52c7e4" fill-rule="evenodd" stroke="none"/>
  </g>
</svg>
