<?xml version="1.0" encoding="UTF-8" standalone="no"?>
<svg height="18.0px" width="52.0px" xmlns="http://www.w3.org/2000/svg">
  <g transform="matrix(1.0, 0.0, 0.0, 1.0, 0.0, 0.0)">
    <path d="M0.0 3.0 L1.0 3.0 1.0 4.0 0.0 4.0 0.0 3.0 M52.0 4.0 L51.0 4.0 51.0 3.0 52.0 3.0 52.0 4.0" fill="#014065" fill-opacity="0.6039216" fill-rule="evenodd" stroke="none"/>
    <path d="M2.0 1.0 L3.0 1.0 4.0 1.0 4.95 1.0 5.0 1.0 5.0 0.0 47.0 0.0 47.0 1.0 48.0 1.0 48.05 1.0 49.0 1.0 50.0 1.0 50.0 2.0 51.0 2.0 51.0 3.0 51.0 4.0 52.0 4.0 52.0 4.95 52.0 12.05 52.0 13.0 51.0 13.0 51.0 14.0 51.0 15.0 50.0 15.0 50.0 12.05 50.0 12.0 48.05 12.0 4.95 12.0 2.0 12.0 2.0 12.05 2.0 15.0 1.0 15.0 1.0 14.0 1.0 13.0 0.0 13.0 0.0 12.05 0.0 8.0 1.0 8.0 1.0 4.95 1.0 4.0 1.0 3.0 1.0 2.0 2.0 2.0 2.0 1.0" fill="#04a4d1" fill-opacity="0.99607843" fill-rule="evenodd" stroke="none"/>
    <path d="M3.0 1.0 L2.0 1.0 1.0 1.0 1.0 2.0 1.0 3.0 0.0 3.0 0.0 0.0 3.0 0.0 3.0 1.0 M51.0 3.0 L51.0 2.0 51.0 1.0 50.0 1.0 49.0 1.0 49.0 0.0 52.0 0.0 52.0 3.0 51.0 3.0" fill="#00070b" fill-opacity="0.06666667" fill-rule="evenodd" stroke="none"/>
    <path d="M1.0 2.0 L1.0 1.0 2.0 1.0 2.0 2.0 1.0 2.0 M51.0 2.0 L50.0 2.0 50.0 1.0 51.0 1.0 51.0 2.0" fill="#01324f" fill-opacity="0.4745098" fill-rule="evenodd" stroke="none"/>
    <path d="M3.0 1.0 L3.0 0.0 4.0 0.0 4.0 1.0 3.0 1.0 M49.0 1.0 L48.05 1.0 48.0 1.0 48.0 0.0 48.05 0.0 49.0 0.0 49.0 1.0" fill="#013c5f" fill-opacity="0.5686275" fill-rule="evenodd" stroke="none"/>
    <path d="M48.0 1.0 L47.0 1.0 47.0 0.0 48.0 0.0 48.0 1.0 M5.0 0.0 L5.0 1.0 4.95 1.0 4.0 1.0 4.0 0.0 4.95 0.0 5.0 0.0" fill="#025788" fill-opacity="0.8156863" fill-rule="evenodd" stroke="none"/>
    <path d="M3.0 17.0 L4.0 17.0 4.0 18.0 3.0 18.0 3.0 17.0 M48.0 17.0 L48.05 17.0 49.0 17.0 49.0 18.0 48.05 18.0 48.0 18.0 48.0 17.0" fill="#124770" fill-opacity="0.4745098" fill-rule="evenodd" stroke="none"/>
    <path d="M4.0 17.0 L4.95 17.0 5.0 17.0 5.0 18.0 4.95 18.0 4.0 18.0 4.0 17.0 M47.0 18.0 L47.0 17.0 48.0 17.0 48.0 18.0 47.0 18.0" fill="#2386d3" fill-opacity="0.8862745" fill-rule="evenodd" stroke="none"/>
    <path d="M2.0 15.0 L2.0 12.05 2.0 12.0 4.95 12.0 48.05 12.0 50.0 12.0 50.0 12.05 50.0 15.0 50.0 16.0 49.0 16.0 49.0 17.0 48.05 17.0 48.0 17.0 47.0 17.0 47.0 18.0 5.0 18.0 5.0 17.0 4.95 17.0 4.0 17.0 3.0 17.0 3.0 16.0 2.0 16.0 2.0 15.0" fill="#14bee6" fill-rule="evenodd" stroke="none"/>
    <path d="M2.0 17.0 L1.0 17.0 1.0 16.0 2.0 16.0 2.0 17.0 M51.0 16.0 L51.0 17.0 50.0 17.0 50.0 16.0 51.0 16.0" fill="#09253a" fill-opacity="0.2509804" fill-rule="evenodd" stroke="none"/>
    <path d="M2.0 16.0 L3.0 16.0 3.0 17.0 2.0 17.0 2.0 16.0 M49.0 17.0 L49.0 16.0 50.0 16.0 50.0 17.0 49.0 17.0" fill="#18639b" fill-opacity="0.6627451" fill-rule="evenodd" stroke="none"/>
    <path d="M2.0 15.0 L2.0 16.0 1.0 16.0 1.0 15.0 2.0 15.0 M50.0 16.0 L50.0 15.0 51.0 15.0 51.0 16.0 50.0 16.0" fill="#166198" fill-opacity="0.6627451" fill-rule="evenodd" stroke="none"/>
    <path d="M51.0 14.0 L51.0 13.0 52.0 13.0 52.0 14.0 51.0 14.0 M0.0 14.0 L0.0 13.0 1.0 13.0 1.0 14.0 0.0 14.0" fill="#166ba9" fill-opacity="0.76862746" fill-rule="evenodd" stroke="none"/>
    <path d="M51.0 15.0 L51.0 14.0 52.0 14.0 52.0 15.0 51.0 15.0" fill="#0c3858" fill-opacity="0.39215687" fill-rule="evenodd" stroke="none"/>
    <path d="M0.0 8.0 L0.0 4.95 0.0 4.0 1.0 4.0 1.0 4.95 1.0 8.0 0.0 8.0" fill="#076ead" fill-opacity="0.972549" fill-rule="evenodd" stroke="none"/>
    <path d="M1.0 15.0 L0.0 15.0 0.0 14.0 1.0 14.0 1.0 15.0" fill="#0b3452" fill-opacity="0.36862746" fill-rule="evenodd" stroke="none"/>
  </g>
</svg>
