<?xml version="1.0" encoding="UTF-8" standalone="no"?>
<svg height="13.15px" width="9.7px" xmlns="http://www.w3.org/2000/svg">
  <g transform="matrix(1.0, 0.0, 0.0, 1.0, 5.05, 6.4)">
    <path d="M-0.25 4.15 Q1.5 4.15 1.5 0.25 1.5 -3.65 -0.25 -3.7 -2.0 -3.65 -1.9 0.25 -2.0 4.15 -0.25 4.15 M-5.05 0.25 Q-4.85 -6.2 -0.25 -6.4 4.35 -6.2 4.65 0.25 4.35 6.7 -0.25 6.75 -4.85 6.7 -5.05 0.25" fill="url(#gradient0)" fill-rule="evenodd" stroke="none"/>
    <path d="M-0.25 4.15 Q1.5 4.15 1.5 0.25 1.5 -3.65 -0.25 -3.7 -2.0 -3.65 -1.9 0.25 -2.0 4.15 -0.25 4.15 M-5.05 0.25 Q-4.85 -6.2 -0.25 -6.4 4.35 -6.2 4.65 0.25 4.35 6.7 -0.25 6.75 -4.85 6.7 -5.05 0.25 Z" fill="none" stroke="#243842" stroke-linecap="round" stroke-linejoin="round" stroke-opacity="0.6509804" stroke-width="0.05"/>
  </g>
  <defs>
    <linearGradient gradientTransform="matrix(-2.0E-4, 0.008, -0.0059, -2.0E-4, -0.2, 0.2)" gradientUnits="userSpaceOnUse" id="gradient0" spreadMethod="pad" x1="-819.2" x2="819.2">
      <stop offset="0.0" stop-color="#61bcff"/>
      <stop offset="0.1450980392156863" stop-color="#40e1f3"/>
      <stop offset="1.0" stop-color="#2b6d99"/>
    </linearGradient>
  </defs>
</svg>
