<?xml version="1.0" encoding="UTF-8" standalone="no"?>
<svg height="12.9px" width="5.25px" xmlns="http://www.w3.org/2000/svg">
  <g transform="matrix(1.0, 0.0, 0.0, 1.0, 3.6, 6.2)">
    <path d="M1.65 -4.75 L1.65 5.25 Q1.6 6.7 0.15 6.7 -1.3 6.7 -1.3 5.3 L-1.3 -3.45 -2.15 -3.45 Q-3.5 -3.45 -3.6 -4.85 -3.5 -6.05 -2.15 -6.2 L0.3 -6.2 Q1.6 -6.1 1.65 -4.75" fill="url(#gradient0)" fill-rule="evenodd" stroke="none"/>
    <path d="M1.65 -4.75 L1.65 5.25 Q1.6 6.7 0.15 6.7 -1.3 6.7 -1.3 5.3 L-1.3 -3.45 -2.15 -3.45 Q-3.5 -3.45 -3.6 -4.85 -3.5 -6.05 -2.15 -6.2 L0.3 -6.2 Q1.6 -6.1 1.65 -4.75 Z" fill="none" stroke="#243842" stroke-linecap="round" stroke-linejoin="round" stroke-opacity="0.6509804" stroke-width="0.05"/>
  </g>
  <defs>
    <linearGradient gradientTransform="matrix(-2.0E-4, 0.0079, -0.0034, -1.0E-4, -1.0, 0.25)" gradientUnits="userSpaceOnUse" id="gradient0" spreadMethod="pad" x1="-819.2" x2="819.2">
      <stop offset="0.0" stop-color="#61bcff"/>
      <stop offset="0.1450980392156863" stop-color="#40e1f3"/>
      <stop offset="1.0" stop-color="#2b6d99"/>
    </linearGradient>
  </defs>
</svg>
