<?xml version="1.0" encoding="UTF-8" standalone="no"?>
<svg height="13.1px" width="8.8px" xmlns="http://www.w3.org/2000/svg">
  <g transform="matrix(1.0, 0.0, 0.0, 1.0, 4.75, 6.4)">
    <path d="M0.6 -2.4 Q0.5 -3.5 -0.5 -3.65 -1.45 -3.65 -1.9 -2.1 -2.35 -0.75 -3.25 -0.8 -4.7 -0.8 -4.7 -2.25 -4.35 -5.9 -0.4 -6.4 3.5 -6.1 3.75 -2.55 3.75 -0.6 0.6 2.95 L-0.5 4.0 2.45 4.0 Q4.0 4.1 4.05 5.35 4.0 6.7 2.65 6.7 L-3.3 6.7 Q-4.75 6.7 -4.75 5.35 -4.85 4.95 -4.4 4.35 L-3.3 3.1 Q-1.0 0.7 0.05 -0.9 0.6 -1.65 0.6 -2.4" fill="url(#gradient0)" fill-rule="evenodd" stroke="none"/>
    <path d="M0.6 -2.4 Q0.5 -3.5 -0.5 -3.65 -1.45 -3.65 -1.9 -2.1 -2.35 -0.75 -3.25 -0.8 -4.7 -0.8 -4.7 -2.25 -4.35 -5.9 -0.4 -6.4 3.5 -6.1 3.75 -2.55 3.75 -0.6 0.6 2.95 L-0.5 4.0 2.45 4.0 Q4.0 4.1 4.05 5.35 4.0 6.7 2.65 6.7 L-3.3 6.7 Q-4.75 6.7 -4.75 5.35 -4.85 4.95 -4.4 4.35 L-3.3 3.1 Q-1.0 0.7 0.05 -0.9 0.6 -1.65 0.6 -2.4 Z" fill="none" stroke="#243842" stroke-linecap="round" stroke-linejoin="round" stroke-opacity="0.6509804" stroke-width="0.05"/>
  </g>
  <defs>
    <linearGradient gradientTransform="matrix(-2.0E-4, 0.008, -0.0055, -1.0E-4, -0.3, 0.2)" gradientUnits="userSpaceOnUse" id="gradient0" spreadMethod="pad" x1="-819.2" x2="819.2">
      <stop offset="0.0" stop-color="#61bcff"/>
      <stop offset="0.1450980392156863" stop-color="#40e1f3"/>
      <stop offset="1.0" stop-color="#2b6d99"/>
    </linearGradient>
  </defs>
</svg>
