<?xml version="1.0" encoding="UTF-8" standalone="no"?>
<svg height="13.15px" width="9.05px" xmlns="http://www.w3.org/2000/svg">
  <g transform="matrix(1.0, 0.0, 0.0, 1.0, 4.95, 6.4)">
    <path d="M1.95 -0.3 Q3.95 0.65 4.1 2.8 3.65 6.55 -0.5 6.75 -2.35 6.7 -3.4 5.95 -4.65 5.1 -4.95 3.45 -4.85 2.3 -3.4 2.1 -2.8 2.15 -2.25 3.1 L-1.95 3.5 Q-1.35 4.15 -0.45 4.15 0.85 4.1 1.0 2.65 1.0 1.6 -0.45 1.3 -2.0 1.1 -2.0 -0.1 -2.0 -1.15 -0.65 -1.45 0.5 -1.75 0.5 -2.65 0.45 -3.6 -0.6 -3.65 -1.45 -3.65 -2.05 -2.7 -2.6 -1.9 -3.25 -1.9 -4.45 -2.0 -4.55 -3.4 -4.0 -5.95 -0.6 -6.4 2.9 -6.2 3.4 -3.0 3.35 -1.1 1.95 -0.3" fill="url(#gradient0)" fill-rule="evenodd" stroke="none"/>
    <path d="M1.95 -0.3 Q3.95 0.65 4.1 2.8 3.65 6.55 -0.5 6.75 -2.35 6.7 -3.4 5.95 -4.65 5.1 -4.95 3.45 -4.85 2.3 -3.4 2.1 -2.8 2.15 -2.25 3.1 L-1.95 3.5 Q-1.35 4.15 -0.45 4.15 0.85 4.1 1.0 2.65 1.0 1.6 -0.45 1.3 -2.0 1.1 -2.0 -0.1 -2.0 -1.15 -0.65 -1.45 0.5 -1.75 0.5 -2.65 0.45 -3.6 -0.6 -3.65 -1.45 -3.65 -2.05 -2.7 -2.6 -1.9 -3.25 -1.9 -4.45 -2.0 -4.55 -3.4 -4.0 -5.95 -0.6 -6.4 2.9 -6.2 3.4 -3.0 3.35 -1.1 1.95 -0.3 Z" fill="none" stroke="#243842" stroke-linecap="round" stroke-linejoin="round" stroke-opacity="0.6509804" stroke-width="0.05"/>
  </g>
  <defs>
    <linearGradient gradientTransform="matrix(-2.0E-4, 0.008, -0.0055, -2.0E-4, -0.3, 0.15)" gradientUnits="userSpaceOnUse" id="gradient0" spreadMethod="pad" x1="-819.2" x2="819.2">
      <stop offset="0.0" stop-color="#61bcff"/>
      <stop offset="0.1450980392156863" stop-color="#40e1f3"/>
      <stop offset="1.0" stop-color="#2b6d99"/>
    </linearGradient>
  </defs>
</svg>
