<?xml version="1.0" encoding="UTF-8" standalone="no"?>
<svg height="12.95px" width="8.9px" xmlns="http://www.w3.org/2000/svg">
  <g transform="matrix(1.0, 0.0, 0.0, 1.0, 5.05, 6.2)">
    <path d="M3.75 -4.95 Q3.65 -3.45 2.3 -3.45 L-0.85 -3.45 -1.1 -1.9 0.0 -2.05 Q3.55 -1.75 3.85 1.85 3.7 6.7 -0.95 6.75 L-2.7 6.5 Q-4.9 5.95 -5.05 4.4 -4.95 3.15 -3.65 2.95 -3.35 2.95 -2.7 3.4 L-2.6 3.45 Q-1.55 4.15 -0.9 4.15 0.55 4.1 0.75 1.95 0.7 0.4 -0.75 0.35 -1.25 0.35 -1.8 0.7 L-2.8 1.0 Q-3.85 1.0 -4.0 0.0 L-4.0 -0.65 -3.55 -4.4 Q-3.4 -6.35 -2.0 -6.2 L2.2 -6.2 Q3.55 -6.1 3.75 -4.95" fill="url(#gradient0)" fill-rule="evenodd" stroke="none"/>
    <path d="M3.75 -4.95 Q3.65 -3.45 2.3 -3.45 L-0.85 -3.45 -1.1 -1.9 0.0 -2.05 Q3.55 -1.75 3.85 1.85 3.7 6.7 -0.95 6.75 L-2.7 6.5 Q-4.9 5.95 -5.05 4.4 -4.95 3.15 -3.65 2.95 -3.35 2.95 -2.7 3.4 L-2.6 3.45 Q-1.55 4.15 -0.9 4.15 0.55 4.1 0.75 1.95 0.7 0.4 -0.75 0.35 -1.25 0.35 -1.8 0.7 L-2.8 1.0 Q-3.85 1.0 -4.0 0.0 L-4.0 -0.65 -3.55 -4.4 Q-3.4 -6.35 -2.0 -6.2 L2.2 -6.2 Q3.55 -6.1 3.75 -4.95 Z" fill="none" stroke="#243842" stroke-linecap="round" stroke-linejoin="round" stroke-opacity="0.6509804" stroke-width="0.05"/>
  </g>
  <defs>
    <linearGradient gradientTransform="matrix(-2.0E-4, 0.008, -0.0054, -1.0E-4, -0.5, 0.25)" gradientUnits="userSpaceOnUse" id="gradient0" spreadMethod="pad" x1="-819.2" x2="819.2">
      <stop offset="0.0" stop-color="#61bcff"/>
      <stop offset="0.1450980392156863" stop-color="#40e1f3"/>
      <stop offset="1.0" stop-color="#2b6d99"/>
    </linearGradient>
  </defs>
</svg>
