<?xml version="1.0" encoding="UTF-8" standalone="no"?>
<svg height="13.15px" width="9.25px" xmlns="http://www.w3.org/2000/svg">
  <g transform="matrix(1.0, 0.0, 0.0, 1.0, 4.65, 6.4)">
    <path d="M2.55 -5.0 L2.15 -4.1 1.3 -3.2 -0.2 -1.6 0.7 -1.8 Q4.25 -1.4 4.6 2.4 4.2 6.55 -0.05 6.75 L-1.1 6.65 Q-3.9 6.2 -4.5 3.45 L-4.65 2.4 -4.5 1.35 -4.1 0.05 Q-3.05 -2.7 0.0 -5.85 L0.5 -6.35 1.15 -6.4 Q2.3 -6.1 2.55 -5.0 M-1.1 1.2 L-1.5 2.4 -1.1 3.6 Q-0.75 4.0 -0.05 4.0 1.4 3.95 1.5 2.4 1.4 0.85 -0.05 0.7 -0.75 0.75 -1.1 1.2" fill="url(#gradient0)" fill-rule="evenodd" stroke="none"/>
    <path d="M2.55 -5.0 L2.15 -4.1 1.3 -3.2 -0.2 -1.6 0.7 -1.8 Q4.25 -1.4 4.6 2.4 4.2 6.55 -0.05 6.75 L-1.1 6.65 Q-3.9 6.2 -4.5 3.45 L-4.65 2.4 -4.5 1.35 -4.1 0.05 Q-3.05 -2.7 0.0 -5.85 L0.5 -6.35 1.15 -6.4 Q2.3 -6.1 2.55 -5.0 M-1.1 1.2 L-1.5 2.4 -1.1 3.6 Q-0.75 4.0 -0.05 4.0 1.4 3.95 1.5 2.4 1.4 0.85 -0.05 0.7 -0.75 0.75 -1.1 1.2 Z" fill="none" stroke="#243842" stroke-linecap="round" stroke-linejoin="round" stroke-opacity="0.6509804" stroke-width="0.05"/>
  </g>
  <defs>
    <linearGradient gradientTransform="matrix(-2.0E-4, 0.0081, -0.0056, -2.0E-4, 0.1, 0.15)" gradientUnits="userSpaceOnUse" id="gradient0" spreadMethod="pad" x1="-819.2" x2="819.2">
      <stop offset="0.0" stop-color="#61bcff"/>
      <stop offset="0.1450980392156863" stop-color="#40e1f3"/>
      <stop offset="1.0" stop-color="#2b6d99"/>
    </linearGradient>
  </defs>
</svg>
