<?xml version="1.0" encoding="UTF-8" standalone="no"?>
<svg height="12.9px" width="9.35px" xmlns="http://www.w3.org/2000/svg">
  <g transform="matrix(1.0, 0.0, 0.0, 1.0, 5.2, 6.2)">
    <path d="M4.15 -4.8 L3.7 -3.55 -0.6 5.35 -0.8 5.6 Q-1.35 6.75 -2.35 6.7 -3.8 6.7 -3.95 5.35 L-3.85 5.0 -3.8 4.7 0.6 -3.45 -3.7 -3.45 Q-5.2 -3.45 -5.2 -4.85 -5.2 -6.1 -3.65 -6.2 L2.6 -6.2 Q3.9 -6.1 4.15 -4.8" fill="url(#gradient0)" fill-rule="evenodd" stroke="none"/>
    <path d="M4.15 -4.8 L3.7 -3.55 -0.6 5.35 -0.8 5.6 Q-1.35 6.75 -2.35 6.7 -3.8 6.7 -3.95 5.35 L-3.85 5.0 -3.8 4.7 0.6 -3.45 -3.7 -3.45 Q-5.2 -3.45 -5.2 -4.85 -5.2 -6.1 -3.65 -6.2 L2.6 -6.2 Q3.9 -6.1 4.15 -4.8 Z" fill="none" stroke="#243842" stroke-linecap="round" stroke-linejoin="round" stroke-opacity="0.6509804" stroke-width="0.05"/>
  </g>
  <defs>
    <linearGradient gradientTransform="matrix(-2.0E-4, 0.008, -0.0057, -2.0E-4, -0.6, 0.25)" gradientUnits="userSpaceOnUse" id="gradient0" spreadMethod="pad" x1="-819.2" x2="819.2">
      <stop offset="0.0" stop-color="#61bcff"/>
      <stop offset="0.1450980392156863" stop-color="#40e1f3"/>
      <stop offset="1.0" stop-color="#2b6d99"/>
    </linearGradient>
  </defs>
</svg>
