<?xml version="1.0" encoding="UTF-8" standalone="no"?>
<svg height="13.15px" width="9.1px" xmlns="http://www.w3.org/2000/svg">
  <g transform="matrix(1.0, 0.0, 0.0, 1.0, 4.65, 6.4)">
    <path d="M2.55 -0.4 Q4.4 0.55 4.45 2.75 4.15 6.65 -0.15 6.75 -4.35 6.55 -4.65 2.75 -4.65 0.7 -2.75 -0.4 -4.1 -1.15 -4.1 -2.85 -3.9 -6.1 -0.15 -6.4 3.6 -6.1 3.9 -2.85 3.85 -1.1 2.55 -0.4 M-1.2 -2.55 Q-1.15 -1.45 -0.15 -1.45 0.95 -1.45 1.0 -2.55 0.95 -3.7 -0.15 -3.8 -1.2 -3.7 -1.2 -2.55 M-0.15 4.15 Q1.15 4.1 1.35 2.5 1.3 1.05 -0.15 1.0 -1.5 1.1 -1.55 2.55 -1.5 4.1 -0.15 4.15" fill="url(#gradient0)" fill-rule="evenodd" stroke="none"/>
    <path d="M2.55 -0.4 Q4.4 0.55 4.45 2.75 4.15 6.65 -0.15 6.75 -4.35 6.55 -4.65 2.75 -4.65 0.7 -2.75 -0.4 -4.1 -1.15 -4.1 -2.85 -3.9 -6.1 -0.15 -6.4 3.6 -6.1 3.9 -2.85 3.85 -1.1 2.55 -0.4 M-1.2 -2.55 Q-1.15 -1.45 -0.15 -1.45 0.95 -1.45 1.0 -2.55 0.95 -3.7 -0.15 -3.8 -1.2 -3.7 -1.2 -2.55 M-0.15 4.15 Q1.15 4.1 1.35 2.5 1.3 1.05 -0.15 1.0 -1.5 1.1 -1.55 2.55 -1.5 4.1 -0.15 4.15 Z" fill="none" stroke="#243842" stroke-linecap="round" stroke-linejoin="round" stroke-opacity="0.6509804" stroke-width="0.05"/>
  </g>
  <defs>
    <linearGradient gradientTransform="matrix(-2.0E-4, 0.008, -0.0056, -2.0E-4, -0.05, 0.15)" gradientUnits="userSpaceOnUse" id="gradient0" spreadMethod="pad" x1="-819.2" x2="819.2">
      <stop offset="0.0" stop-color="#61bcff"/>
      <stop offset="0.1450980392156863" stop-color="#40e1f3"/>
      <stop offset="1.0" stop-color="#2b6d99"/>
    </linearGradient>
  </defs>
</svg>
