<?xml version="1.0" encoding="UTF-8" standalone="no"?>
<svg height="13.15px" width="9.25px" xmlns="http://www.w3.org/2000/svg">
  <g transform="matrix(1.0, 0.0, 0.0, 1.0, 4.65, 6.4)">
    <path d="M-1.5 -1.9 Q-1.45 -0.25 -0.05 -0.2 1.4 -0.25 1.5 -1.9 1.4 -3.4 -0.05 -3.5 -1.45 -3.4 -1.5 -1.9 M-0.05 -6.4 Q4.25 -6.1 4.6 -1.9 4.35 1.9 0.0 6.35 L-0.5 6.7 -1.15 6.75 Q-2.5 6.6 -2.55 5.45 L-2.15 4.55 -1.1 3.5 0.05 2.1 -0.75 2.2 Q-4.25 1.95 -4.65 -1.9 -4.25 -5.95 -0.05 -6.4" fill="url(#gradient0)" fill-rule="evenodd" stroke="none"/>
    <path d="M-1.5 -1.9 Q-1.45 -0.25 -0.05 -0.2 1.4 -0.25 1.5 -1.9 1.4 -3.4 -0.05 -3.5 -1.45 -3.4 -1.5 -1.9 M-0.05 -6.4 Q4.25 -6.1 4.6 -1.9 4.35 1.9 0.0 6.35 L-0.5 6.7 -1.15 6.75 Q-2.5 6.6 -2.55 5.45 L-2.15 4.55 -1.1 3.5 0.05 2.1 -0.75 2.2 Q-4.25 1.95 -4.65 -1.9 -4.25 -5.95 -0.05 -6.4 Z" fill="none" stroke="#243842" stroke-linecap="round" stroke-linejoin="round" stroke-opacity="0.6509804" stroke-width="0.05"/>
  </g>
  <defs>
    <linearGradient gradientTransform="matrix(-6.0E-4, 0.0081, -0.0056, -4.0E-4, -0.15, 0.15)" gradientUnits="userSpaceOnUse" id="gradient0" spreadMethod="pad" x1="-819.2" x2="819.2">
      <stop offset="0.0" stop-color="#61bcff"/>
      <stop offset="0.1450980392156863" stop-color="#40e1f3"/>
      <stop offset="1.0" stop-color="#2b6d99"/>
    </linearGradient>
  </defs>
</svg>
