<?xml version="1.0" encoding="UTF-8" standalone="no"?>
<svg height="21.75px" width="24.95px" xmlns="http://www.w3.org/2000/svg">
  <g transform="matrix(1.0, 0.0, 0.0, 1.0, 14.95, 10.85)">
    <path d="M6.45 -7.3 Q9.5 -4.25 9.5 0.0 9.5 4.3 6.45 7.35 3.4 10.4 -0.9 10.4 -5.15 10.4 -8.2 7.35 -11.25 4.3 -11.25 0.0 -11.25 -4.25 -8.2 -7.3 -5.15 -10.35 -0.9 -10.35 3.4 -10.35 6.45 -7.3" fill="url(#gradient0)" fill-rule="evenodd" stroke="none"/>
    <path d="M6.45 -7.3 Q9.5 -4.25 9.5 0.0 9.5 4.3 6.45 7.35 3.4 10.4 -0.9 10.4 -5.15 10.4 -8.2 7.35 -11.25 4.3 -11.25 0.0 -11.25 -4.25 -8.2 -7.3 -5.15 -10.35 -0.9 -10.35 3.4 -10.35 6.45 -7.3 Z" fill="none" stroke="#e09a1c" stroke-linecap="round" stroke-linejoin="round" stroke-width="1.0"/>
    <path d="M5.65 1.8 L-8.05 1.8 -8.1 0.05 5.55 -0.05 5.65 1.8" fill="#fefefe" fill-rule="evenodd" stroke="none"/>
    <path d="M-8.05 1.8 L5.65 1.8 5.55 3.25 Q5.35 4.6 4.75 5.35 L4.05 6.05 Q2.7 4.95 0.95 4.6 L-0.55 4.45 -1.85 4.45 -1.9 4.45 -3.0 4.6 Q-4.7 4.95 -6.1 6.05 L-6.55 5.75 Q-7.7 4.85 -7.9 3.25 L-8.05 1.8" fill="#873300" fill-rule="evenodd" stroke="none"/>
    <path d="M-6.1 6.05 Q-4.7 4.95 -3.0 4.6 L-1.9 4.45 -1.85 4.45 -0.55 4.45 0.95 4.6 Q2.7 4.95 4.05 6.05 L3.45 6.45 2.3 6.9 -0.7 7.35 -3.85 6.95 Q-5.05 6.7 -6.1 6.05" fill="#ff6000" fill-rule="evenodd" stroke="none"/>
    <path d="M5.65 1.8 L5.55 -0.05 -8.1 0.05 -8.05 1.8 -7.9 3.25 Q-7.7 4.85 -6.55 5.75 L-6.1 6.05 Q-5.05 6.7 -3.85 6.95 L-0.7 7.35 2.3 6.9 3.45 6.45 4.05 6.05 4.75 5.35 Q5.35 4.6 5.55 3.25 L5.65 1.8 Z" fill="none" stroke="#e09a1c" stroke-linecap="round" stroke-linejoin="round" stroke-width="1.0"/>
    <path d="M4.05 -2.35 Q3.5 -2.35 3.1 -2.75 2.7 -3.15 2.7 -3.65 2.7 -4.2 3.1 -4.6 3.5 -5.0 4.05 -5.0 4.55 -5.0 4.95 -4.6 5.35 -4.2 5.35 -3.65 5.35 -3.15 4.95 -2.75 4.55 -2.35 4.05 -2.35 M-6.8 -2.75 L-7.15 -3.65 Q-7.15 -4.2 -6.8 -4.6 -6.4 -5.0 -5.85 -5.0 -5.35 -5.0 -4.95 -4.6 -4.55 -4.2 -4.55 -3.65 -4.55 -3.15 -4.95 -2.75 -5.35 -2.35 -5.85 -2.35 -6.4 -2.35 -6.8 -2.75" fill="#7b2f04" fill-rule="evenodd" stroke="none"/>
    <path d="M8.0 -1.35 Q8.55 -0.95 8.55 -0.35 8.55 0.2 8.0 0.6 7.5 1.0 6.8 1.0 6.1 1.0 5.55 0.6 5.05 0.2 5.05 -0.35 5.05 -0.95 5.55 -1.35 6.1 -1.7 6.8 -1.7 L8.0 -1.35 M-8.65 -1.7 L-7.4 -1.35 Q-6.9 -0.95 -6.9 -0.35 -6.9 0.2 -7.4 0.6 -7.95 1.0 -8.65 1.0 -9.35 1.0 -9.85 0.6 -10.4 0.2 -10.4 -0.35 -10.4 -0.95 -9.85 -1.35 -9.35 -1.7 -8.65 -1.7" fill="#fe5f55" fill-rule="evenodd" stroke="none"/>
    <path d="M-8.4 0.55 L-8.3 1.2 -8.3 2.05 -8.1 2.65 -7.75 2.95 -7.35 2.9 -7.35 2.85 -6.0 2.9 -5.3 3.3 -5.25 3.65 -5.2 3.7 -5.2 3.75 Q-5.2 4.35 -5.35 4.5 L-6.15 4.75 -8.1 4.9 -8.3 5.35 -8.35 5.45 -8.35 5.75 -8.3 6.85 Q-8.5 7.8 -9.5 7.8 -10.05 7.8 -10.2 6.95 L-10.25 5.95 Q-10.25 5.25 -10.5 5.2 L-10.6 5.2 -10.6 5.15 -12.7 4.85 Q-13.15 4.9 -13.3 4.55 L-13.4 4.4 -13.6 3.75 -13.4 3.25 Q-13.15 2.85 -12.65 2.85 L-12.0 2.9 -10.95 2.8 -10.8 2.7 -10.65 2.7 Q-10.1 2.7 -10.35 1.3 L-10.25 0.5 -9.75 -0.05 -9.05 -0.05 -8.4 0.55 M-7.65 0.45 L-7.55 2.15 -5.7 2.15 Q-5.15 2.3 -4.75 2.8 -4.4 3.3 -4.4 3.8 -4.35 4.25 -4.65 4.9 L-5.2 5.5 -5.55 5.6 -7.65 5.6 -7.65 7.35 Q-7.8 7.9 -8.3 8.3 L-9.25 8.65 -10.35 8.4 -11.0 7.85 -11.1 7.5 -11.1 5.6 -13.3 5.6 -13.65 5.5 -14.2 4.9 -14.45 3.8 -14.05 2.8 Q-13.7 2.3 -13.15 2.15 L-11.1 2.15 -11.1 0.7 -11.1 0.3 -10.9 -0.25 -10.35 -0.6 -9.25 -0.85 -8.3 -0.5 Q-7.8 -0.1 -7.65 0.45 M-7.6 2.15 L-7.55 2.15 -7.75 0.75 Q-8.15 -0.65 -9.4 -0.65 -10.6 -0.65 -10.9 0.75 L-11.0 2.3 -11.1 2.25 -12.2 2.3 -12.7 2.25 Q-13.3 2.25 -13.8 2.8 L-14.2 3.55 -14.05 4.4 -13.5 5.2 -12.45 5.5 -11.7 5.5 -10.75 5.45 -10.8 5.9 -10.75 7.3 Q-10.5 8.35 -9.45 8.35 -8.25 8.35 -7.9 7.6 L-7.7 6.4 -7.85 5.5 -6.85 5.25 Q-5.45 5.75 -4.9 4.85 -4.65 4.4 -4.65 3.8 L-4.6 3.6 Q-4.6 3.15 -4.95 2.8 -5.55 2.3 -6.95 2.3 L-7.6 2.3 -7.6 2.15" fill="#ffffff" fill-rule="evenodd" stroke="none"/>
    <path d="M-8.4 0.55 L-9.05 -0.05 -9.75 -0.05 -10.25 0.5 -10.35 1.3 Q-10.1 2.7 -10.65 2.7 L-10.8 2.7 -10.95 2.8 -12.0 2.9 -12.65 2.85 Q-13.15 2.85 -13.4 3.25 L-13.6 3.75 -13.4 4.4 -13.3 4.55 Q-13.15 4.9 -12.7 4.85 L-10.6 5.15 -10.6 5.2 -10.5 5.2 Q-10.25 5.25 -10.25 5.95 L-10.2 6.95 Q-10.05 7.8 -9.5 7.8 -8.5 7.8 -8.3 6.85 L-8.35 5.75 -8.35 5.45 -8.3 5.35 -8.1 4.9 -6.15 4.75 -5.35 4.5 Q-5.2 4.35 -5.2 3.75 L-5.2 3.7 -5.25 3.65 -5.3 3.3 -6.0 2.9 -7.35 2.85 -7.35 2.9 -7.75 2.95 -8.1 2.65 -8.3 2.05 -8.3 1.2 -8.4 0.55 M-7.55 2.15 L-7.6 2.15 -7.6 2.3 -6.95 2.3 Q-5.55 2.3 -4.95 2.8 -4.6 3.15 -4.6 3.6 L-4.65 3.8 Q-4.65 4.4 -4.9 4.85 -5.45 5.75 -6.85 5.25 L-7.85 5.5 -7.7 6.4 -7.9 7.6 Q-8.25 8.35 -9.45 8.35 -10.5 8.35 -10.75 7.3 L-10.8 5.9 -10.75 5.45 -11.7 5.5 -12.45 5.5 -13.5 5.2 -14.05 4.4 -14.2 3.55 -13.8 2.8 Q-13.3 2.25 -12.7 2.25 L-12.2 2.3 -11.1 2.25 -11.0 2.3 -10.9 0.75 Q-10.6 -0.65 -9.4 -0.65 -8.15 -0.65 -7.75 0.75 L-7.55 2.15" fill="#d0bdb1" fill-rule="evenodd" stroke="none"/>
    <path d="M-7.65 0.45 L-7.55 2.15 -5.7 2.15 Q-5.15 2.3 -4.75 2.8 -4.4 3.3 -4.4 3.8 -4.35 4.25 -4.65 4.9 L-5.2 5.5 -5.55 5.6 -7.65 5.6 -7.65 7.35 Q-7.8 7.9 -8.3 8.3 L-9.25 8.65 -10.35 8.4 -11.0 7.85 -11.1 7.5 -11.1 5.6 -13.3 5.6 -13.65 5.5 -14.2 4.9 -14.45 3.8 -14.05 2.8 Q-13.7 2.3 -13.15 2.15 L-11.1 2.15 -11.1 0.7 -11.1 0.3 -10.9 -0.25 -10.35 -0.6 -9.25 -0.85 -8.3 -0.5 Q-7.8 -0.1 -7.65 0.45 M-7.55 2.15 L-7.6 2.15" fill="none" stroke="#8e3b01" stroke-linecap="round" stroke-linejoin="round" stroke-width="1.0"/>
  </g>
  <defs>
    <radialGradient cx="0" cy="0" gradientTransform="matrix(0.0133, 0.0, 0.0, 0.0133, -0.8, 0.15)" gradientUnits="userSpaceOnUse" id="gradient0" r="819.2" spreadMethod="pad">
      <stop offset="0.615686274509804" stop-color="#feec41"/>
      <stop offset="1.0" stop-color="#f7b010"/>
    </radialGradient>
  </defs>
</svg>
