<?xml version="1.0" encoding="UTF-8" standalone="no"?>
<svg height="16.75px" width="46.65px" xmlns="http://www.w3.org/2000/svg">
  <g transform="matrix(1.0, 0.0, 0.0, 1.0, 37.8, 10.55)">
    <path d="M3.6 -6.25 L4.0 -6.3 4.35 -6.25 Q5.1 -6.05 5.2 -5.05 L5.2 -2.65 7.55 -2.65 Q8.75 -2.6 8.85 -1.45 8.75 -0.15 7.55 -0.15 L5.2 -0.15 5.2 1.0 5.2 2.2 Q5.1 3.2 4.0 3.25 2.7 3.2 2.7 2.2 L2.7 1.0 2.7 -0.15 0.35 -0.15 Q-0.8 -0.15 -0.9 -1.45 -0.9 -2.6 0.35 -2.65 L2.7 -2.65 2.7 -5.05 Q2.7 -6.05 3.6 -6.25" fill="url(#gradient0)" fill-rule="evenodd" stroke="none"/>
    <path d="M-33.55 -6.25 L-33.55 -7.6 Q-33.55 -8.8 -32.35 -8.9 -31.2 -8.8 -31.15 -7.6 L-31.15 -6.25 -31.15 1.0 -31.15 2.35 Q-31.2 3.75 -29.4 3.65 L-28.5 3.65 Q-26.7 4.0 -26.8 1.0 L-26.8 0.75 Q-26.8 -0.25 -25.55 -0.2 -24.45 -0.05 -24.4 0.9 L-24.4 1.0 Q-24.3 6.05 -28.55 5.95 L-29.25 5.95 Q-34.0 6.15 -33.55 2.8 L-33.55 1.0 -33.55 -6.25 M-36.55 -6.3 Q-36.45 -7.5 -35.15 -7.5 -34.2 -7.35 -34.2 -6.25 L-34.2 -6.05 -34.4 -3.85 -34.9 1.0 -35.35 3.75 Q-35.75 4.85 -36.9 4.75 L-36.95 4.75 Q-38.0 4.4 -37.75 3.35 L-37.4 1.0 -36.95 -2.25 -36.75 -3.85 -36.55 -6.25 -36.55 -6.3 M-25.55 -6.25 L-25.65 -6.6 Q-25.8 -7.6 -24.75 -7.9 -23.6 -8.05 -23.3 -7.2 L-23.05 -6.25 -22.45 -3.85 -21.45 1.0 -21.2 2.55 Q-21.05 3.8 -22.25 4.15 -23.4 4.2 -23.7 3.0 L-24.1 1.0 -24.8 -2.15 -25.1 -3.85 -25.55 -6.25 M-30.2 -6.25 L-30.8 -8.45 Q-31.1 -9.5 -30.15 -10.0 -28.95 -10.25 -28.45 -9.4 L-27.55 -6.25 -26.95 -3.85 -26.5 -1.65 Q-26.4 -0.35 -27.4 0.05 -28.65 0.3 -28.95 -0.9 L-29.6 -3.85 -30.2 -6.25 M-19.65 -6.25 L-19.65 -6.45 Q-19.55 -7.15 -18.75 -7.15 -17.85 -7.1 -17.85 -6.45 L-17.85 -9.5 Q-17.85 -10.4 -16.7 -10.5 -15.6 -10.4 -15.5 -9.45 L-15.5 -6.9 Q-15.2 -7.15 -14.45 -6.9 L-14.25 -6.25 -13.9 -5.05 -10.3 -5.05 -10.3 -5.25 -13.4 -5.25 Q-14.2 -5.7 -14.15 -6.25 L-13.55 -7.15 -10.3 -7.15 -10.3 -7.35 -13.75 -7.35 Q-15.1 -8.3 -13.75 -9.3 L-10.3 -9.3 -10.3 -9.8 Q-10.3 -10.45 -9.15 -10.55 -8.0 -10.45 -7.9 -9.75 L-7.9 -9.3 -3.7 -9.3 Q-2.35 -8.3 -3.7 -7.35 L-7.9 -7.35 -7.9 -7.15 -4.05 -7.15 -3.55 -6.25 Q-3.5 -5.7 -4.1 -5.25 L-7.9 -5.25 -7.9 -5.05 -3.7 -5.05 Q-2.9 -4.45 -3.05 -3.85 -3.15 -3.5 -3.6 -3.1 L-14.4 -3.1 Q-15.15 -3.15 -15.25 -3.85 L-15.25 -4.55 -15.5 -5.3 -15.5 1.0 -15.5 5.4 Q-15.6 6.2 -16.7 6.2 -17.85 6.2 -17.85 5.4 L-17.85 1.0 -17.85 -5.7 -17.95 -3.85 -18.2 -1.8 Q-19.3 -0.55 -20.0 -1.95 L-19.8 -3.85 -19.65 -6.25 M-12.25 -0.9 L-12.25 -0.7 -6.3 -0.7 -6.3 -0.95 -12.2 -0.95 -12.25 -0.9 M-14.5 1.0 L-14.5 -1.35 Q-14.6 -3.05 -13.2 -2.95 L-5.25 -2.95 Q-4.0 -3.05 -4.05 -1.45 L-4.05 1.0 -4.05 3.65 Q-3.85 6.3 -6.25 6.05 L-8.05 5.95 Q-9.1 5.7 -9.1 4.65 -8.95 3.75 -7.8 3.75 L-7.2 3.85 -6.75 3.85 Q-6.2 3.95 -6.3 3.65 L-6.3 3.3 -12.25 3.3 -12.25 5.25 Q-12.35 6.05 -13.4 6.15 -14.5 6.05 -14.5 5.2 L-14.5 1.0 M-6.3 1.1 L-12.25 1.1 -12.25 1.4 -6.3 1.4 -6.3 1.1" fill="url(#gradient1)" fill-rule="evenodd" stroke="none"/>
    <path d="M3.6 -6.25 L4.0 -6.3 4.35 -6.25 M5.2 1.0 L5.2 2.2 Q5.1 3.2 4.0 3.25 2.7 3.2 2.7 2.2 L2.7 1.0 M-33.55 -6.25 L-33.55 -7.6 Q-33.55 -8.8 -32.35 -8.9 -31.2 -8.8 -31.15 -7.6 L-31.15 -6.25 M-31.15 1.0 L-31.15 2.35 Q-31.2 3.75 -29.4 3.65 L-28.5 3.65 Q-26.7 4.0 -26.8 1.0 M-24.4 1.0 Q-24.3 6.05 -28.55 5.95 L-29.25 5.95 Q-34.0 6.15 -33.55 2.8 L-33.55 1.0 M-36.55 -6.3 Q-36.45 -7.5 -35.15 -7.5 -34.2 -7.35 -34.2 -6.25 M-34.9 1.0 L-35.35 3.75 Q-35.75 4.85 -36.9 4.75 L-36.95 4.75 Q-38.0 4.4 -37.75 3.35 L-37.4 1.0 M-25.55 -6.25 L-25.65 -6.6 Q-25.8 -7.6 -24.75 -7.9 -23.6 -8.05 -23.3 -7.2 L-23.05 -6.25 M-21.45 1.0 L-21.2 2.55 Q-21.05 3.8 -22.25 4.15 -23.4 4.2 -23.7 3.0 L-24.1 1.0 M-30.2 -6.25 L-30.8 -8.45 Q-31.1 -9.5 -30.15 -10.0 -28.95 -10.25 -28.45 -9.4 L-27.55 -6.25 M-19.65 -6.25 L-19.65 -6.45 Q-19.55 -7.15 -18.75 -7.15 -17.85 -7.1 -17.85 -6.45 L-17.85 -9.5 Q-17.85 -10.4 -16.7 -10.5 -15.6 -10.4 -15.5 -9.45 L-15.5 -6.9 Q-15.2 -7.15 -14.45 -6.9 L-14.25 -6.25 M-14.15 -6.25 L-13.55 -7.15 -10.3 -7.15 -10.3 -7.35 -13.75 -7.35 Q-15.1 -8.3 -13.75 -9.3 L-10.3 -9.3 -10.3 -9.8 Q-10.3 -10.45 -9.15 -10.55 -8.0 -10.45 -7.9 -9.75 L-7.9 -9.3 -3.7 -9.3 Q-2.35 -8.3 -3.7 -7.35 L-7.9 -7.35 -7.9 -7.15 -4.05 -7.15 -3.55 -6.25 M-15.5 1.0 L-15.5 5.4 Q-15.6 6.2 -16.7 6.2 -17.85 6.2 -17.85 5.4 L-17.85 1.0 M-4.05 1.0 L-4.05 3.65 Q-3.85 6.3 -6.25 6.05 L-8.05 5.95 Q-9.1 5.7 -9.1 4.65 -8.95 3.75 -7.8 3.75 L-7.2 3.85 -6.75 3.85 Q-6.2 3.95 -6.3 3.65 L-6.3 3.3 -12.25 3.3 -12.25 5.25 Q-12.35 6.05 -13.4 6.15 -14.5 6.05 -14.5 5.2 L-14.5 1.0 M-6.3 1.1 L-12.25 1.1 -12.25 1.4 -6.3 1.4 -6.3 1.1" fill="none" stroke="#243842" stroke-linecap="round" stroke-linejoin="round" stroke-opacity="0.6509804" stroke-width="0.05"/>
    <path d="M4.35 -6.25 Q5.1 -6.05 5.2 -5.05 L5.2 -2.65 7.55 -2.65 Q8.75 -2.6 8.85 -1.45 8.75 -0.15 7.55 -0.15 L5.2 -0.15 5.2 1.0 M2.7 1.0 L2.7 -0.15 0.35 -0.15 Q-0.8 -0.15 -0.9 -1.45 -0.9 -2.6 0.35 -2.65 L2.7 -2.65 2.7 -5.05 Q2.7 -6.05 3.6 -6.25 M-31.15 -6.25 L-31.15 1.0 M-26.8 1.0 L-26.8 0.75 Q-26.8 -0.25 -25.55 -0.2 -24.45 -0.05 -24.4 0.9 L-24.4 1.0 M-33.55 1.0 L-33.55 -6.25 M-34.2 -6.25 L-34.2 -6.05 -34.4 -3.85 -34.9 1.0 M-37.4 1.0 L-36.95 -2.25 -36.75 -3.85 -36.55 -6.25 -36.55 -6.3 M-23.05 -6.25 L-22.45 -3.85 -21.45 1.0 M-24.1 1.0 L-24.8 -2.15 -25.1 -3.85 -25.55 -6.25 M-27.55 -6.25 L-26.95 -3.85 -26.5 -1.65 Q-26.4 -0.35 -27.4 0.05 -28.65 0.3 -28.95 -0.9 L-29.6 -3.85 -30.2 -6.25 M-14.25 -6.25 L-13.9 -5.05 -10.3 -5.05 -10.3 -5.25 -13.4 -5.25 Q-14.2 -5.7 -14.15 -6.25 M-3.55 -6.25 Q-3.5 -5.7 -4.1 -5.25 L-7.9 -5.25 -7.9 -5.05 -3.7 -5.05 Q-2.9 -4.45 -3.05 -3.85 -3.15 -3.5 -3.6 -3.1 L-14.4 -3.1 Q-15.15 -3.15 -15.25 -3.85 L-15.25 -4.55 -15.5 -5.3 -15.5 1.0 M-17.85 1.0 L-17.85 -5.7 -17.95 -3.85 -18.2 -1.8 Q-19.3 -0.55 -20.0 -1.95 L-19.8 -3.85 -19.65 -6.25 M-12.25 -0.9 L-12.25 -0.7 -6.3 -0.7 -6.3 -0.95 -12.2 -0.95 -12.25 -0.9 M-14.5 1.0 L-14.5 -1.35 Q-14.6 -3.05 -13.2 -2.95 L-5.25 -2.95 Q-4.0 -3.05 -4.05 -1.45 L-4.05 1.0" fill="none" stroke="#243742" stroke-linecap="round" stroke-linejoin="round" stroke-opacity="0.4509804" stroke-width="0.05"/>
  </g>
  <defs>
    <linearGradient gradientTransform="matrix(-2.0E-4, 0.0058, -0.006, -2.0E-4, 4.0, -1.55)" gradientUnits="userSpaceOnUse" id="gradient0" spreadMethod="pad" x1="-819.2" x2="819.2">
      <stop offset="0.0" stop-color="#61bcff"/>
      <stop offset="0.1450980392156863" stop-color="#40e1f3"/>
      <stop offset="1.0" stop-color="#2b6d99"/>
    </linearGradient>
    <linearGradient gradientTransform="matrix(-3.0E-4, 0.0097, -0.0102, -3.0E-4, -19.1, -1.6)" gradientUnits="userSpaceOnUse" id="gradient1" spreadMethod="pad" x1="-819.2" x2="819.2">
      <stop offset="0.0" stop-color="#61bcff"/>
      <stop offset="0.1450980392156863" stop-color="#40e1f3"/>
      <stop offset="1.0" stop-color="#2b6d99"/>
    </linearGradient>
  </defs>
</svg>
