<?xml version="1.0" encoding="UTF-8" standalone="no"?>
<svg height="86.0px" width="278.0px" xmlns="http://www.w3.org/2000/svg">
  <g transform="matrix(1.0, 0.0, 0.0, 1.0, 0.0, 0.0)">
    <path d="M2.0 3.0 L2.0 2.0 3.0 2.0 3.0 3.0 2.0 3.0 M265.0 2.0 L266.0 2.0 266.0 3.0 265.0 3.0 265.0 2.0" fill="#383d40" fill-opacity="0.25882354" fill-rule="evenodd" stroke="none"/>
    <path d="M266.0 3.0 L267.0 3.0 267.0 4.0 266.0 4.0 266.0 3.0" fill="#1a1c1e" fill-opacity="0.1254902" fill-rule="evenodd" stroke="none"/>
    <path d="M3.0 2.0 L4.0 2.0 4.0 3.0 3.0 3.0 3.0 2.0 M264.0 2.0 L265.0 2.0 265.0 3.0 264.0 3.0 264.0 2.0" fill="#839097" fill-opacity="0.6" fill-rule="evenodd" stroke="none"/>
    <path d="M264.0 2.0 L264.0 3.0 265.0 3.0 265.0 4.0 266.0 4.0 266.0 5.0 266.0 6.0 267.0 6.0 267.0 7.0 267.0 9.0 267.0 66.0 267.0 67.0 267.0 68.0 266.0 68.0 266.0 69.0 266.0 70.0 265.0 70.0 265.0 71.0 264.0 71.0 264.0 72.0 263.0 72.0 262.0 72.0 262.0 73.0 261.0 73.0 260.0 73.0 8.0 73.0 7.0 73.0 6.0 73.0 6.0 72.0 5.0 72.0 4.0 72.0 4.0 71.0 3.0 71.0 3.0 70.0 2.0 70.0 2.0 69.0 2.0 68.0 1.0 68.0 1.0 67.0 1.0 8.0 2.0 8.0 2.0 5.0 2.0 4.0 3.0 4.0 3.0 3.0 4.0 3.0 4.0 2.0 5.0 2.0 6.0 2.0 6.0 1.0 7.0 1.0 8.0 1.0 260.0 1.0 261.0 1.0 262.0 1.0 262.0 2.0 263.0 2.0 264.0 2.0" fill="#e9edf0" fill-opacity="0.9490196" fill-rule="evenodd" stroke="none"/>
    <path d="M4.0 2.0 L4.0 1.0 5.0 1.0 5.0 2.0 4.0 2.0 M6.0 0.0 L7.0 0.0 7.0 1.0 6.0 1.0 6.0 0.0 M261.0 0.0 L262.0 0.0 262.0 1.0 261.0 1.0 261.0 0.0 M263.0 1.0 L264.0 1.0 264.0 2.0 263.0 2.0 263.0 1.0" fill="#656f74" fill-opacity="0.4627451" fill-rule="evenodd" stroke="none"/>
    <path d="M267.0 4.0 L267.0 5.0 266.0 5.0 266.0 4.0 267.0 4.0" fill="#6a747a" fill-opacity="0.49803922" fill-rule="evenodd" stroke="none"/>
    <path d="M266.0 5.0 L267.0 5.0 267.0 6.0 266.0 6.0 266.0 5.0 M6.0 73.0 L5.0 73.0 5.0 72.0 6.0 72.0 6.0 73.0 M262.0 1.0 L263.0 1.0 263.0 2.0 262.0 2.0 262.0 1.0 M262.0 73.0 L262.0 72.0 263.0 72.0 263.0 73.0 262.0 73.0 M6.0 1.0 L6.0 2.0 5.0 2.0 5.0 1.0 6.0 1.0" fill="#bfcfd8" fill-opacity="0.85490197" fill-rule="evenodd" stroke="none"/>
    <path d="M267.0 5.0 L268.0 5.0 268.0 6.0 267.0 6.0 267.0 5.0" fill="#202325" fill-opacity="0.1882353" fill-rule="evenodd" stroke="none"/>
    <path d="M268.0 6.0 L268.0 7.0 267.0 7.0 267.0 6.0 268.0 6.0" fill="#687278" fill-opacity="0.5254902" fill-rule="evenodd" stroke="none"/>
    <path d="M266.0 3.0 L266.0 4.0 265.0 4.0 265.0 3.0 266.0 3.0 M266.0 70.0 L266.0 71.0 265.0 71.0 265.0 70.0 266.0 70.0 M3.0 3.0 L3.0 4.0 2.0 4.0 2.0 3.0 3.0 3.0 M2.0 70.0 L3.0 70.0 3.0 71.0 2.0 71.0 2.0 70.0" fill="#b8cad4" fill-opacity="0.8392157" fill-rule="evenodd" stroke="none"/>
    <path d="M268.0 7.0 L268.0 9.0 267.0 9.0 267.0 7.0 268.0 7.0" fill="#a3b4bd" fill-opacity="0.77254903" fill-rule="evenodd" stroke="none"/>
    <path d="M0.0 67.0 L0.0 8.0 1.0 8.0 1.0 67.0 0.0 67.0 M8.0 0.0 L260.0 0.0 260.0 1.0 8.0 1.0 8.0 0.0 M267.0 9.0 L268.0 9.0 268.0 66.0 267.0 66.0 267.0 9.0" fill="#b6c8d2" fill-opacity="0.83137256" fill-rule="evenodd" stroke="none"/>
    <path d="M268.0 9.0 L269.0 9.0 269.0 11.0 270.0 11.0 270.0 71.0 269.0 71.0 269.0 73.0 268.0 73.0 268.0 75.0 266.0 75.0 266.0 76.0 264.0 76.0 264.0 77.0 10.0 77.0 10.0 76.0 8.0 76.0 8.0 75.0 6.0 75.0 6.0 74.0 7.0 74.0 8.0 74.0 260.0 74.0 261.0 74.0 262.0 74.0 263.0 74.0 263.0 73.0 264.0 73.0 265.0 73.0 265.0 72.0 266.0 72.0 266.0 71.0 267.0 71.0 267.0 70.0 267.0 69.0 268.0 69.0 268.0 68.0 268.0 67.0 268.0 66.0 268.0 9.0" fill="#161616" fill-opacity="0.40392157" fill-rule="evenodd" stroke="none"/>
    <path d="M1.0 4.0 L1.0 3.0 2.0 3.0 2.0 4.0 1.0 4.0 M5.0 1.0 L5.0 0.0 6.0 0.0 6.0 1.0 5.0 1.0 M262.0 0.0 L263.0 0.0 263.0 1.0 262.0 1.0 262.0 0.0" fill="#1b1e1f" fill-opacity="0.12941177" fill-rule="evenodd" stroke="none"/>
    <path d="M7.0 0.0 L8.0 0.0 8.0 1.0 7.0 1.0 7.0 0.0 M260.0 0.0 L261.0 0.0 261.0 1.0 260.0 1.0 260.0 0.0" fill="#92a1a9" fill-opacity="0.67058825" fill-rule="evenodd" stroke="none"/>
    <path d="M268.0 67.0 L268.0 68.0 267.0 68.0 267.0 67.0 268.0 67.0" fill="#727d83" fill-opacity="0.68235296" fill-rule="evenodd" stroke="none"/>
    <path d="M266.0 69.0 L266.0 68.0 267.0 68.0 267.0 69.0 266.0 69.0 M1.0 68.0 L2.0 68.0 2.0 69.0 1.0 69.0 1.0 68.0" fill="#c0d0d9" fill-opacity="0.85882354" fill-rule="evenodd" stroke="none"/>
    <path d="M268.0 66.0 L268.0 67.0 267.0 67.0 267.0 66.0 268.0 66.0" fill="#9cacb4" fill-opacity="0.7764706" fill-rule="evenodd" stroke="none"/>
    <path d="M268.0 68.0 L268.0 69.0 267.0 69.0 267.0 68.0 268.0 68.0" fill="#36393b" fill-opacity="0.5411765" fill-rule="evenodd" stroke="none"/>
    <path d="M267.0 69.0 L267.0 70.0 266.0 70.0 266.0 69.0 267.0 69.0" fill="#747f85" fill-opacity="0.6862745" fill-rule="evenodd" stroke="none"/>
    <path d="M267.0 70.0 L267.0 71.0 266.0 71.0 266.0 70.0 267.0 70.0 M263.0 73.0 L263.0 74.0 262.0 74.0 262.0 73.0 263.0 73.0" fill="#323536" fill-opacity="0.53333336" fill-rule="evenodd" stroke="none"/>
    <path d="M265.0 71.0 L265.0 72.0 264.0 72.0 264.0 71.0 265.0 71.0" fill="#8a979f" fill-opacity="0.73333335" fill-rule="evenodd" stroke="none"/>
    <path d="M265.0 72.0 L265.0 73.0 264.0 73.0 264.0 72.0 265.0 72.0" fill="#202121" fill-opacity="0.49411765" fill-rule="evenodd" stroke="none"/>
    <path d="M264.0 73.0 L263.0 73.0 263.0 72.0 264.0 72.0 264.0 73.0 M262.0 74.0 L261.0 74.0 261.0 73.0 262.0 73.0 262.0 74.0" fill="#707a80" fill-opacity="0.6784314" fill-rule="evenodd" stroke="none"/>
    <path d="M266.0 71.0 L266.0 72.0 265.0 72.0 265.0 71.0 266.0 71.0" fill="#4b5053" fill-opacity="0.5921569" fill-rule="evenodd" stroke="none"/>
    <path d="M261.0 74.0 L260.0 74.0 260.0 73.0 261.0 73.0 261.0 74.0" fill="#99a8b0" fill-opacity="0.76862746" fill-rule="evenodd" stroke="none"/>
    <path d="M260.0 74.0 L8.0 74.0 8.0 73.0 260.0 73.0 260.0 74.0" fill="#b7c9d3" fill-opacity="0.8352941" fill-rule="evenodd" stroke="none"/>
    <path d="M1.0 70.0 L1.0 69.0 2.0 69.0 2.0 70.0 1.0 70.0 M0.0 68.0 L0.0 67.0 1.0 67.0 1.0 68.0 0.0 68.0 M1.0 5.0 L1.0 4.0 2.0 4.0 2.0 5.0 1.0 5.0" fill="#697379" fill-opacity="0.48235294" fill-rule="evenodd" stroke="none"/>
    <path d="M2.0 5.0 L2.0 8.0 1.0 8.0 1.0 7.0 1.0 6.0 1.0 5.0 2.0 5.0" fill="#d1dce3" fill-opacity="0.8980392" fill-rule="evenodd" stroke="none"/>
    <path d="M1.0 69.0 L0.0 69.0 0.0 68.0 1.0 68.0 1.0 69.0 M0.0 6.0 L0.0 5.0 1.0 5.0 1.0 6.0 0.0 6.0" fill="#1f2324" fill-opacity="0.14901961" fill-rule="evenodd" stroke="none"/>
    <path d="M0.0 7.0 L0.0 6.0 1.0 6.0 1.0 7.0 0.0 7.0" fill="#677177" fill-opacity="0.4745098" fill-rule="evenodd" stroke="none"/>
    <path d="M0.0 8.0 L0.0 7.0 1.0 7.0 1.0 8.0 0.0 8.0" fill="#9baab3" fill-opacity="0.70980394" fill-rule="evenodd" stroke="none"/>
    <path d="M4.0 72.0 L3.0 72.0 3.0 71.0 4.0 71.0 4.0 72.0" fill="#859299" fill-opacity="0.6313726" fill-rule="evenodd" stroke="none"/>
    <path d="M2.0 71.0 L1.0 71.0 1.0 70.0 2.0 70.0 2.0 71.0" fill="#1e2122" fill-opacity="0.14117648" fill-rule="evenodd" stroke="none"/>
    <path d="M5.0 73.0 L4.0 73.0 4.0 72.0 5.0 72.0 5.0 73.0" fill="#697379" fill-opacity="0.54509807" fill-rule="evenodd" stroke="none"/>
    <path d="M6.0 74.0 L5.0 74.0 5.0 73.0 6.0 73.0 6.0 74.0" fill="#27292b" fill-opacity="0.3254902" fill-rule="evenodd" stroke="none"/>
    <path d="M3.0 72.0 L2.0 72.0 2.0 71.0 3.0 71.0 3.0 72.0" fill="#393e41" fill-opacity="0.2784314" fill-rule="evenodd" stroke="none"/>
    <path d="M8.0 74.0 L7.0 74.0 7.0 73.0 8.0 73.0 8.0 74.0" fill="#99a8af" fill-opacity="0.75686276" fill-rule="evenodd" stroke="none"/>
    <path d="M7.0 74.0 L6.0 74.0 6.0 73.0 7.0 73.0 7.0 74.0" fill="#6d777d" fill-opacity="0.6156863" fill-rule="evenodd" stroke="none"/>
    <path d="M274.0 6.0 L275.0 6.0 275.0 7.0 274.0 7.0 274.0 6.0" fill="#030303" fill-opacity="0.07058824" fill-rule="evenodd" stroke="none"/>
    <path d="M273.0 5.0 L274.0 5.0 274.0 6.0 273.0 6.0 273.0 5.0" fill="#182024" fill-opacity="0.21568628" fill-rule="evenodd" stroke="none"/>
    <path d="M275.0 7.0 L276.0 7.0 276.0 8.0 275.0 8.0 275.0 7.0 M277.0 79.0 L277.0 80.0 276.0 80.0 276.0 79.0 277.0 79.0 M3.0 80.0 L3.0 79.0 4.0 79.0 4.0 80.0 3.0 80.0" fill="#030303" fill-opacity="0.0627451" fill-rule="evenodd" stroke="none"/>
    <path d="M276.0 8.0 L277.0 8.0 277.0 9.0 276.0 9.0 276.0 8.0" fill="#020202" fill-opacity="0.043137256" fill-rule="evenodd" stroke="none"/>
    <path d="M277.0 9.0 L277.0 10.0 276.0 10.0 276.0 9.0 277.0 9.0" fill="#040404" fill-opacity="0.07450981" fill-rule="evenodd" stroke="none"/>
    <path d="M275.0 8.0 L276.0 8.0 276.0 9.0 275.0 9.0 275.0 8.0 M274.0 82.0 L274.0 83.0 273.0 83.0 273.0 82.0 274.0 82.0 M269.0 85.0 L11.0 85.0 11.0 84.0 269.0 84.0 269.0 85.0 M6.0 82.0 L7.0 82.0 7.0 83.0 6.0 83.0 6.0 82.0" fill="#060606" fill-opacity="0.11764706" fill-rule="evenodd" stroke="none"/>
    <path d="M274.0 9.0 L274.0 8.0 275.0 8.0 275.0 9.0 274.0 9.0" fill="#0d0d0d" fill-opacity="0.23529412" fill-rule="evenodd" stroke="none"/>
    <path d="M274.0 9.0 L275.0 9.0 275.0 10.0 274.0 10.0 274.0 9.0" fill="#111111" fill-opacity="0.3137255" fill-rule="evenodd" stroke="none"/>
    <path d="M274.0 8.0 L274.0 9.0 273.0 9.0 273.0 8.0 274.0 8.0" fill="#7dacc6" fill-opacity="0.9647059" fill-rule="evenodd" stroke="none"/>
    <path d="M274.0 7.0 L275.0 7.0 275.0 8.0 274.0 8.0 274.0 7.0" fill="#080808" fill-opacity="0.14509805" fill-rule="evenodd" stroke="none"/>
    <path d="M274.0 7.0 L274.0 8.0 273.0 8.0 273.0 7.0 274.0 7.0" fill="#709ab0" fill-opacity="0.8784314" fill-rule="evenodd" stroke="none"/>
    <path d="M275.0 10.0 L275.0 11.0 274.0 11.0 274.0 10.0 275.0 10.0" fill="#151515" fill-opacity="0.36862746" fill-rule="evenodd" stroke="none"/>
    <path d="M0.0 72.0 L0.0 9.0 1.0 9.0 1.0 72.0 0.0 72.0 M9.0 0.0 L265.0 0.0 265.0 1.0 9.0 1.0 9.0 0.0 M274.0 10.0 L274.0 11.0 274.0 12.0 274.0 13.0 274.0 15.0 274.0 72.0 273.0 72.0 273.0 9.0 274.0 9.0 274.0 10.0 M268.0 13.0 L269.0 13.0 269.0 67.0 268.0 67.0 268.0 13.0 M12.0 5.0 L262.0 5.0 262.0 6.0 12.0 6.0 12.0 5.0 M6.0 13.0 L6.0 67.0 5.0 67.0 5.0 12.0 6.0 12.0 6.0 13.0" fill="#84b6d2" fill-rule="evenodd" stroke="none"/>
    <path d="M274.0 11.0 L275.0 11.0 275.0 12.0 274.0 12.0 274.0 11.0 M274.0 73.0 L275.0 73.0 275.0 75.0 274.0 75.0 274.0 74.0 274.0 73.0" fill="#161616" fill-opacity="0.39607844" fill-rule="evenodd" stroke="none"/>
    <path d="M274.0 12.0 L275.0 12.0 275.0 13.0 274.0 13.0 274.0 12.0" fill="#171717" fill-opacity="0.40392157" fill-rule="evenodd" stroke="none"/>
    <path d="M275.0 11.0 L275.0 10.0 276.0 10.0 276.0 11.0 275.0 11.0" fill="#0d0d0d" fill-opacity="0.23921569" fill-rule="evenodd" stroke="none"/>
    <path d="M275.0 11.0 L276.0 11.0 276.0 12.0 275.0 12.0 275.0 11.0" fill="#101010" fill-opacity="0.28235295" fill-rule="evenodd" stroke="none"/>
    <path d="M276.0 11.0 L276.0 10.0 277.0 10.0 277.0 11.0 276.0 11.0" fill="#060606" fill-opacity="0.10980392" fill-rule="evenodd" stroke="none"/>
    <path d="M276.0 12.0 L276.0 11.0 277.0 11.0 277.0 12.0 276.0 12.0" fill="#070707" fill-opacity="0.13333334" fill-rule="evenodd" stroke="none"/>
    <path d="M277.0 12.0 L277.0 13.0 276.0 13.0 276.0 12.0 277.0 12.0" fill="#080808" fill-opacity="0.15294118" fill-rule="evenodd" stroke="none"/>
    <path d="M278.0 11.0 L278.0 78.0 277.0 78.0 277.0 77.0 277.0 76.0 277.0 13.0 277.0 12.0 277.0 11.0 278.0 11.0 M272.0 84.0 L272.0 85.0 271.0 85.0 271.0 84.0 272.0 84.0 M9.0 85.0 L8.0 85.0 8.0 84.0 9.0 84.0 9.0 85.0" fill="#020202" fill-opacity="0.050980393" fill-rule="evenodd" stroke="none"/>
    <path d="M277.0 10.0 L278.0 10.0 278.0 11.0 277.0 11.0 277.0 10.0 M270.0 85.0 L270.0 86.0 10.0 86.0 10.0 85.0 11.0 85.0 269.0 85.0 270.0 85.0" fill="#010101" fill-opacity="0.03137255" fill-rule="evenodd" stroke="none"/>
    <path d="M276.0 10.0 L275.0 10.0 275.0 9.0 276.0 9.0 276.0 10.0" fill="#0a0a0a" fill-opacity="0.18039216" fill-rule="evenodd" stroke="none"/>
    <path d="M275.0 12.0 L276.0 12.0 276.0 13.0 275.0 13.0 275.0 12.0" fill="#111111" fill-opacity="0.30588236" fill-rule="evenodd" stroke="none"/>
    <path d="M273.0 6.0 L274.0 6.0 274.0 7.0 273.0 7.0 273.0 6.0" fill="#4c6776" fill-opacity="0.61960787" fill-rule="evenodd" stroke="none"/>
    <path d="M3.0 2.0 L3.0 1.0 4.0 1.0 4.0 2.0 3.0 2.0 M270.0 1.0 L271.0 1.0 271.0 2.0 270.0 2.0 270.0 1.0" fill="#040607" fill-opacity="0.039215688" fill-rule="evenodd" stroke="none"/>
    <path d="M2.0 3.0 L2.0 2.0 3.0 2.0 3.0 3.0 2.0 3.0 M271.0 2.0 L272.0 2.0 272.0 3.0 271.0 3.0 271.0 2.0" fill="#28373f" fill-opacity="0.30980393" fill-rule="evenodd" stroke="none"/>
    <path d="M271.0 2.0 L271.0 3.0 270.0 3.0 270.0 2.0 271.0 2.0 M4.0 2.0 L4.0 3.0 3.0 3.0 3.0 2.0 4.0 2.0" fill="#5e8296" fill-opacity="0.72156864" fill-rule="evenodd" stroke="none"/>
    <path d="M271.0 3.0 L272.0 3.0 272.0 4.0 271.0 4.0 271.0 3.0 M3.0 3.0 L3.0 4.0 2.0 4.0 2.0 3.0 3.0 3.0" fill="#82b4d0" fill-opacity="0.99607843" fill-rule="evenodd" stroke="none"/>
    <path d="M272.0 3.0 L273.0 3.0 273.0 4.0 272.0 4.0 272.0 3.0" fill="#12191d" fill-opacity="0.14901961" fill-rule="evenodd" stroke="none"/>
    <path d="M4.0 1.0 L5.0 1.0 5.0 2.0 4.0 2.0 4.0 1.0 M6.0 0.0 L7.0 0.0 7.0 1.0 6.0 1.0 6.0 0.0 M267.0 0.0 L268.0 0.0 268.0 1.0 267.0 1.0 267.0 0.0 M269.0 1.0 L270.0 1.0 270.0 2.0 269.0 2.0 269.0 1.0" fill="#486473" fill-opacity="0.5568628" fill-rule="evenodd" stroke="none"/>
    <path d="M269.0 2.0 L270.0 2.0 270.0 3.0 269.0 3.0 269.0 2.0 M5.0 3.0 L4.0 3.0 4.0 2.0 5.0 2.0 5.0 3.0" fill="#6aa4b7" fill-opacity="0.8235294" fill-rule="evenodd" stroke="none"/>
    <path d="M269.0 3.0 L270.0 3.0 270.0 4.0 271.0 4.0 271.0 5.0 272.0 5.0 272.0 6.0 272.0 7.0 272.0 8.0 272.0 9.0 273.0 9.0 273.0 72.0 272.0 72.0 272.0 73.0 272.0 74.0 272.0 75.0 271.0 75.0 271.0 76.0 271.0 77.0 270.0 77.0 270.0 78.0 269.0 78.0 268.0 78.0 268.0 79.0 267.0 79.0 266.0 79.0 11.0 79.0 8.0 79.0 7.0 79.0 6.0 79.0 6.0 78.0 5.0 78.0 4.0 78.0 4.0 77.0 3.0 77.0 3.0 76.0 3.0 75.0 2.0 75.0 2.0 74.0 2.0 73.0 2.0 72.0 1.0 72.0 1.0 9.0 2.0 9.0 2.0 8.0 2.0 7.0 2.0 6.0 2.0 5.0 3.0 5.0 3.0 4.0 4.0 4.0 4.0 3.0 5.0 3.0 6.0 3.0 6.0 2.0 7.0 2.0 8.0 2.0 8.0 1.0 9.0 1.0 265.0 1.0 266.0 1.0 266.0 2.0 267.0 2.0 268.0 2.0 268.0 3.0 269.0 3.0 M269.0 6.0 L269.0 5.0 268.0 5.0 268.0 4.0 267.0 4.0 266.0 4.0 266.0 3.0 265.0 3.0 264.0 3.0 263.0 3.0 11.0 3.0 10.0 3.0 9.0 3.0 8.0 3.0 8.0 4.0 7.0 4.0 6.0 4.0 6.0 5.0 5.0 5.0 5.0 6.0 4.0 6.0 4.0 7.0 4.0 8.0 3.0 8.0 3.0 9.0 3.0 10.0 3.0 11.0 3.0 12.0 3.0 68.0 3.0 69.0 3.0 70.0 3.0 71.0 3.0 72.0 4.0 72.0 4.0 73.0 4.0 74.0 5.0 74.0 5.0 75.0 6.0 75.0 6.0 76.0 7.0 76.0 8.0 76.0 8.0 77.0 9.0 77.0 10.0 77.0 11.0 77.0 263.0 77.0 264.0 77.0 265.0 77.0 266.0 77.0 266.0 76.0 267.0 76.0 268.0 76.0 268.0 75.0 269.0 75.0 269.0 74.0 270.0 74.0 270.0 73.0 270.0 72.0 271.0 72.0 271.0 71.0 271.0 70.0 271.0 69.0 271.0 68.0 271.0 12.0 271.0 11.0 271.0 10.0 271.0 9.0 271.0 8.0 270.0 8.0 270.0 7.0 270.0 6.0 269.0 6.0" fill="#4b8d98" fill-opacity="0.6039216" fill-rule="evenodd" stroke="none"/>
    <path d="M269.0 1.0 L269.0 2.0 268.0 2.0 268.0 1.0 269.0 1.0 M6.0 1.0 L6.0 2.0 5.0 2.0 5.0 1.0 6.0 1.0" fill="#7aaec7" fill-opacity="0.9411765" fill-rule="evenodd" stroke="none"/>
    <path d="M269.0 2.0 L269.0 3.0 268.0 3.0 268.0 2.0 269.0 2.0 M6.0 2.0 L6.0 3.0 5.0 3.0 5.0 2.0 6.0 2.0" fill="#4d8f9a" fill-opacity="0.61960787" fill-rule="evenodd" stroke="none"/>
    <path d="M1.0 4.0 L1.0 3.0 2.0 3.0 2.0 4.0 1.0 4.0 M5.0 1.0 L5.0 0.0 6.0 0.0 6.0 1.0 5.0 1.0 M268.0 0.0 L269.0 0.0 269.0 1.0 268.0 1.0 268.0 0.0" fill="#141b1f" fill-opacity="0.15686275" fill-rule="evenodd" stroke="none"/>
    <path d="M268.0 5.0 L269.0 5.0 269.0 6.0 268.0 6.0 268.0 5.0 M269.0 74.0 L269.0 75.0 268.0 75.0 268.0 74.0 269.0 74.0 M6.0 75.0 L5.0 75.0 5.0 74.0 6.0 74.0 6.0 75.0 M5.0 6.0 L5.0 5.0 6.0 5.0 6.0 6.0 5.0 6.0" fill="#5aa0ad" fill-opacity="0.7058824" fill-rule="evenodd" stroke="none"/>
    <path d="M269.0 6.0 L270.0 6.0 270.0 7.0 269.0 7.0 269.0 6.0" fill="#5296a2" fill-opacity="0.6509804" fill-rule="evenodd" stroke="none"/>
    <path d="M271.0 4.0 L272.0 4.0 272.0 5.0 271.0 5.0 271.0 4.0" fill="#64a0b2" fill-opacity="0.7921569" fill-rule="evenodd" stroke="none"/>
    <path d="M273.0 5.0 L273.0 6.0 272.0 6.0 272.0 5.0 273.0 5.0" fill="#79afc8" fill-opacity="0.94509804" fill-rule="evenodd" stroke="none"/>
    <path d="M273.0 4.0 L273.0 5.0 272.0 5.0 272.0 4.0 273.0 4.0" fill="#4c6979" fill-opacity="0.59607846" fill-rule="evenodd" stroke="none"/>
    <path d="M272.0 6.0 L273.0 6.0 273.0 7.0 272.0 7.0 272.0 6.0" fill="#65a1b3" fill-opacity="0.8039216" fill-rule="evenodd" stroke="none"/>
    <path d="M270.0 3.0 L271.0 3.0 271.0 4.0 270.0 4.0 270.0 3.0" fill="#5b99a8" fill-opacity="0.72156864" fill-rule="evenodd" stroke="none"/>
    <path d="M7.0 0.0 L8.0 0.0 8.0 1.0 7.0 1.0 7.0 0.0 M266.0 0.0 L267.0 0.0 267.0 1.0 266.0 1.0 266.0 0.0" fill="#6991a7" fill-opacity="0.8039216" fill-rule="evenodd" stroke="none"/>
    <path d="M267.0 2.0 L266.0 2.0 266.0 1.0 267.0 1.0 267.0 2.0 M8.0 1.0 L8.0 2.0 7.0 2.0 7.0 1.0 8.0 1.0" fill="#5695a3" fill-opacity="0.68235296" fill-rule="evenodd" stroke="none"/>
    <path d="M8.0 0.0 L9.0 0.0 9.0 1.0 8.0 1.0 8.0 0.0 M265.0 0.0 L266.0 0.0 266.0 1.0 265.0 1.0 265.0 0.0" fill="#81b3ce" fill-opacity="0.99215686" fill-rule="evenodd" stroke="none"/>
    <path d="M268.0 2.0 L267.0 2.0 267.0 1.0 268.0 1.0 268.0 2.0 M7.0 2.0 L6.0 2.0 6.0 1.0 7.0 1.0 7.0 2.0" fill="#64a0b2" fill-opacity="0.78431374" fill-rule="evenodd" stroke="none"/>
    <path d="M271.0 9.0 L271.0 10.0 270.0 10.0 270.0 9.0 271.0 9.0 M267.0 76.0 L266.0 76.0 266.0 75.0 267.0 75.0 267.0 76.0 M265.0 77.0 L264.0 77.0 264.0 76.0 265.0 76.0 265.0 77.0 M10.0 77.0 L9.0 77.0 9.0 76.0 10.0 76.0 10.0 77.0 M8.0 76.0 L7.0 76.0 7.0 75.0 8.0 75.0 8.0 76.0 M7.0 4.0 L8.0 4.0 8.0 5.0 7.0 5.0 7.0 4.0 M9.0 3.0 L10.0 3.0 10.0 4.0 9.0 4.0 9.0 3.0 M264.0 3.0 L265.0 3.0 265.0 4.0 264.0 4.0 264.0 3.0 M266.0 4.0 L267.0 4.0 267.0 5.0 266.0 5.0 266.0 4.0" fill="#67b0be" fill-opacity="0.7882353" fill-rule="evenodd" stroke="none"/>
    <path d="M264.0 6.0 L264.0 5.0 265.0 5.0 265.0 6.0 264.0 6.0 M10.0 5.0 L10.0 6.0 9.0 6.0 9.0 5.0 10.0 5.0" fill="#a8eaf8" fill-rule="evenodd" stroke="none"/>
    <path d="M264.0 6.0 L265.0 6.0 265.0 7.0 264.0 7.0 264.0 6.0 M10.0 6.0 L10.0 7.0 9.0 7.0 9.0 6.0 10.0 6.0" fill="#85b8d4" fill-rule="evenodd" stroke="none"/>
    <path d="M264.0 5.0 L264.0 6.0 263.0 6.0 263.0 5.0 264.0 5.0 M267.0 9.0 L267.0 8.0 268.0 8.0 268.0 9.0 267.0 9.0 M268.0 10.0 L269.0 10.0 269.0 11.0 268.0 11.0 268.0 10.0 M11.0 5.0 L11.0 6.0 10.0 6.0 10.0 5.0 11.0 5.0" fill="#97d2e6" fill-rule="evenodd" stroke="none"/>
    <path d="M265.0 5.0 L264.0 5.0 264.0 4.0 265.0 4.0 265.0 5.0 M269.0 10.0 L269.0 9.0 270.0 9.0 270.0 10.0 269.0 10.0 M9.0 75.0 L10.0 75.0 10.0 76.0 9.0 76.0 9.0 75.0" fill="#98e0ef" fill-opacity="0.9764706" fill-rule="evenodd" stroke="none"/>
    <path d="M264.0 4.0 L264.0 5.0 263.0 5.0 263.0 4.0 264.0 4.0" fill="#a4eaf7" fill-opacity="0.99215686" fill-rule="evenodd" stroke="none"/>
    <path d="M265.0 5.0 L265.0 4.0 266.0 4.0 266.0 5.0 265.0 5.0 M9.0 5.0 L8.0 5.0 8.0 4.0 9.0 4.0 9.0 5.0" fill="#84d2e2" fill-opacity="0.9490196" fill-rule="evenodd" stroke="none"/>
    <path d="M265.0 6.0 L265.0 5.0 266.0 5.0 266.0 6.0 265.0 6.0 M265.0 74.0 L266.0 74.0 266.0 75.0 265.0 75.0 265.0 74.0 M8.0 6.0 L8.0 5.0 9.0 5.0 9.0 6.0 8.0 6.0 M8.0 74.0 L9.0 74.0 9.0 75.0 8.0 75.0 8.0 74.0" fill="#abf0fd" fill-rule="evenodd" stroke="none"/>
    <path d="M268.0 5.0 L268.0 6.0 267.0 6.0 267.0 5.0 268.0 5.0 M267.0 74.0 L268.0 74.0 268.0 75.0 267.0 75.0 267.0 74.0 M7.0 6.0 L6.0 6.0 6.0 5.0 7.0 5.0 7.0 6.0 M6.0 74.0 L7.0 74.0 7.0 75.0 6.0 75.0 6.0 74.0" fill="#6fbaca" fill-opacity="0.84313726" fill-rule="evenodd" stroke="none"/>
    <path d="M267.0 6.0 L266.0 6.0 266.0 5.0 267.0 5.0 267.0 6.0 M7.0 6.0 L7.0 5.0 8.0 5.0 8.0 6.0 7.0 6.0 M7.0 74.0 L8.0 74.0 8.0 75.0 7.0 75.0 7.0 74.0" fill="#93ddeb" fill-opacity="0.96862745" fill-rule="evenodd" stroke="none"/>
    <path d="M263.0 4.0 L263.0 5.0 262.0 5.0 12.0 5.0 11.0 5.0 11.0 4.0 263.0 4.0 M266.0 6.0 L267.0 6.0 267.0 7.0 266.0 7.0 266.0 6.0 M268.0 9.0 L268.0 8.0 269.0 8.0 269.0 9.0 268.0 9.0 M269.0 12.0 L270.0 12.0 270.0 68.0 269.0 68.0 269.0 67.0 269.0 13.0 269.0 12.0 M264.0 74.0 L265.0 74.0 265.0 75.0 264.0 75.0 264.0 74.0 M266.0 74.0 L266.0 73.0 267.0 73.0 267.0 72.0 268.0 72.0 268.0 73.0 267.0 73.0 267.0 74.0 266.0 74.0 M261.0 75.0 L262.0 75.0 263.0 75.0 263.0 76.0 11.0 76.0 11.0 75.0 12.0 75.0 13.0 75.0 261.0 75.0 M7.0 7.0 L7.0 6.0 8.0 6.0 8.0 7.0 7.0 7.0 M6.0 8.0 L6.0 9.0 5.0 9.0 5.0 8.0 6.0 8.0 M4.0 11.0 L5.0 11.0 5.0 12.0 5.0 67.0 5.0 68.0 5.0 69.0 4.0 69.0 4.0 68.0 4.0 12.0 4.0 11.0 M6.0 73.0 L6.0 72.0 7.0 72.0 7.0 73.0 6.0 73.0 M9.0 74.0 L10.0 74.0 10.0 75.0 9.0 75.0 9.0 74.0 M7.0 74.0 L7.0 73.0 8.0 73.0 8.0 74.0 7.0 74.0" fill="#aef3ff" fill-rule="evenodd" stroke="none"/>
    <path d="M268.0 75.0 L268.0 76.0 267.0 76.0 267.0 75.0 268.0 75.0 M7.0 76.0 L6.0 76.0 6.0 75.0 7.0 75.0 7.0 76.0 M6.0 5.0 L6.0 4.0 7.0 4.0 7.0 5.0 6.0 5.0 M267.0 4.0 L268.0 4.0 268.0 5.0 267.0 5.0 267.0 4.0" fill="#4c8f9a" fill-opacity="0.6156863" fill-rule="evenodd" stroke="none"/>
    <path d="M267.0 7.0 L267.0 6.0 268.0 6.0 268.0 7.0 267.0 7.0 M6.0 74.0 L6.0 73.0 7.0 73.0 7.0 74.0 6.0 74.0" fill="#a0e7f5" fill-opacity="0.9882353" fill-rule="evenodd" stroke="none"/>
    <path d="M10.0 3.0 L11.0 3.0 11.0 4.0 10.0 4.0 10.0 3.0 M263.0 3.0 L264.0 3.0 264.0 4.0 263.0 4.0 263.0 3.0" fill="#73bfd0" fill-opacity="0.87058824" fill-rule="evenodd" stroke="none"/>
    <path d="M270.0 73.0 L270.0 74.0 269.0 74.0 269.0 73.0 270.0 73.0 M266.0 76.0 L266.0 77.0 265.0 77.0 265.0 76.0 266.0 76.0 M9.0 77.0 L8.0 77.0 8.0 76.0 9.0 76.0 9.0 77.0 M4.0 7.0 L4.0 6.0 5.0 6.0 5.0 7.0 4.0 7.0 M8.0 4.0 L8.0 3.0 9.0 3.0 9.0 4.0 8.0 4.0 M265.0 3.0 L266.0 3.0 266.0 4.0 265.0 4.0 265.0 3.0" fill="#5397a2" fill-opacity="0.654902" fill-rule="evenodd" stroke="none"/>
    <path d="M266.0 6.0 L266.0 7.0 265.0 7.0 265.0 6.0 266.0 6.0 M9.0 6.0 L9.0 7.0 8.0 7.0 8.0 6.0 9.0 6.0" fill="#9bd8eb" fill-rule="evenodd" stroke="none"/>
    <path d="M266.0 7.0 L267.0 7.0 267.0 8.0 266.0 8.0 266.0 7.0 M8.0 7.0 L8.0 8.0 7.0 8.0 7.0 7.0 8.0 7.0" fill="#90c8df" fill-rule="evenodd" stroke="none"/>
    <path d="M266.0 9.0 L266.0 8.0 267.0 8.0 267.0 9.0 266.0 9.0 M8.0 8.0 L8.0 9.0 7.0 9.0 7.0 8.0 8.0 8.0" fill="#b6d5e6" fill-rule="evenodd" stroke="none"/>
    <path d="M266.0 9.0 L267.0 9.0 267.0 10.0 266.0 10.0 266.0 9.0" fill="#f4fafd" fill-rule="evenodd" stroke="none"/>
    <path d="M266.0 8.0 L266.0 9.0 266.0 10.0 267.0 10.0 267.0 11.0 267.0 12.0 267.0 13.0 268.0 13.0 268.0 67.0 267.0 67.0 267.0 68.0 267.0 69.0 267.0 70.0 266.0 70.0 266.0 71.0 265.0 71.0 265.0 72.0 264.0 72.0 264.0 73.0 263.0 73.0 262.0 73.0 261.0 73.0 13.0 73.0 12.0 73.0 11.0 73.0 10.0 73.0 10.0 72.0 9.0 72.0 9.0 71.0 8.0 71.0 8.0 70.0 7.0 70.0 7.0 69.0 7.0 68.0 7.0 67.0 6.0 67.0 6.0 13.0 7.0 13.0 7.0 12.0 7.0 11.0 7.0 10.0 8.0 10.0 8.0 9.0 8.0 8.0 9.0 8.0 10.0 8.0 10.0 7.0 11.0 7.0 12.0 7.0 12.0 6.0 262.0 6.0 262.0 7.0 263.0 7.0 264.0 7.0 264.0 8.0 265.0 8.0 266.0 8.0" fill="#f7fbfe" fill-rule="evenodd" stroke="none"/>
    <path d="M268.0 7.0 L268.0 8.0 267.0 8.0 267.0 7.0 268.0 7.0 M268.0 71.0 L268.0 70.0 269.0 70.0 269.0 71.0 269.0 72.0 268.0 72.0 268.0 71.0 M6.0 7.0 L7.0 7.0 7.0 8.0 6.0 8.0 6.0 7.0 M5.0 71.0 L5.0 70.0 6.0 70.0 6.0 71.0 6.0 72.0 5.0 72.0 5.0 71.0" fill="#adf2fe" fill-rule="evenodd" stroke="none"/>
    <path d="M266.0 7.0 L266.0 8.0 265.0 8.0 265.0 7.0 266.0 7.0 M9.0 8.0 L8.0 8.0 8.0 7.0 9.0 7.0 9.0 8.0 M12.0 73.0 L13.0 73.0 13.0 74.0 12.0 74.0 12.0 73.0 M261.0 73.0 L262.0 73.0 262.0 74.0 261.0 74.0 261.0 73.0" fill="#b3d3e5" fill-rule="evenodd" stroke="none"/>
    <path d="M267.0 9.0 L268.0 9.0 268.0 10.0 267.0 10.0 267.0 9.0 M6.0 9.0 L7.0 9.0 7.0 10.0 6.0 10.0 6.0 9.0" fill="#84b7d3" fill-rule="evenodd" stroke="none"/>
    <path d="M268.0 7.0 L269.0 7.0 269.0 8.0 268.0 8.0 268.0 7.0 M264.0 75.0 L265.0 75.0 265.0 76.0 264.0 76.0 264.0 75.0" fill="#97e1f0" fill-opacity="0.98039216" fill-rule="evenodd" stroke="none"/>
    <path d="M265.0 7.0 L265.0 8.0 264.0 8.0 264.0 7.0 265.0 7.0 M10.0 7.0 L10.0 8.0 9.0 8.0 9.0 7.0 10.0 7.0" fill="#e8f2f9" fill-rule="evenodd" stroke="none"/>
    <path d="M264.0 6.0 L264.0 7.0 263.0 7.0 263.0 6.0 264.0 6.0 M268.0 10.0 L268.0 11.0 267.0 11.0 267.0 10.0 268.0 10.0 M11.0 7.0 L10.0 7.0 10.0 6.0 11.0 6.0 11.0 7.0 M9.0 72.0 L10.0 72.0 10.0 73.0 9.0 73.0 9.0 72.0 M264.0 73.0 L264.0 72.0 265.0 72.0 265.0 73.0 264.0 73.0" fill="#c4ddeb" fill-rule="evenodd" stroke="none"/>
    <path d="M267.0 11.0 L268.0 11.0 268.0 12.0 267.0 12.0 267.0 11.0" fill="#e5f1f8" fill-rule="evenodd" stroke="none"/>
    <path d="M267.0 12.0 L268.0 12.0 268.0 13.0 267.0 13.0 267.0 12.0" fill="#f1f8fc" fill-rule="evenodd" stroke="none"/>
    <path d="M268.0 11.0 L269.0 11.0 269.0 12.0 268.0 12.0 268.0 11.0" fill="#8bc0d9" fill-rule="evenodd" stroke="none"/>
    <path d="M268.0 9.0 L269.0 9.0 269.0 10.0 268.0 10.0 268.0 9.0" fill="#a7e9f8" fill-rule="evenodd" stroke="none"/>
    <path d="M272.0 8.0 L273.0 8.0 273.0 9.0 272.0 9.0 272.0 8.0" fill="#4f909c" fill-opacity="0.63529414" fill-rule="evenodd" stroke="none"/>
    <path d="M273.0 7.0 L273.0 8.0 272.0 8.0 272.0 7.0 273.0 7.0" fill="#5595a3" fill-opacity="0.6901961" fill-rule="evenodd" stroke="none"/>
    <path d="M270.0 8.0 L271.0 8.0 271.0 9.0 270.0 9.0 270.0 8.0 M5.0 74.0 L4.0 74.0 4.0 73.0 5.0 73.0 5.0 74.0" fill="#5397a3" fill-opacity="0.65882355" fill-rule="evenodd" stroke="none"/>
    <path d="M269.0 8.0 L270.0 8.0 270.0 9.0 269.0 9.0 269.0 8.0 M269.0 72.0 L269.0 71.0 270.0 71.0 270.0 72.0 269.0 72.0 M5.0 71.0 L5.0 72.0 4.0 72.0 4.0 71.0 5.0 71.0" fill="#86d2e3" fill-opacity="0.9529412" fill-rule="evenodd" stroke="none"/>
    <path d="M270.0 7.0 L270.0 8.0 269.0 8.0 269.0 7.0 270.0 7.0 M270.0 72.0 L270.0 73.0 269.0 73.0 269.0 72.0 270.0 72.0 M4.0 73.0 L4.0 72.0 5.0 72.0 5.0 73.0 4.0 73.0 M3.0 71.0 L3.0 70.0 4.0 70.0 4.0 71.0 3.0 71.0 M4.0 8.0 L4.0 7.0 5.0 7.0 5.0 8.0 4.0 8.0" fill="#68b1c0" fill-opacity="0.79607844" fill-rule="evenodd" stroke="none"/>
    <path d="M269.0 11.0 L269.0 10.0 270.0 10.0 270.0 11.0 269.0 11.0 M269.0 69.0 L270.0 69.0 270.0 70.0 269.0 70.0 269.0 69.0" fill="#a6ebf9" fill-opacity="0.99607843" fill-rule="evenodd" stroke="none"/>
    <path d="M269.0 12.0 L269.0 11.0 270.0 11.0 270.0 12.0 269.0 12.0 M269.0 68.0 L270.0 68.0 270.0 69.0 269.0 69.0 269.0 68.0" fill="#aaf0fc" fill-rule="evenodd" stroke="none"/>
    <path d="M271.0 10.0 L271.0 11.0 270.0 11.0 270.0 10.0 271.0 10.0 M271.0 69.0 L271.0 70.0 270.0 70.0 270.0 69.0 271.0 69.0" fill="#75c2d2" fill-opacity="0.88235295" fill-rule="evenodd" stroke="none"/>
    <path d="M271.0 11.0 L271.0 12.0 270.0 12.0 270.0 11.0 271.0 11.0" fill="#7ac8d9" fill-opacity="0.91764706" fill-rule="evenodd" stroke="none"/>
    <path d="M271.0 12.0 L271.0 68.0 270.0 68.0 270.0 12.0 271.0 12.0 M263.0 77.0 L11.0 77.0 11.0 76.0 263.0 76.0 263.0 77.0 M3.0 68.0 L3.0 12.0 4.0 12.0 4.0 68.0 3.0 68.0" fill="#7dccde" fill-opacity="0.9372549" fill-rule="evenodd" stroke="none"/>
    <path d="M268.0 6.0 L269.0 6.0 269.0 7.0 268.0 7.0 268.0 6.0 M268.0 74.0 L268.0 73.0 269.0 73.0 269.0 74.0 268.0 74.0 M6.0 6.0 L6.0 7.0 5.0 7.0 5.0 6.0 6.0 6.0 M5.0 73.0 L6.0 73.0 6.0 74.0 5.0 74.0 5.0 73.0" fill="#7ecdde" fill-opacity="0.9372549" fill-rule="evenodd" stroke="none"/>
    <path d="M268.0 12.0 L269.0 12.0 269.0 13.0 268.0 13.0 268.0 12.0" fill="#86bad5" fill-rule="evenodd" stroke="none"/>
    <path d="M275.0 13.0 L276.0 13.0 276.0 76.0 275.0 76.0 275.0 75.0 275.0 73.0 275.0 15.0 275.0 13.0" fill="#111111" fill-opacity="0.31764707" fill-rule="evenodd" stroke="none"/>
    <path d="M274.0 13.0 L275.0 13.0 275.0 15.0 274.0 15.0 274.0 13.0 M274.0 77.0 L275.0 77.0 275.0 78.0 274.0 78.0 274.0 77.0" fill="#161616" fill-opacity="0.39215687" fill-rule="evenodd" stroke="none"/>
    <path d="M274.0 15.0 L275.0 15.0 275.0 73.0 274.0 73.0 274.0 72.0 274.0 15.0" fill="#151515" fill-opacity="0.3764706" fill-rule="evenodd" stroke="none"/>
    <path d="M277.0 13.0 L277.0 76.0 276.0 76.0 276.0 13.0 277.0 13.0" fill="#080808" fill-opacity="0.16078432" fill-rule="evenodd" stroke="none"/>
    <path d="M11.0 3.0 L263.0 3.0 263.0 4.0 11.0 4.0 11.0 3.0" fill="#7ccbdd" fill-opacity="0.93333334" fill-rule="evenodd" stroke="none"/>
    <path d="M11.0 5.0 L12.0 5.0 12.0 6.0 11.0 6.0 11.0 5.0 M262.0 5.0 L263.0 5.0 263.0 6.0 262.0 6.0 262.0 5.0" fill="#8cc2db" fill-rule="evenodd" stroke="none"/>
    <path d="M263.0 6.0 L263.0 7.0 262.0 7.0 262.0 6.0 263.0 6.0 M12.0 6.0 L12.0 7.0 11.0 7.0 11.0 6.0 12.0 6.0" fill="#e1eef6" fill-rule="evenodd" stroke="none"/>
    <path d="M269.0 67.0 L269.0 68.0 268.0 68.0 268.0 67.0 269.0 67.0" fill="#88bcd6" fill-rule="evenodd" stroke="none"/>
    <path d="M271.0 68.0 L271.0 69.0 270.0 69.0 270.0 68.0 271.0 68.0" fill="#7bc9da" fill-opacity="0.92156863" fill-rule="evenodd" stroke="none"/>
    <path d="M267.0 68.0 L267.0 67.0 268.0 67.0 268.0 68.0 267.0 68.0" fill="#edf6fb" fill-rule="evenodd" stroke="none"/>
    <path d="M7.0 68.0 L7.0 69.0 6.0 69.0 6.0 68.0 7.0 68.0 M267.0 69.0 L267.0 68.0 268.0 68.0 268.0 69.0 267.0 69.0" fill="#d6e8f2" fill-rule="evenodd" stroke="none"/>
    <path d="M267.0 71.0 L267.0 70.0 268.0 70.0 268.0 71.0 267.0 71.0 M6.0 71.0 L6.0 70.0 7.0 70.0 7.0 71.0 6.0 71.0" fill="#8abed8" fill-rule="evenodd" stroke="none"/>
    <path d="M7.0 70.0 L8.0 70.0 8.0 71.0 7.0 71.0 7.0 70.0 M266.0 71.0 L266.0 70.0 267.0 70.0 267.0 71.0 266.0 71.0" fill="#cde2ee" fill-rule="evenodd" stroke="none"/>
    <path d="M266.0 71.0 L267.0 71.0 267.0 72.0 266.0 72.0 266.0 71.0 M7.0 71.0 L8.0 71.0 8.0 72.0 7.0 72.0 7.0 71.0" fill="#85b7d3" fill-rule="evenodd" stroke="none"/>
    <path d="M268.0 70.0 L268.0 69.0 269.0 69.0 269.0 70.0 268.0 70.0 M6.0 70.0 L5.0 70.0 5.0 69.0 6.0 69.0 6.0 70.0" fill="#9ddbed" fill-rule="evenodd" stroke="none"/>
    <path d="M7.0 69.0 L7.0 70.0 6.0 70.0 6.0 69.0 7.0 69.0 M267.0 70.0 L267.0 69.0 268.0 69.0 268.0 70.0 267.0 70.0" fill="#b2d3e4" fill-rule="evenodd" stroke="none"/>
    <path d="M267.0 71.0 L268.0 71.0 268.0 72.0 267.0 72.0 267.0 71.0 M6.0 72.0 L6.0 71.0 7.0 71.0 7.0 72.0 6.0 72.0" fill="#a5e6f5" fill-rule="evenodd" stroke="none"/>
    <path d="M265.0 73.0 L265.0 72.0 266.0 72.0 266.0 73.0 265.0 73.0 M8.0 72.0 L9.0 72.0 9.0 73.0 8.0 73.0 8.0 72.0" fill="#86b9d4" fill-rule="evenodd" stroke="none"/>
    <path d="M264.0 74.0 L264.0 73.0 265.0 73.0 265.0 74.0 264.0 74.0 M9.0 73.0 L10.0 73.0 10.0 74.0 9.0 74.0 9.0 73.0" fill="#93cde2" fill-rule="evenodd" stroke="none"/>
    <path d="M10.0 73.0 L11.0 73.0 11.0 74.0 10.0 74.0 10.0 73.0 M263.0 73.0 L264.0 73.0 264.0 74.0 263.0 74.0 263.0 73.0" fill="#8cbbd5" fill-rule="evenodd" stroke="none"/>
    <path d="M265.0 74.0 L265.0 73.0 266.0 73.0 266.0 74.0 265.0 74.0 M8.0 73.0 L9.0 73.0 9.0 74.0 8.0 74.0 8.0 73.0" fill="#a8ebf9" fill-rule="evenodd" stroke="none"/>
    <path d="M266.0 72.0 L267.0 72.0 267.0 73.0 266.0 73.0 266.0 72.0 M7.0 73.0 L7.0 72.0 8.0 72.0 8.0 73.0 7.0 73.0" fill="#a2e2f2" fill-rule="evenodd" stroke="none"/>
    <path d="M266.0 74.0 L267.0 74.0 267.0 75.0 266.0 75.0 266.0 74.0" fill="#92ddec" fill-opacity="0.972549" fill-rule="evenodd" stroke="none"/>
    <path d="M267.0 74.0 L267.0 73.0 268.0 73.0 268.0 74.0 267.0 74.0" fill="#a0e8f5" fill-opacity="0.99215686" fill-rule="evenodd" stroke="none"/>
    <path d="M268.0 73.0 L268.0 72.0 269.0 72.0 269.0 73.0 268.0 73.0 M269.0 71.0 L269.0 70.0 270.0 70.0 270.0 71.0 269.0 71.0" fill="#98e2f0" fill-opacity="0.98039216" fill-rule="evenodd" stroke="none"/>
    <path d="M8.0 71.0 L9.0 71.0 9.0 72.0 8.0 72.0 8.0 71.0 M265.0 72.0 L265.0 71.0 266.0 71.0 266.0 72.0 265.0 72.0" fill="#d5e7f1" fill-rule="evenodd" stroke="none"/>
    <path d="M271.0 70.0 L271.0 71.0 270.0 71.0 270.0 70.0 271.0 70.0 M3.0 10.0 L3.0 9.0 4.0 9.0 4.0 10.0 3.0 10.0" fill="#67b1bf" fill-opacity="0.7921569" fill-rule="evenodd" stroke="none"/>
    <path d="M272.0 73.0 L272.0 72.0 273.0 72.0 273.0 73.0 272.0 73.0" fill="#50919d" fill-opacity="0.6431373" fill-rule="evenodd" stroke="none"/>
    <path d="M272.0 74.0 L272.0 73.0 273.0 73.0 273.0 74.0 272.0 74.0" fill="#5998a7" fill-opacity="0.7176471" fill-rule="evenodd" stroke="none"/>
    <path d="M272.0 75.0 L272.0 74.0 273.0 74.0 273.0 75.0 272.0 75.0" fill="#6ba4b8" fill-opacity="0.8509804" fill-rule="evenodd" stroke="none"/>
    <path d="M274.0 72.0 L274.0 73.0 273.0 73.0 273.0 72.0 274.0 72.0" fill="#7aa8c1" fill-opacity="0.9529412" fill-rule="evenodd" stroke="none"/>
    <path d="M273.0 74.0 L273.0 73.0 274.0 73.0 274.0 74.0 273.0 74.0" fill="#698fa4" fill-opacity="0.85490197" fill-rule="evenodd" stroke="none"/>
    <path d="M271.0 71.0 L271.0 72.0 270.0 72.0 270.0 71.0 271.0 71.0 M4.0 72.0 L3.0 72.0 3.0 71.0 4.0 71.0 4.0 72.0 M3.0 9.0 L3.0 8.0 4.0 8.0 4.0 9.0 3.0 9.0" fill="#5498a4" fill-opacity="0.6627451" fill-rule="evenodd" stroke="none"/>
    <path d="M269.0 68.0 L269.0 69.0 268.0 69.0 268.0 68.0 269.0 68.0 M5.0 69.0 L5.0 68.0 6.0 68.0 6.0 69.0 5.0 69.0" fill="#90c9df" fill-rule="evenodd" stroke="none"/>
    <path d="M274.0 74.0 L274.0 75.0 273.0 75.0 273.0 74.0 274.0 74.0" fill="#475f6b" fill-opacity="0.6666667" fill-rule="evenodd" stroke="none"/>
    <path d="M11.0 73.0 L12.0 73.0 12.0 74.0 11.0 74.0 11.0 73.0 M262.0 73.0 L263.0 73.0 263.0 74.0 262.0 74.0 262.0 73.0" fill="#adcfe2" fill-rule="evenodd" stroke="none"/>
    <path d="M261.0 74.0 L262.0 74.0 262.0 75.0 261.0 75.0 261.0 74.0 M13.0 75.0 L12.0 75.0 12.0 74.0 13.0 74.0 13.0 75.0" fill="#9ddaec" fill-rule="evenodd" stroke="none"/>
    <path d="M13.0 73.0 L261.0 73.0 261.0 74.0 13.0 74.0 13.0 73.0" fill="#cae0ed" fill-rule="evenodd" stroke="none"/>
    <path d="M262.0 74.0 L263.0 74.0 263.0 75.0 262.0 75.0 262.0 74.0 M12.0 75.0 L11.0 75.0 11.0 74.0 12.0 74.0 12.0 75.0" fill="#9fdeef" fill-rule="evenodd" stroke="none"/>
    <path d="M263.0 76.0 L263.0 75.0 264.0 75.0 264.0 76.0 263.0 76.0 M11.0 75.0 L11.0 76.0 10.0 76.0 10.0 75.0 11.0 75.0" fill="#a6ebf8" fill-opacity="0.99607843" fill-rule="evenodd" stroke="none"/>
    <path d="M264.0 77.0 L263.0 77.0 263.0 76.0 264.0 76.0 264.0 77.0 M11.0 77.0 L10.0 77.0 10.0 76.0 11.0 76.0 11.0 77.0" fill="#74c0d0" fill-opacity="0.8745098" fill-rule="evenodd" stroke="none"/>
    <path d="M277.0 76.0 L277.0 77.0 276.0 77.0 276.0 76.0 277.0 76.0" fill="#080808" fill-opacity="0.14901961" fill-rule="evenodd" stroke="none"/>
    <path d="M277.0 77.0 L277.0 78.0 276.0 78.0 276.0 77.0 277.0 77.0" fill="#070707" fill-opacity="0.12941177" fill-rule="evenodd" stroke="none"/>
    <path d="M276.0 76.0 L276.0 77.0 275.0 77.0 275.0 76.0 276.0 76.0" fill="#111111" fill-opacity="0.3019608" fill-rule="evenodd" stroke="none"/>
    <path d="M274.0 75.0 L275.0 75.0 275.0 76.0 275.0 77.0 274.0 77.0 274.0 76.0 274.0 75.0 M266.0 81.0 L266.0 82.0 14.0 82.0 14.0 81.0 266.0 81.0" fill="#171717" fill-opacity="0.40784314" fill-rule="evenodd" stroke="none"/>
    <path d="M274.0 75.0 L274.0 76.0 273.0 76.0 273.0 75.0 274.0 75.0" fill="#1c1f20" fill-opacity="0.4392157" fill-rule="evenodd" stroke="none"/>
    <path d="M274.0 76.0 L274.0 77.0 273.0 77.0 273.0 76.0 274.0 76.0" fill="#181818" fill-opacity="0.43529412" fill-rule="evenodd" stroke="none"/>
    <path d="M275.0 78.0 L275.0 79.0 274.0 79.0 274.0 78.0 275.0 78.0" fill="#141414" fill-opacity="0.3529412" fill-rule="evenodd" stroke="none"/>
    <path d="M274.0 79.0 L275.0 79.0 275.0 80.0 274.0 80.0 274.0 79.0" fill="#101010" fill-opacity="0.29411766" fill-rule="evenodd" stroke="none"/>
    <path d="M274.0 78.0 L274.0 79.0 273.0 79.0 273.0 78.0 273.0 77.0 274.0 77.0 274.0 78.0 M269.0 80.0 L270.0 80.0 270.0 81.0 270.0 82.0 269.0 82.0 268.0 82.0 268.0 81.0 269.0 81.0 269.0 80.0 M11.0 81.0 L12.0 81.0 12.0 82.0 11.0 82.0 10.0 82.0 10.0 81.0 11.0 81.0" fill="#191919" fill-opacity="0.44313726" fill-rule="evenodd" stroke="none"/>
    <path d="M274.0 79.0 L274.0 80.0 273.0 80.0 273.0 79.0 274.0 79.0" fill="#161616" fill-opacity="0.4" fill-rule="evenodd" stroke="none"/>
    <path d="M274.0 80.0 L275.0 80.0 275.0 81.0 274.0 81.0 274.0 80.0 M6.0 80.0 L6.0 81.0 5.0 81.0 5.0 80.0 6.0 80.0" fill="#0b0b0b" fill-opacity="0.20784314" fill-rule="evenodd" stroke="none"/>
    <path d="M276.0 78.0 L276.0 79.0 275.0 79.0 275.0 78.0 276.0 78.0" fill="#0c0c0c" fill-opacity="0.22352941" fill-rule="evenodd" stroke="none"/>
    <path d="M275.0 79.0 L276.0 79.0 276.0 80.0 275.0 80.0 275.0 79.0" fill="#090909" fill-opacity="0.16078432" fill-rule="evenodd" stroke="none"/>
    <path d="M277.0 78.0 L277.0 79.0 276.0 79.0 276.0 78.0 277.0 78.0 M275.0 80.0 L276.0 80.0 276.0 81.0 275.0 81.0 275.0 80.0 M270.0 84.0 L270.0 85.0 269.0 85.0 269.0 84.0 270.0 84.0 M11.0 85.0 L10.0 85.0 10.0 84.0 11.0 84.0 11.0 85.0 M4.0 80.0 L5.0 80.0 5.0 81.0 4.0 81.0 4.0 80.0" fill="#050505" fill-opacity="0.09803922" fill-rule="evenodd" stroke="none"/>
    <path d="M277.0 80.0 L277.0 81.0 276.0 81.0 276.0 80.0 277.0 80.0 M4.0 81.0 L3.0 81.0 3.0 80.0 4.0 80.0 4.0 81.0" fill="#010101" fill-opacity="0.03529412" fill-rule="evenodd" stroke="none"/>
    <path d="M276.0 77.0 L276.0 78.0 275.0 78.0 275.0 77.0 276.0 77.0 M272.0 82.0 L272.0 83.0 271.0 83.0 271.0 82.0 272.0 82.0 M8.0 83.0 L8.0 82.0 9.0 82.0 9.0 83.0 8.0 83.0" fill="#0f0f0f" fill-opacity="0.27058825" fill-rule="evenodd" stroke="none"/>
    <path d="M276.0 81.0 L276.0 82.0 275.0 82.0 275.0 81.0 276.0 81.0 M274.0 83.0 L274.0 84.0 273.0 84.0 273.0 83.0 274.0 83.0 M7.0 84.0 L6.0 84.0 6.0 83.0 7.0 83.0 7.0 84.0 M5.0 82.0 L4.0 82.0 4.0 81.0 5.0 81.0 5.0 82.0" fill="#020202" fill-opacity="0.047058824" fill-rule="evenodd" stroke="none"/>
    <path d="M275.0 81.0 L275.0 82.0 274.0 82.0 274.0 81.0 275.0 81.0 M5.0 81.0 L6.0 81.0 6.0 82.0 5.0 82.0 5.0 81.0" fill="#060606" fill-opacity="0.12156863" fill-rule="evenodd" stroke="none"/>
    <path d="M275.0 82.0 L275.0 83.0 274.0 83.0 274.0 82.0 275.0 82.0 M6.0 83.0 L5.0 83.0 5.0 82.0 6.0 82.0 6.0 83.0" fill="#020202" fill-opacity="0.05490196" fill-rule="evenodd" stroke="none"/>
    <path d="M274.0 81.0 L274.0 82.0 273.0 82.0 273.0 81.0 274.0 81.0 M6.0 81.0 L7.0 81.0 7.0 82.0 6.0 82.0 6.0 81.0" fill="#0c0c0c" fill-opacity="0.21960784" fill-rule="evenodd" stroke="none"/>
    <path d="M274.0 80.0 L274.0 81.0 273.0 81.0 273.0 80.0 274.0 80.0" fill="#121212" fill-opacity="0.32156864" fill-rule="evenodd" stroke="none"/>
    <path d="M271.0 76.0 L271.0 75.0 272.0 75.0 272.0 76.0 271.0 76.0" fill="#4f909c" fill-opacity="0.6392157" fill-rule="evenodd" stroke="none"/>
    <path d="M271.0 77.0 L271.0 76.0 272.0 76.0 272.0 77.0 271.0 77.0" fill="#72a9bf" fill-opacity="0.89411765" fill-rule="evenodd" stroke="none"/>
    <path d="M271.0 77.0 L272.0 77.0 272.0 78.0 271.0 78.0 271.0 77.0" fill="#557382" fill-opacity="0.7372549" fill-rule="evenodd" stroke="none"/>
    <path d="M272.0 77.0 L272.0 76.0 273.0 76.0 273.0 77.0 272.0 77.0" fill="#4e6776" fill-opacity="0.69803923" fill-rule="evenodd" stroke="none"/>
    <path d="M272.0 76.0 L272.0 75.0 273.0 75.0 273.0 76.0 272.0 76.0" fill="#80b3ce" fill-opacity="0.99215686" fill-rule="evenodd" stroke="none"/>
    <path d="M272.0 77.0 L273.0 77.0 273.0 78.0 272.0 78.0 272.0 77.0" fill="#181818" fill-opacity="0.42352942" fill-rule="evenodd" stroke="none"/>
    <path d="M270.0 79.0 L270.0 78.0 271.0 78.0 271.0 79.0 270.0 79.0" fill="#547180" fill-opacity="0.7294118" fill-rule="evenodd" stroke="none"/>
    <path d="M269.0 78.0 L270.0 78.0 270.0 79.0 269.0 79.0 269.0 78.0" fill="#76acc4" fill-opacity="0.9254902" fill-rule="evenodd" stroke="none"/>
    <path d="M269.0 80.0 L269.0 79.0 270.0 79.0 270.0 80.0 269.0 80.0" fill="#415560" fill-opacity="0.627451" fill-rule="evenodd" stroke="none"/>
    <path d="M269.0 79.0 L269.0 80.0 268.0 80.0 268.0 79.0 269.0 79.0" fill="#6e96ad" fill-opacity="0.8745098" fill-rule="evenodd" stroke="none"/>
    <path d="M268.0 79.0 L268.0 78.0 269.0 78.0 269.0 79.0 268.0 79.0" fill="#5695a3" fill-opacity="0.69411767" fill-rule="evenodd" stroke="none"/>
    <path d="M270.0 80.0 L270.0 79.0 271.0 79.0 271.0 80.0 270.0 80.0 M266.0 81.0 L267.0 81.0 268.0 81.0 268.0 82.0 266.0 82.0 266.0 81.0 M271.0 81.0 L271.0 82.0 270.0 82.0 270.0 81.0 271.0 81.0 M14.0 81.0 L14.0 82.0 13.0 82.0 12.0 82.0 12.0 81.0 14.0 81.0 M9.0 81.0 L10.0 81.0 10.0 82.0 9.0 82.0 9.0 81.0" fill="#181818" fill-opacity="0.42745098" fill-rule="evenodd" stroke="none"/>
    <path d="M271.0 78.0 L272.0 78.0 272.0 79.0 271.0 79.0 271.0 78.0" fill="#181818" fill-opacity="0.41960785" fill-rule="evenodd" stroke="none"/>
    <path d="M270.0 80.0 L271.0 80.0 271.0 79.0 272.0 79.0 272.0 78.0 273.0 78.0 273.0 79.0 273.0 80.0 272.0 80.0 272.0 81.0 271.0 81.0 270.0 81.0 270.0 80.0" fill="#1a1a1a" fill-opacity="0.45490196" fill-rule="evenodd" stroke="none"/>
    <path d="M272.0 81.0 L272.0 80.0 273.0 80.0 273.0 81.0 272.0 81.0" fill="#171717" fill-opacity="0.4117647" fill-rule="evenodd" stroke="none"/>
    <path d="M270.0 78.0 L270.0 77.0 271.0 77.0 271.0 78.0 270.0 78.0" fill="#6ea6bb" fill-opacity="0.8666667" fill-rule="evenodd" stroke="none"/>
    <path d="M266.0 75.0 L266.0 76.0 265.0 76.0 265.0 75.0 266.0 75.0 M8.0 75.0 L9.0 75.0 9.0 76.0 8.0 76.0 8.0 75.0" fill="#85d2e2" fill-opacity="0.9529412" fill-rule="evenodd" stroke="none"/>
    <path d="M266.0 79.0 L267.0 79.0 267.0 80.0 266.0 80.0 266.0 79.0" fill="#69a3b6" fill-opacity="0.827451" fill-rule="evenodd" stroke="none"/>
    <path d="M11.0 79.0 L266.0 79.0 266.0 80.0 14.0 80.0 12.0 80.0 11.0 80.0 11.0 79.0" fill="#629fb0" fill-opacity="0.7882353" fill-rule="evenodd" stroke="none"/>
    <path d="M266.0 80.0 L267.0 80.0 267.0 81.0 266.0 81.0 266.0 80.0" fill="#4c6573" fill-opacity="0.68235296" fill-rule="evenodd" stroke="none"/>
    <path d="M267.0 79.0 L268.0 79.0 268.0 80.0 267.0 80.0 267.0 79.0" fill="#78adc6" fill-opacity="0.93333334" fill-rule="evenodd" stroke="none"/>
    <path d="M267.0 80.0 L268.0 80.0 268.0 81.0 267.0 81.0 267.0 80.0" fill="#2e393f" fill-opacity="0.52156866" fill-rule="evenodd" stroke="none"/>
    <path d="M266.0 82.0 L268.0 82.0 268.0 83.0 13.0 83.0 13.0 82.0 14.0 82.0 266.0 82.0" fill="#151515" fill-opacity="0.38431373" fill-rule="evenodd" stroke="none"/>
    <path d="M268.0 83.0 L268.0 82.0 269.0 82.0 269.0 83.0 268.0 83.0 M13.0 82.0 L13.0 83.0 11.0 83.0 11.0 82.0 12.0 82.0 13.0 82.0" fill="#151515" fill-opacity="0.38039216" fill-rule="evenodd" stroke="none"/>
    <path d="M272.0 81.0 L272.0 82.0 271.0 82.0 271.0 81.0 272.0 81.0 M8.0 82.0 L8.0 81.0 9.0 81.0 9.0 82.0 8.0 82.0" fill="#161616" fill-opacity="0.3882353" fill-rule="evenodd" stroke="none"/>
    <path d="M273.0 82.0 L273.0 83.0 272.0 83.0 272.0 82.0 273.0 82.0 M8.0 83.0 L7.0 83.0 7.0 82.0 8.0 82.0 8.0 83.0" fill="#0b0b0b" fill-opacity="0.19607843" fill-rule="evenodd" stroke="none"/>
    <path d="M272.0 83.0 L272.0 84.0 271.0 84.0 271.0 83.0 272.0 83.0 M9.0 83.0 L9.0 84.0 8.0 84.0 8.0 83.0 9.0 83.0" fill="#070707" fill-opacity="0.14117648" fill-rule="evenodd" stroke="none"/>
    <path d="M271.0 82.0 L271.0 83.0 270.0 83.0 270.0 82.0 271.0 82.0 M10.0 83.0 L9.0 83.0 9.0 82.0 10.0 82.0 10.0 83.0" fill="#121212" fill-opacity="0.32941177" fill-rule="evenodd" stroke="none"/>
    <path d="M273.0 81.0 L273.0 82.0 272.0 82.0 272.0 81.0 273.0 81.0 M7.0 82.0 L7.0 81.0 8.0 81.0 8.0 82.0 7.0 82.0" fill="#121212" fill-opacity="0.31764707" fill-rule="evenodd" stroke="none"/>
    <path d="M273.0 84.0 L272.0 84.0 272.0 83.0 273.0 83.0 273.0 84.0 M8.0 84.0 L7.0 84.0 7.0 83.0 8.0 83.0 8.0 84.0" fill="#040404" fill-opacity="0.09019608" fill-rule="evenodd" stroke="none"/>
    <path d="M269.0 83.0 L269.0 82.0 270.0 82.0 270.0 83.0 269.0 83.0 M11.0 82.0 L11.0 83.0 10.0 83.0 10.0 82.0 11.0 82.0" fill="#141414" fill-opacity="0.3647059" fill-rule="evenodd" stroke="none"/>
    <path d="M270.0 83.0 L270.0 84.0 269.0 84.0 269.0 83.0 270.0 83.0 M11.0 83.0 L11.0 84.0 10.0 84.0 10.0 83.0 11.0 83.0" fill="#0c0c0c" fill-opacity="0.22745098" fill-rule="evenodd" stroke="none"/>
    <path d="M271.0 85.0 L270.0 85.0 270.0 84.0 271.0 84.0 271.0 85.0 M10.0 85.0 L9.0 85.0 9.0 84.0 10.0 84.0 10.0 85.0" fill="#040404" fill-opacity="0.078431375" fill-rule="evenodd" stroke="none"/>
    <path d="M268.0 83.0 L269.0 83.0 269.0 84.0 11.0 84.0 11.0 83.0 13.0 83.0 268.0 83.0" fill="#0e0e0e" fill-opacity="0.25490198" fill-rule="evenodd" stroke="none"/>
    <path d="M271.0 83.0 L271.0 84.0 270.0 84.0 270.0 83.0 271.0 83.0 M10.0 84.0 L9.0 84.0 9.0 83.0 10.0 83.0 10.0 84.0" fill="#0a0a0a" fill-opacity="0.1882353" fill-rule="evenodd" stroke="none"/>
    <path d="M266.0 80.0 L266.0 81.0 14.0 81.0 14.0 80.0 266.0 80.0" fill="#567484" fill-opacity="0.7411765" fill-rule="evenodd" stroke="none"/>
    <path d="M268.0 81.0 L268.0 80.0 269.0 80.0 269.0 81.0 268.0 81.0" fill="#171717" fill-opacity="0.41568628" fill-rule="evenodd" stroke="none"/>
    <path d="M261.0 74.0 L261.0 75.0 13.0 75.0 13.0 74.0 261.0 74.0" fill="#95cfe4" fill-rule="evenodd" stroke="none"/>
    <path d="M263.0 74.0 L264.0 74.0 264.0 75.0 263.0 75.0 263.0 74.0 M10.0 74.0 L11.0 74.0 11.0 75.0 10.0 75.0 10.0 74.0" fill="#abeffc" fill-rule="evenodd" stroke="none"/>
    <path d="M11.0 4.0 L11.0 5.0 10.0 5.0 10.0 4.0 11.0 4.0" fill="#a3eaf7" fill-opacity="0.9882353" fill-rule="evenodd" stroke="none"/>
    <path d="M6.0 6.0 L7.0 6.0 7.0 7.0 6.0 7.0 6.0 6.0" fill="#a0e7f5" fill-opacity="0.9843137" fill-rule="evenodd" stroke="none"/>
    <path d="M10.0 4.0 L10.0 5.0 9.0 5.0 9.0 4.0 10.0 4.0" fill="#97e0ef" fill-opacity="0.972549" fill-rule="evenodd" stroke="none"/>
    <path d="M4.0 3.0 L4.0 4.0 3.0 4.0 3.0 3.0 4.0 3.0" fill="#5b99a8" fill-opacity="0.7176471" fill-rule="evenodd" stroke="none"/>
    <path d="M0.0 6.0 L0.0 5.0 1.0 5.0 1.0 6.0 0.0 6.0" fill="#171f24" fill-opacity="0.18039216" fill-rule="evenodd" stroke="none"/>
    <path d="M0.0 7.0 L0.0 6.0 1.0 6.0 1.0 7.0 0.0 7.0" fill="#4a6676" fill-opacity="0.5686275" fill-rule="evenodd" stroke="none"/>
    <path d="M2.0 5.0 L2.0 6.0 1.0 6.0 1.0 5.0 2.0 5.0" fill="#79aec7" fill-opacity="0.93333334" fill-rule="evenodd" stroke="none"/>
    <path d="M3.0 4.0 L3.0 5.0 2.0 5.0 2.0 4.0 3.0 4.0 M2.0 6.0 L2.0 7.0 1.0 7.0 1.0 6.0 2.0 6.0" fill="#639fb0" fill-opacity="0.7764706" fill-rule="evenodd" stroke="none"/>
    <path d="M1.0 5.0 L1.0 4.0 2.0 4.0 2.0 5.0 1.0 5.0" fill="#4b6878" fill-opacity="0.5803922" fill-rule="evenodd" stroke="none"/>
    <path d="M5.0 8.0 L5.0 9.0 4.0 9.0 4.0 8.0 5.0 8.0" fill="#85d2e3" fill-opacity="0.9490196" fill-rule="evenodd" stroke="none"/>
    <path d="M5.0 8.0 L5.0 7.0 6.0 7.0 6.0 8.0 5.0 8.0 M4.0 9.0 L5.0 9.0 5.0 10.0 4.0 10.0 4.0 9.0" fill="#99e1ef" fill-opacity="0.9764706" fill-rule="evenodd" stroke="none"/>
    <path d="M0.0 8.0 L0.0 7.0 1.0 7.0 1.0 8.0 0.0 8.0" fill="#6f99b1" fill-opacity="0.8509804" fill-rule="evenodd" stroke="none"/>
    <path d="M0.0 9.0 L0.0 8.0 1.0 8.0 1.0 9.0 0.0 9.0" fill="#80b1cc" fill-opacity="0.98039216" fill-rule="evenodd" stroke="none"/>
    <path d="M2.0 8.0 L2.0 9.0 1.0 9.0 1.0 8.0 2.0 8.0" fill="#4c8e99" fill-opacity="0.6117647" fill-rule="evenodd" stroke="none"/>
    <path d="M2.0 7.0 L2.0 8.0 1.0 8.0 1.0 7.0 2.0 7.0" fill="#5394a1" fill-opacity="0.6666667" fill-rule="evenodd" stroke="none"/>
    <path d="M5.0 10.0 L5.0 11.0 4.0 11.0 4.0 10.0 5.0 10.0" fill="#a7ecf9" fill-opacity="0.99607843" fill-rule="evenodd" stroke="none"/>
    <path d="M3.0 69.0 L3.0 68.0 4.0 68.0 4.0 69.0 3.0 69.0 M3.0 12.0 L3.0 11.0 4.0 11.0 4.0 12.0 3.0 12.0" fill="#7ccadc" fill-opacity="0.92941177" fill-rule="evenodd" stroke="none"/>
    <path d="M5.0 11.0 L6.0 11.0 6.0 12.0 5.0 12.0 5.0 11.0" fill="#8abfd9" fill-rule="evenodd" stroke="none"/>
    <path d="M3.0 11.0 L3.0 10.0 4.0 10.0 4.0 11.0 3.0 11.0" fill="#75c3d2" fill-opacity="0.8862745" fill-rule="evenodd" stroke="none"/>
    <path d="M7.0 8.0 L7.0 9.0 6.0 9.0 6.0 8.0 7.0 8.0 M6.0 10.0 L6.0 11.0 5.0 11.0 5.0 10.0 6.0 10.0" fill="#96d1e6" fill-rule="evenodd" stroke="none"/>
    <path d="M5.0 9.0 L6.0 9.0 6.0 10.0 5.0 10.0 5.0 9.0" fill="#a7e8f7" fill-rule="evenodd" stroke="none"/>
    <path d="M7.0 10.0 L7.0 11.0 6.0 11.0 6.0 10.0 7.0 10.0" fill="#c5deeb" fill-rule="evenodd" stroke="none"/>
    <path d="M7.0 11.0 L7.0 12.0 6.0 12.0 6.0 11.0 7.0 11.0" fill="#e6f1f8" fill-rule="evenodd" stroke="none"/>
    <path d="M8.0 9.0 L8.0 10.0 7.0 10.0 7.0 9.0 8.0 9.0 M7.0 12.0 L7.0 13.0 6.0 13.0 6.0 12.0 7.0 12.0" fill="#f5fafe" fill-rule="evenodd" stroke="none"/>
    <path d="M6.0 67.0 L7.0 67.0 7.0 68.0 6.0 68.0 6.0 67.0" fill="#eff6fb" fill-rule="evenodd" stroke="none"/>
    <path d="M5.0 68.0 L5.0 67.0 6.0 67.0 6.0 68.0 5.0 68.0" fill="#87bbd6" fill-rule="evenodd" stroke="none"/>
    <path d="M4.0 69.0 L5.0 69.0 5.0 70.0 4.0 70.0 4.0 69.0" fill="#a7edfa" fill-rule="evenodd" stroke="none"/>
    <path d="M5.0 70.0 L5.0 71.0 4.0 71.0 4.0 70.0 5.0 70.0" fill="#99e2f0" fill-opacity="0.98039216" fill-rule="evenodd" stroke="none"/>
    <path d="M3.0 70.0 L3.0 69.0 4.0 69.0 4.0 70.0 3.0 70.0" fill="#76c3d3" fill-opacity="0.8901961" fill-rule="evenodd" stroke="none"/>
    <path d="M0.0 73.0 L0.0 72.0 1.0 72.0 1.0 73.0 0.0 73.0" fill="#7baac4" fill-opacity="0.94509804" fill-rule="evenodd" stroke="none"/>
    <path d="M2.0 73.0 L2.0 74.0 1.0 74.0 1.0 73.0 2.0 73.0" fill="#5897a5" fill-opacity="0.69803923" fill-rule="evenodd" stroke="none"/>
    <path d="M0.0 74.0 L0.0 73.0 1.0 73.0 1.0 74.0 0.0 74.0" fill="#648a9f" fill-opacity="0.76862746" fill-rule="evenodd" stroke="none"/>
    <path d="M0.0 75.0 L0.0 74.0 1.0 74.0 1.0 75.0 0.0 75.0" fill="#3c535f" fill-opacity="0.4627451" fill-rule="evenodd" stroke="none"/>
    <path d="M1.0 72.0 L2.0 72.0 2.0 73.0 1.0 73.0 1.0 72.0" fill="#4e909b" fill-opacity="0.627451" fill-rule="evenodd" stroke="none"/>
    <path d="M2.0 74.0 L2.0 75.0 1.0 75.0 1.0 74.0 2.0 74.0" fill="#69a3b6" fill-opacity="0.81960785" fill-rule="evenodd" stroke="none"/>
    <path d="M5.0 72.0 L6.0 72.0 6.0 73.0 5.0 73.0 5.0 72.0" fill="#99e3f1" fill-opacity="0.9843137" fill-rule="evenodd" stroke="none"/>
    <path d="M12.0 80.0 L14.0 80.0 14.0 81.0 12.0 81.0 12.0 80.0" fill="#577484" fill-opacity="0.7490196" fill-rule="evenodd" stroke="none"/>
    <path d="M8.0 79.0 L11.0 79.0 11.0 80.0 8.0 80.0 8.0 79.0" fill="#63a0b1" fill-opacity="0.8039216" fill-rule="evenodd" stroke="none"/>
    <path d="M11.0 80.0 L12.0 80.0 12.0 81.0 11.0 81.0 11.0 80.0" fill="#587686" fill-opacity="0.76862746" fill-rule="evenodd" stroke="none"/>
    <path d="M11.0 80.0 L11.0 81.0 10.0 81.0 9.0 81.0 8.0 81.0 8.0 80.0 11.0 80.0" fill="#587687" fill-opacity="0.78431374" fill-rule="evenodd" stroke="none"/>
    <path d="M6.0 79.0 L7.0 79.0 7.0 80.0 6.0 80.0 6.0 79.0" fill="#78adc6" fill-opacity="0.9411765" fill-rule="evenodd" stroke="none"/>
    <path d="M6.0 80.0 L7.0 80.0 7.0 81.0 6.0 81.0 6.0 80.0" fill="#2b363c" fill-opacity="0.4745098" fill-rule="evenodd" stroke="none"/>
    <path d="M6.0 79.0 L6.0 80.0 5.0 80.0 5.0 79.0 6.0 79.0" fill="#6d96ad" fill-opacity="0.87058824" fill-rule="evenodd" stroke="none"/>
    <path d="M5.0 78.0 L6.0 78.0 6.0 79.0 5.0 79.0 5.0 78.0" fill="#5796a4" fill-opacity="0.7019608" fill-rule="evenodd" stroke="none"/>
    <path d="M7.0 79.0 L8.0 79.0 8.0 80.0 7.0 80.0 7.0 79.0" fill="#69a3b7" fill-opacity="0.84705883" fill-rule="evenodd" stroke="none"/>
    <path d="M7.0 80.0 L8.0 80.0 8.0 81.0 7.0 81.0 7.0 80.0" fill="#4e6774" fill-opacity="0.70980394" fill-rule="evenodd" stroke="none"/>
    <path d="M3.0 77.0 L4.0 77.0 4.0 78.0 3.0 78.0 3.0 77.0" fill="#6ca5b9" fill-opacity="0.8509804" fill-rule="evenodd" stroke="none"/>
    <path d="M3.0 76.0 L3.0 77.0 2.0 77.0 2.0 76.0 3.0 76.0" fill="#71a7bd" fill-opacity="0.87058824" fill-rule="evenodd" stroke="none"/>
    <path d="M2.0 75.0 L3.0 75.0 3.0 76.0 2.0 76.0 2.0 75.0" fill="#4f909c" fill-opacity="0.6313726" fill-rule="evenodd" stroke="none"/>
    <path d="M1.0 76.0 L0.0 76.0 0.0 75.0 1.0 75.0 1.0 76.0" fill="#070a0c" fill-opacity="0.0627451" fill-rule="evenodd" stroke="none"/>
    <path d="M2.0 77.0 L1.0 77.0 1.0 76.0 2.0 76.0 2.0 77.0" fill="#445d6c" fill-opacity="0.52156866" fill-rule="evenodd" stroke="none"/>
    <path d="M2.0 75.0 L2.0 76.0 1.0 76.0 1.0 75.0 2.0 75.0" fill="#80b2ce" fill-opacity="0.98039216" fill-rule="evenodd" stroke="none"/>
    <path d="M4.0 78.0 L5.0 78.0 5.0 79.0 4.0 79.0 4.0 78.0" fill="#76acc4" fill-opacity="0.91764706" fill-rule="evenodd" stroke="none"/>
    <path d="M4.0 79.0 L5.0 79.0 5.0 80.0 4.0 80.0 4.0 79.0" fill="#3a4e58" fill-opacity="0.5019608" fill-rule="evenodd" stroke="none"/>
    <path d="M3.0 79.0 L3.0 78.0 4.0 78.0 4.0 79.0 3.0 79.0" fill="#4d6a7b" fill-opacity="0.61960787" fill-rule="evenodd" stroke="none"/>
    <path d="M3.0 78.0 L2.0 78.0 2.0 77.0 3.0 77.0 3.0 78.0" fill="#4e6b7b" fill-opacity="0.60784316" fill-rule="evenodd" stroke="none"/>
  </g>
</svg>
