<?xml version="1.0" encoding="UTF-8" standalone="no"?>
<svg height="19.35px" width="66.85px" xmlns="http://www.w3.org/2000/svg">
  <g transform="matrix(1.0, 0.0, 0.0, 1.0, -0.75, 0.0)">
    <path d="M62.1 0.5 Q67.1 0.5 67.1 5.5 L67.1 13.85 Q67.1 18.85 62.1 18.85 L6.25 18.85 Q1.25 18.85 1.25 13.85 L1.25 5.5 Q1.25 0.5 6.25 0.5 L62.1 0.5" fill="url(#gradient0)" fill-rule="evenodd" stroke="none"/>
    <path d="M62.1 0.5 L6.25 0.5 Q1.25 0.5 1.25 5.5 L1.25 13.85 Q1.25 18.85 6.25 18.85 L62.1 18.85 Q67.1 18.85 67.1 13.85 L67.1 5.5 Q67.1 0.5 62.1 0.5 Z" fill="none" stroke="#ffcc33" stroke-linecap="round" stroke-linejoin="round" stroke-width="1.0"/>
  </g>
  <defs>
    <linearGradient gradientTransform="matrix(0.0, 0.0112, -0.0112, 0.0, 34.2, 9.7)" gradientUnits="userSpaceOnUse" id="gradient0" spreadMethod="pad" x1="-819.2" x2="819.2">
      <stop offset="0.0" stop-color="#ffffff"/>
      <stop offset="1.0" stop-color="#ffcc66"/>
    </linearGradient>
  </defs>
</svg>
