<?xml version="1.0" standalone="no"?><!DOCTYPE svg PUBLIC "-//W3C//DTD SVG 1.1//EN" "http://www.w3.org/Graphics/SVG/1.1/DTD/svg11.dtd">
<svg t="1698114165005" class="icon" viewBox="0 0 1024 1024" version="1.1" xmlns="http://www.w3.org/2000/svg" p-id="4099"
     width="200" height="200"><path d="M641.37 718.318c-36.133 22.402-75.156 34.687-114.902 37.578l-47.695 30.351c62.87 7.227 125.02-6.504 179.218-41.191 54.2-33.965 93.222-84.55 113.456-144.53l-46.972 30.35c-18.79 33.965-46.973 65.04-83.105 87.442zM380.491 305.682c36.133-22.402 75.156-34.687 114.902-37.578l47.695-30.351c-62.87-7.227-125.02 6.504-179.218 41.191-54.2 33.965-93.222 84.55-113.457 144.53l47.695-30.35c18.067-33.965 46.25-64.317 82.383-87.442z m547.05 195.84c3.612 141.64-65.04 281.834-193.673 363.494-128.632 81.66-284.725 83.828-411.19 19.512l-30.35 19.512c37.577 20.956 78.046 36.132 120.682 45.527 57.09 13.007 114.902 14.453 171.992 5.058 59.257-10.117 114.902-31.074 166.21-63.593 51.31-32.52 94.668-73.71 128.632-123.574 33.242-47.695 56.367-100.449 68.653-157.538 9.394-42.637 13.007-85.996 10.117-128.633l-31.074 20.235z m-833.944 21.68c-3.611-141.642 65.765-281.837 193.675-363.497s284.725-83.827 411.19-19.511l30.35-19.512c-37.577-20.957-78.046-36.133-120.682-46.25-57.09-13.007-114.902-14.453-171.992-5.058-59.257 10.117-114.902 31.074-166.21 63.593-51.31 32.52-94.668 73.71-128.632 123.574-33.243 47.695-56.367 100.449-69.375 157.538-8.673 41.914-11.564 85.274-8.673 127.91L93.6 523.2zM211.392 378.67l26.738 20.957 0.723-33.242 28.183-18.789-31.796-10.84-9.395-32.519-20.234 26.738-33.242-1.445 19.51 27.46-11.561 31.798 31.073-10.118z m297.733 495.74l15.899 29.63 13.73-30.352 33.242-5.781-24.57-22.402 4.335-33.242-28.906 16.62-30.352-14.453 6.505 32.52-23.125 24.57 33.242 2.89z m198.73-91.054l-12.285-31.074-16.621 28.906-33.242 2.168 22.402 25.293-7.95 32.52 30.352-13.73 28.184 18.066-3.614-33.242 25.293-21.68-32.52-7.227zM816.25 650.388l-26.738-20.234v33.242l-27.46 18.789 31.797 10.84 9.394 31.796 19.512-26.738 33.242 0.723-19.513-27.46 11.563-31.075-31.797 10.117zM514.905 156.816l-15.898-29.629-14.453 30.351-33.242 6.504 24.57 22.403-4.336 33.242 28.906-16.621 30.352 14.453-7.227-33.242 23.125-24.57-31.797-2.891z m-198.007 91.777l13.008 31.074 16.621-28.906 33.242-2.89-22.402-24.571 7.95-32.52-30.352 13.73-28.906-17.343 3.613 33.242-25.293 21.68 32.52 6.504z m669.178 156.093L209.223 896.09c-6.504 4.336-15.898 2.168-20.234-4.336L33.62 646.052c-4.338-6.504-2.17-15.898 4.334-20.234l776.853-491.404c6.503-4.336 15.898-2.168 20.234 4.335l155.37 245.703c5.06 6.504 2.891 15.175-4.336 20.234z m31.074-36.855L861.78 122.128c-13.73-21.68-41.915-27.46-63.594-14.453L21.333 599.08c-21.68 13.73-27.46 41.914-14.453 63.593l155.37 245.702c13.73 21.68 41.914 27.461 63.594 14.454l776.853-491.405c21.68-14.453 28.183-42.636 14.453-63.593z" fill="#707070" p-id="4100"></path><path d="M389.887 560.78l-33.964-54.2-100.45 62.871c-2.89 1.445-5.058 3.613-6.503 6.504l-11.563-6.504c4.336-2.168 8.672-3.613 11.563-5.781l98.28-62.148c-0.722-10.84-1.445-16.622-1.445-18.067 0-0.722 0.723-2.168 2.168-2.168 1.446-0.722 3.614-0.722 7.95-1.445h18.789c8.67 0 13.007 0.723 15.175 0.723 1.446 0 2.89 0.722 3.614 2.168 1.445 2.167 0 5.78-3.614 10.84l24.57 39.745c2.89 5.059 5.782 9.395 7.95 12.285l5.78 8.672c0.723 1.446 0.723 2.89 0 5.059-0.723 2.168-2.89 5.058-6.504 7.949-3.613 3.613-7.226 5.781-10.84 7.95-3.613 2.167-5.78 3.612-7.226 3.612-1.446 0-2.168-0.722-2.89-2.168l-5.781-9.394-84.55 52.754 40.468 65.039c2.89 4.335 5.78 7.226 10.117 7.949 3.613 0.722 9.395 0 17.344-2.89 7.226-2.892 17.344-8.673 29.629-15.9 31.074-19.51 49.863-32.519 55.644-39.745 6.504-7.227 9.395-14.453 9.395-22.402s-2.891-20.235-7.95-36.133c-0.722-2.168-0.722-3.613 0-4.336 0.723-0.723 2.168 0.723 3.614 4.336 1.445 2.89 3.613 6.504 5.78 10.117 5.06 7.95 9.395 13.008 13.009 15.176 3.613 2.168 9.394 3.613 15.175 3.613 3.614 0 6.504 1.445 8.672 5.059 2.168 3.613 2.168 8.671 0 16.62-2.168 7.95-8.672 15.899-19.511 24.57-10.84 8.673-27.461 20.235-50.586 33.966-28.906 18.066-50.586 30.351-63.594 36.132-13.008 5.781-23.847 7.227-31.074 5.059-7.226-2.168-14.453-8.672-20.957-20.235l-47.695-75.878c-6.504-10.117-11.562-18.066-15.898-23.848 7.226-3.613 14.453-6.504 21.68-9.394s11.562-3.613 13.007-3.613c1.445 0 2.168 0.722 2.89 1.445 1.446 2.168 0 4.336-2.167 7.226l7.226 11.563 85.273-52.754z m123.575-161.876c24.57-10.117 40.469-9.395 47.695 2.168 2.89 4.336 3.614 8.672 2.89 13.007-0.722 4.336-2.89 7.95-7.226 10.84-6.504 4.336-13.007 2.89-18.79-5.058-6.503-8.672-14.452-14.453-23.846-15.899 1.445 13.73 1.445 26.738 0.722 38.3 8.672-3.612 15.899-5.058 23.848-4.335 7.227 0.723 12.285 3.613 15.176 8.672 2.89 5.058 4.336 10.117 3.613 14.453-0.723 5.059-2.89 8.672-7.227 10.84-3.613 2.168-7.226 2.89-10.84 2.168-2.89-0.723-5.78-3.614-7.226-7.227-1.445-3.613-2.89-6.504-4.336-8.672-3.613-6.504-8.672-10.117-13.008-10.84-1.445 13.008-3.613 26.016-7.226 38.301-3.613 12.285-6.504 19.512-7.95 20.234 0 0-0.722 0-0.722-0.722v-2.89c4.336-33.243-2.89-70.82-22.402-113.457 9.394-3.614 18.066-6.504 26.015-8.672 7.95-2.168 12.285-2.89 13.73-2.89 1.446 0 2.169 0.722 2.89 1.444 0.724 1.446 0 3.614-2.167 5.782-2.89 2.89-4.336 7.226-3.613 14.453z m62.87 127.91c-3.613-18.067-7.227-31.797-10.117-41.915l-35.41 21.68c-2.89 2.168-5.058 4.336-6.503 7.227l-12.285-6.504c3.613-1.446 7.226-3.614 11.562-6.504l37.578-23.848c0-10.84 0.723-16.62 2.89-18.066 1.446-0.723 7.95-0.723 19.512 0s18.067 2.89 19.512 5.059c1.445 2.168 0.723 5.058-2.89 7.226-3.614 2.168-6.504 6.504-7.95 13.008-2.168 6.504-5.058 20.234-9.394 41.191 20.234-0.723 33.242 3.613 39.746 14.453 2.89 5.059 4.336 10.117 2.89 15.176-0.722 5.058-3.613 9.394-7.95 11.562-4.336 2.891-7.949 3.614-12.285 2.891-3.613-0.723-7.226-2.89-10.117-7.227-6.503-8.671-13.007-14.453-19.511-18.066-6.504-3.613-16.62-5.058-30.351-5.781-1.445 0-2.89 0-2.89-0.723s0.722-0.722 2.167-2.168c1.446-0.722 5.78-2.89 11.563-5.058 7.226-0.723 13.73-2.168 20.234-3.614z m28.183-139.473c-7.226-13.73-14.453-26.015-21.68-36.855l-30.35 18.789c-2.89 2.168-5.06 4.336-6.504 7.226L533.694 370c3.614-1.446 7.227-3.614 11.563-6.504l74.433-46.25v-13.73c0-5.06 0.723-7.227 0.723-8.672 0-0.723 0.722-1.446 1.445-2.168 2.168-1.446 8.672-0.723 20.234 0.722 11.563 2.168 17.344 3.614 18.79 5.782 0.722 0.722-0.723 2.168-3.614 4.335l-42.636 26.739c2.168 2.89 1.445 6.504-0.723 10.117 0 10.84 0.723 23.847 2.168 39.023l22.402-13.73c-1.445-10.84-0.722-17.344 1.445-18.79 1.447-0.722 6.505-1.445 14.455-0.722s14.453 0.723 18.066 1.445c4.336 0.723 6.504 1.446 7.95 3.614 1.444 2.168-0.724 5.78-5.06 10.117l33.243 53.476c4.335 6.504 7.226 11.563 9.394 13.73l5.059 7.227c1.445 2.168 0.722 5.781-3.614 9.395-3.613 3.613-7.226 7.226-10.84 9.394-3.613 2.168-5.78 3.613-6.503 3.613-0.723 0-2.168-0.722-2.89-2.89L645.707 370l-43.36 27.46c0 0.723 0 2.891-1.445 5.059l53.477 85.273c0.722 1.445 0.722 2.168 0.722 2.89 0 0.723-0.722 2.891-2.89 5.06a52.708 52.708 0 0 1-6.504 7.948c-2.89 2.891-5.782 5.06-8.672 7.227-1.445 0.723-2.168 0.723-2.89-0.723l-5.782-10.117c-4.337-7.226-7.95-13.73-11.563-19.511l-37.578-59.98c-5.782-8.673-10.118-15.899-15.176-22.403 10.84-3.613 21.68-5.781 31.797-6.504l8.671-4.336z m78.047 89.61c0.723 14.452-2.168 27.46-7.227 39.745-5.058 12.285-13.007 23.848-22.402 35.41-9.394 11.563-15.175 18.067-16.62 18.79-1.446 0.722-2.89 1.445-2.89 0.722s0-2.168 1.445-3.613c10.84-15.176 18.789-29.63 23.847-44.082 4.336-14.453 5.782-27.461 3.614-38.3-2.168-10.84-10.84-28.907-26.016-53.477-6.504-10.117-13.73-21.68-22.402-33.965 5.059-2.89 11.562-5.781 18.789-9.394s11.562-5.059 13.008-5.059c1.445 0 2.168 0.723 2.89 2.168 0.723 0.723 0.723 2.168-0.722 3.613-0.723 1.446-1.446 2.89-0.723 4.336 0 1.445 1.445 3.613 3.613 7.227 20.235 32.52 31.074 56.367 33.242 71.542 25.293-9.394 44.082-13.007 54.922-12.285 10.84 0.723 18.789 4.336 23.125 11.563 2.89 4.336 2.89 8.672 2.168 13.73-0.723 5.059-3.613 8.672-8.672 11.563-4.336 2.89-9.394 2.168-14.453-1.446-10.117-7.949-20.234-13.007-28.906-15.175-10.117-3.614-19.512-4.336-29.63-3.614z" fill="#707070" p-id="4101"></path></svg>