<?xml version="1.0" standalone="no"?><!DOCTYPE svg PUBLIC "-//W3C//DTD SVG 1.1//EN" "http://www.w3.org/Graphics/SVG/1.1/DTD/svg11.dtd">
<svg t="1698114618229" class="icon" viewBox="0 0 1024 1024" version="1.1" xmlns="http://www.w3.org/2000/svg" p-id="7171"
     width="200" height="200"><path d="M512.002519 1019.228787" fill="#d81e06" p-id="7172"></path><path d="M512.002519 0C229.682508 0 0 229.682508 0 512.003769c0 282.31376 229.682508 511.996269 512.002519 511.996269 282.31001 0 511.997519-229.682508 511.997519-511.996269C1023.998787 229.682508 794.316279 0 512.002519 0zM512.002519 1019.228787c-279.68751 0-507.227519-227.537508-507.227519-507.225019C4.775 232.315009 232.315009 4.775 512.002519 4.775c279.68251 0 507.226269 227.540008 507.226269 507.227519C1019.228787 791.691279 791.685029 1019.228787 512.002519 1019.228787z" fill="#d81e06" p-id="7173"></path><path d="M512.002519 911.811283" fill="#d81e06" p-id="7174"></path><path d="M466.943767 354.682513 346.377513 354.682513 346.377513 394.872514 466.943767 394.872514 466.943767 354.682513 466.943767 354.682513Z" fill="#d81e06" p-id="7175"></path><path d="M547.79752 586.176271 587.461272 586.176271 587.461272 555.05877 547.79752 555.05877 547.79752 586.176271Z" fill="#d81e06" p-id="7176"></path><path d="M547.79752 630.312523 587.461272 630.312523 587.461272 599.193772 547.79752 599.193772 547.79752 630.312523Z" fill="#d81e06" p-id="7177"></path><path d="M587.461272 673.027525l0-29.697501-39.662501 0 0 35.495001C560.478771 676.993775 573.696271 675.058775 587.461272 673.027525L587.461272 673.027525z" fill="#d81e06" p-id="7178"></path><path d="M615.327523 561.767521l0-6.70875-12.6075 0 0 115.630004c7.5875-1.22125 15.317501-2.475 23.183751-3.765-0.405 5.56125-0.61 10.23875-0.61 14.035001-7.66125 1.15625-15.185001 2.30875-22.573751 3.46125l0 32.743751c18.980001-11.11875 35.727501-26.406251 50.235002-45.863752-15.658751-24.951251-25.727501-61.460002-30.205001-109.526254l-7.4225 0L615.327523 561.767521z" fill="#d81e06" p-id="7179"></path><path d="M690.586275 561.767521l-53.091252 0c3.18875 39.663751 11.46 71.596253 24.818751 95.802504C674.106275 637.705023 683.530025 605.771272 690.586275 561.767521L690.586275 561.767521z" fill="#d81e06" p-id="7180"></path><path d="M512.002519 88.315003c-233.622509 0-423.687516 190.063757-423.687516 423.687516 0 233.617509 190.063757 423.680016 423.687516 423.680016 233.618759 0 423.681266-190.063757 423.681266-423.680016C935.683784 278.37876 745.620027 88.315003 512.002519 88.315003zM329.560012 339.921262l0.005 0 64.380002 0 0-64.378752 17.227501 0 0 24.603751 91.650003 0 0 14.761251-91.650003 0 0 25.013751 72.582503 0 0 78.331253-16.816251 0 0-8.61375-120.561254 0 0 8.61375-16.817501 0L329.560012 339.921262zM504.257518 467.661267l-15.581251 8.4075c-6.835-13.945001-15.107501-29.183751-24.808751-45.722502l14.145001-7.3825C488.950018 439.506266 497.695018 454.403767 504.257518 467.661267zM446.025016 464.590017l-16.196251 6.3525c-3.8275-12.3-9.365-26.655001-16.606251-43.056252l14.966251-5.7425C434.751266 435.673766 440.698766 449.823766 446.025016 464.590017zM395.586264 467.251267l-16.606251 5.7425c-4.23875-14.897501-9.0925-29.590001-14.561251-44.082502l14.766251-5.3325C385.473764 437.382516 390.937514 451.943767 395.586264 467.251267zM330.591262 424.400016l14.350001 8.1975c-10.39 18.730001-19.546251 33.422501-27.475001 44.087502l-14.146251-10.04875C312.202511 454.877517 321.293762 440.801266 330.591262 424.400016zM347.456263 535.12877l15.863751 0-2.44125 5.4875c12.47625 14.512501 24.610001 29.902501 36.406251 46.172502l-12.2025 10.98625c-10.57625-16.002501-20.883751-30.377501-30.917501-43.120002-10.57625 22.508751-23.525001 44.608752-38.847501 66.303752-2.71-4.61-6.035-9.35625-9.96625-14.240001C321.621262 586.518771 335.658762 562.651271 347.456263 535.12877zM371.050014 614.042522l-14.033751 7.31875c-3.53-8.67625-8.75-19.185001-15.663751-31.523751l12.6125-6.30875C360.063763 593.158772 365.761263 603.330022 371.050014 614.042522zM362.305013 729.975027c-13.565-19.931251-27.392501-38.236251-41.495002-54.917502l12.0025-8.94375c6.235 7.455 12.33875 14.843751 18.306251 22.166251 7.05-12.6125 14.168751-27.661251 21.352501-45.151252l-59.795002 0 0-14.037501 76.273753 0 0 14.037501c-10.3075 23.047501-19.662501 42.167502-28.071251 57.355002 5.28875 6.5075 10.44 13.085 15.458751 19.730001L362.305013 729.975027zM495.527518 732.213777c-15.453751-14.913751-32.070001-29.356251-49.828752-43.321252-0.67875 1.22125-1.3575 2.37375-2.03625 3.4575-9.21875 14.780001-25.493751 28.135001-48.813752 40.070001-4.4725-5.695-8.27125-10.1675-11.39125-13.42375 22.508751-9.76125 37.968751-21.083751 46.376252-33.965001 7.99875-11.39125 12.0025-27.866251 12.0025-49.428752l0-30.102501 14.638751 0 0 30.508751c0 15.053751-1.62625 28.001251-4.87875 38.852501 19.658751 14.368751 38.375001 29.217501 56.138752 44.541252L495.527518 732.213777zM507.935019 555.25877l-49.628752 0-5.89875 27.866251 45.966252 0 0 97.221254-14.643751 0 0-83.187503-68.340003 0 0 84.003753-14.642501 0L400.747515 583.125021l36.000001 0 5.08375-27.866251-50.850002 0 0-14.238751 116.953754 0L507.935019 555.25877zM514.511269 365.551263l91.445003 0 0-36.908751-76.685003 0 0-15.581251 76.685003 0 0-36.703751 18.047501 0 0 36.703751 77.300003 0 0 15.581251-77.300003 0 0 36.908751 91.240003 0 0 15.581251-91.240003 0 0 71.972503 54.951252 0 0-54.335002 17.631251 0 0 78.735003-17.631251 0 0-8.81875L534.19377 468.686267l0-69.916253 17.631251 0 0 54.335002 54.131252 0 0-71.972503-91.445003 0L514.511269 365.551263zM704.823776 728.555027c-14.511251-10.57625-28.818751-25.355001-42.920002-44.341252-13.696251 17.963751-29.966251 33.560001-48.813752 46.782502-3.8625-5.08625-7.32375-9.355-10.37125-12.8175l0 12.6125-15.258751 0 0-44.037502c-24.746251 3.8675-48.408752 7.69625-70.981253 11.495l-2.24125-15.048751c5.96625-0.74875 12.07-1.53 18.306251-2.34L532.54377 555.05877l-15.248751 0 0-14.238751 99.658754 0 0 7.12 88.886253 0 0 12.8125c-7.86625 50.032502-19.457501 86.883753-34.780001 110.546254 12.8125 18.101251 28.203751 32.167501 46.172502 42.202502C713.432526 717.431276 709.297526 722.451276 704.823776 728.555027z" fill="#d81e06" p-id="7181"></path></svg>